{"glyphs":{"0":{"ha":694,"x_min":81,"x_max":614,"o":"m 347 -11 q 273 -3 310 -11 q 203 22 236 4 q 147 69 171 40 q 107 133 122 99 q 86 203 92 167 q 81 278 81 240 l 81 743 q 86 817 81 781 q 107 888 92 854 q 147 951 122 922 q 203 999 171 981 q 273 1024 236 1017 q 347 1032 310 1032 q 422 1024 385 1032 q 491 999 458 1017 q 548 951 524 981 q 588 888 572 922 q 608 817 603 854 q 614 743 614 781 l 614 278 q 608 203 614 240 q 588 133 603 167 q 548 69 572 99 q 491 22 524 40 q 422 -3 458 4 q 347 -11 385 -11 m 165 413 l 529 701 l 529 743 q 526 796 529 769 q 513 847 522 822 q 487 893 503 872 q 449 928 471 914 q 400 949 426 943 q 347 956 374 956 q 294 949 321 956 q 246 928 268 943 q 208 893 224 914 q 182 847 192 872 q 169 796 172 822 q 165 743 165 769 l 165 413 m 347 65 q 400 72 374 65 q 449 92 426 78 q 487 128 471 107 q 513 174 503 149 q 526 225 522 199 q 529 278 529 251 l 529 608 l 165 319 l 165 278 q 169 225 165 251 q 182 174 172 199 q 208 128 192 149 q 246 92 224 107 q 294 72 268 78 q 347 65 321 65 z "},"1":{"ha":694,"x_min":83,"x_max":431,"o":"m 347 0 l 347 929 l 129 771 l 83 828 l 347 1021 l 431 1021 l 431 0 l 347 0 z "},"2":{"ha":694,"x_min":89,"x_max":608,"o":"m 92 0 l 92 1 q 93 78 92 40 q 101 154 94 117 q 122 228 108 192 q 153 298 135 265 q 197 360 172 331 q 250 416 222 390 q 309 465 278 442 q 372 510 340 488 q 432 558 403 532 q 482 615 461 583 q 513 685 503 647 q 524 760 524 722 q 515 834 524 797 q 481 899 506 871 q 422 942 457 928 q 349 956 386 956 q 280 945 314 956 q 222 910 246 935 q 185 851 197 885 q 174 783 174 818 l 174 776 l 89 776 l 89 786 q 97 853 89 819 q 121 915 104 886 q 163 968 138 944 q 217 1006 188 992 q 281 1026 247 1021 q 349 1032 315 1032 q 420 1025 385 1032 q 487 1001 456 1018 q 542 958 518 985 q 582 899 567 932 q 603 831 597 867 q 608 760 608 796 q 599 676 608 718 q 568 599 589 635 q 517 532 547 563 q 455 475 488 501 q 388 424 422 449 q 322 371 353 399 q 265 310 292 343 q 219 239 238 276 q 190 160 200 201 q 178 76 181 119 l 603 76 l 603 0 l 92 0 z "},"3":{"ha":694,"x_min":78,"x_max":625,"o":"m 351 -11 q 282 -6 317 -11 q 215 14 247 0 q 157 51 183 28 q 113 105 131 75 q 86 169 94 135 q 78 239 78 203 l 78 244 l 163 244 l 163 240 q 176 169 163 204 q 216 110 189 133 q 279 76 243 86 q 351 65 315 65 q 428 79 390 65 q 492 122 465 93 q 529 189 518 150 q 540 267 540 228 q 533 328 540 297 q 511 388 526 360 q 472 438 496 415 q 420 472 449 460 q 360 488 392 485 q 296 490 328 490 l 296 568 q 354 571 325 568 q 410 585 383 574 q 457 616 436 596 q 492 662 478 636 q 512 715 506 688 q 518 772 518 743 q 508 842 518 807 q 476 903 499 876 q 420 943 454 931 q 351 956 386 956 q 285 944 318 956 q 228 908 251 933 q 195 851 206 883 q 185 783 185 818 l 185 776 l 100 776 l 100 786 q 108 852 100 819 q 131 914 115 885 q 169 967 146 943 q 223 1006 193 990 q 285 1026 253 1021 q 351 1032 318 1032 q 419 1026 385 1032 q 483 1003 453 1019 q 536 962 513 988 q 574 906 560 936 q 596 842 589 876 q 603 775 603 808 q 594 699 603 736 q 565 628 585 661 q 517 570 546 596 q 451 531 488 544 q 525 488 492 515 q 581 425 558 461 q 615 348 604 389 q 625 264 625 307 q 617 192 625 228 q 593 123 610 156 q 551 63 576 90 q 492 19 525 36 q 424 -4 460 3 q 351 -11 388 -11 z "},"4":{"ha":694,"x_min":81,"x_max":603,"o":"m 422 0 l 422 278 l 81 278 l 81 354 l 417 1021 l 507 1021 l 171 354 l 422 354 l 422 626 l 507 626 l 507 354 l 603 354 l 603 278 l 507 278 l 507 0 l 422 0 z "},"5":{"ha":694,"x_min":89,"x_max":614,"o":"m 350 -11 q 283 -5 317 -11 q 218 17 249 1 q 163 56 188 32 q 122 110 139 79 q 98 174 106 140 q 89 240 90 207 l 174 240 q 186 172 174 206 q 223 113 199 138 q 281 76 247 88 q 350 65 315 65 q 408 76 379 65 q 459 106 438 86 q 494 153 481 126 q 516 209 508 181 q 526 267 524 238 q 529 326 529 297 q 526 386 529 357 q 516 444 524 415 q 495 499 508 472 q 461 547 482 526 q 412 577 440 567 q 354 588 383 588 q 295 581 325 588 q 241 558 265 575 q 202 515 217 542 q 186 458 188 488 l 101 458 l 101 1021 l 578 1021 l 578 944 l 186 944 l 186 618 q 266 654 222 644 q 354 664 310 664 q 433 653 394 664 q 504 617 472 642 q 558 558 536 593 q 592 485 579 524 q 609 407 604 447 q 614 326 614 367 q 609 246 614 286 q 592 167 604 206 q 557 94 579 129 q 502 35 535 60 q 430 0 469 11 q 350 -11 390 -11 z "},"6":{"ha":694,"x_min":81,"x_max":614,"o":"m 347 -11 q 270 -2 308 -11 q 199 28 232 7 q 143 80 167 49 q 105 147 119 111 q 85 222 90 183 q 81 300 81 261 q 94 430 81 365 q 130 556 107 494 q 182 677 153 618 q 240 794 211 736 l 356 1021 l 449 1021 l 315 760 q 261 651 288 706 q 213 539 235 596 q 247 571 228 557 q 287 594 265 585 q 332 607 308 603 q 379 611 356 611 q 451 601 415 611 q 516 567 488 590 q 564 513 544 544 q 594 445 583 481 q 610 373 606 410 q 614 300 614 336 q 609 222 614 261 q 590 147 604 183 q 551 80 575 111 q 495 28 528 49 q 424 -2 463 7 q 347 -11 386 -11 m 347 65 q 403 73 375 65 q 453 98 431 81 q 490 139 475 115 q 515 189 506 163 q 526 244 524 215 q 529 300 529 272 q 526 356 529 328 q 515 410 524 383 q 490 461 506 438 q 453 502 475 485 q 403 527 431 519 q 347 535 375 535 q 276 520 311 535 q 217 478 242 506 q 182 415 193 450 q 167 343 171 379 l 165 321 l 165 300 q 168 244 165 272 q 180 189 171 215 q 204 139 189 163 q 242 98 219 115 q 292 73 264 81 q 347 65 319 65 z "},"7":{"ha":694,"x_min":92,"x_max":603,"o":"m 210 0 l 515 944 l 92 944 l 92 1021 l 603 1021 l 603 944 l 299 0 l 210 0 z "},"8":{"ha":694,"x_min":81,"x_max":614,"o":"m 347 -11 q 281 -6 314 -11 q 216 12 247 -1 q 159 47 185 25 q 115 98 133 69 q 89 159 97 126 q 81 226 81 192 q 97 317 81 272 q 140 399 113 361 q 203 466 168 436 q 278 522 239 496 q 211 578 243 549 q 155 642 179 607 q 116 719 131 678 q 101 804 101 761 q 109 867 101 836 q 133 925 117 897 q 172 974 149 953 q 224 1009 196 996 q 284 1027 253 1022 q 347 1032 315 1032 q 410 1027 379 1032 q 470 1009 442 1022 q 522 974 499 996 q 562 925 546 953 q 585 867 578 897 q 593 804 593 836 q 578 719 593 761 q 540 642 564 678 q 483 578 515 607 q 417 522 451 549 q 491 466 456 496 q 554 399 526 436 q 598 317 582 361 q 614 226 614 272 q 606 159 614 192 q 579 98 597 126 q 535 47 561 69 q 478 12 510 25 q 414 -6 447 -1 q 347 -11 381 -11 m 347 571 q 406 615 378 592 q 458 667 435 639 q 494 731 481 696 q 508 803 508 767 q 497 865 508 835 q 463 916 486 894 q 410 947 440 938 q 347 956 379 956 q 285 947 315 956 q 231 916 254 938 q 197 865 208 894 q 186 803 186 835 q 200 731 186 767 q 237 667 214 696 q 288 615 260 639 q 347 571 317 592 m 347 65 q 416 74 382 65 q 476 106 450 83 q 516 160 503 128 q 529 228 529 193 q 513 305 529 267 q 471 374 497 343 q 413 428 444 404 q 347 475 381 453 q 282 428 314 453 q 224 374 250 404 q 181 305 197 343 q 165 228 165 267 q 178 160 165 193 q 218 106 192 128 q 278 74 244 83 q 347 65 313 65 z "},"9":{"ha":694,"x_min":81,"x_max":614,"o":"m 339 0 l 246 0 l 379 261 q 433 370 407 315 q 482 482 460 425 q 448 450 467 464 q 408 427 429 436 q 363 414 386 418 q 315 410 339 410 q 243 420 279 410 q 178 453 207 431 q 131 508 150 476 q 100 576 111 540 q 85 648 89 611 q 81 721 81 685 q 85 799 81 760 q 105 874 90 838 q 143 941 119 910 q 199 993 167 972 q 270 1023 232 1014 q 347 1032 308 1032 q 424 1023 386 1032 q 495 993 463 1014 q 551 941 528 972 q 590 874 575 910 q 609 799 604 838 q 614 721 614 760 q 601 591 614 656 q 565 465 588 526 q 513 344 542 403 q 454 226 483 285 l 339 0 m 347 486 q 418 501 383 486 q 477 543 453 515 q 513 606 501 571 q 528 678 524 642 l 529 700 l 529 721 q 526 777 529 749 q 515 832 524 806 q 490 882 506 858 q 453 923 475 906 q 403 948 431 940 q 347 956 375 956 q 292 948 319 956 q 242 923 264 940 q 204 882 219 906 q 180 832 189 858 q 168 777 171 806 q 165 721 165 749 q 168 665 165 693 q 180 610 171 638 q 204 560 189 583 q 242 519 219 536 q 292 494 264 501 q 347 486 319 486 z "},"\r":{"ha":0,"x_min":0,"x_max":0,"o":""}," ":{"ha":694,"x_min":0,"x_max":0,"o":""},"!":{"ha":694,"x_min":264,"x_max":431,"o":"m 389 361 l 306 361 l 306 1021 l 389 1021 l 389 361 m 347 -11 q 314 -6 331 -11 q 285 10 297 -1 q 269 39 274 22 q 264 72 264 56 q 269 106 264 90 q 285 134 274 122 q 314 151 297 146 q 347 157 331 157 q 381 151 364 157 q 409 134 397 146 q 426 106 421 122 q 431 72 431 90 q 426 39 431 56 q 409 10 421 22 q 381 -6 397 -1 q 347 -11 364 -11 z "},"\"":{"ha":694,"x_min":163,"x_max":532,"o":"m 168 614 q 164 842 165 728 q 163 1072 163 957 l 254 1072 q 253 842 254 957 q 249 614 251 728 l 168 614 m 446 614 q 442 842 443 728 q 440 1072 440 957 l 532 1072 q 531 842 532 957 q 526 614 529 728 l 446 614 z "},"#":{"ha":694,"x_min":54,"x_max":640,"o":"m 181 25 l 181 278 l 54 278 l 54 354 l 181 354 l 181 667 l 54 667 l 54 743 l 181 743 l 181 996 l 263 996 l 263 743 l 432 743 l 432 996 l 514 996 l 514 743 l 640 743 l 640 667 l 514 667 l 514 354 l 640 354 l 640 278 l 514 278 l 514 25 l 432 25 l 432 278 l 263 278 l 263 25 l 181 25 m 263 354 l 432 354 l 432 667 l 263 667 l 263 354 z "},"$":{"ha":694,"x_min":78,"x_max":614,"o":"m 307 -149 l 307 42 q 217 63 261 44 q 142 114 174 81 q 94 192 110 147 q 78 282 78 236 l 78 294 l 163 294 l 163 286 q 172 226 163 256 q 202 172 182 196 q 251 135 222 149 q 310 118 279 122 l 310 482 q 228 524 268 500 q 158 583 189 549 q 110 660 128 617 q 92 747 92 703 q 107 834 92 792 q 151 908 122 876 q 222 958 181 940 q 307 979 264 975 l 307 1171 l 388 1171 l 388 979 q 474 957 432 975 q 547 905 517 939 q 591 827 576 871 q 606 739 606 783 l 606 726 l 521 726 l 521 735 q 513 793 521 764 q 486 846 504 822 q 441 883 468 869 q 385 901 414 897 l 385 544 q 469 501 428 525 q 542 442 510 476 q 594 365 575 408 q 614 274 614 321 q 597 186 614 229 q 549 111 581 143 q 475 63 518 79 q 388 42 432 46 l 388 -149 l 307 -149 m 310 576 l 310 901 q 256 885 282 897 q 213 851 231 872 q 185 802 194 829 q 175 747 175 775 q 186 692 175 719 q 216 642 197 664 q 259 605 235 621 q 310 576 283 589 m 385 119 q 441 134 414 122 q 488 167 468 146 q 519 217 508 189 q 531 274 531 244 q 518 333 531 304 q 485 383 506 361 q 439 421 465 406 q 385 449 413 436 l 385 119 z "},"%":{"ha":694,"x_min":35,"x_max":660,"o":"m 196 500 q 135 508 165 500 q 81 535 104 515 q 46 585 57 556 q 35 646 35 615 l 35 886 q 46 947 35 917 q 81 997 57 976 q 135 1024 104 1017 q 196 1032 165 1032 q 258 1024 228 1032 q 313 997 289 1017 q 347 947 336 976 q 358 886 358 917 l 358 646 q 347 585 358 615 q 313 535 336 556 q 258 508 289 515 q 196 500 228 500 m 399 599 l 558 1021 l 649 1021 l 485 599 l 399 599 m 197 571 q 228 575 213 571 q 256 589 244 579 q 274 615 268 599 q 281 646 281 631 l 281 886 q 274 917 281 901 q 256 942 268 932 q 228 957 244 953 q 197 961 213 961 q 165 957 181 961 q 137 942 149 953 q 119 917 125 932 q 113 886 113 901 l 113 646 q 119 615 113 631 q 137 589 125 599 q 165 575 149 579 q 197 571 181 571 m 497 -11 q 436 -3 467 -11 q 382 24 406 4 q 347 74 358 44 q 336 136 336 104 l 336 375 q 347 435 336 406 q 382 485 358 465 q 436 513 406 506 q 497 521 467 521 q 560 513 529 521 q 614 485 590 506 q 649 435 638 465 q 660 375 660 406 l 660 136 q 649 74 660 104 q 614 24 638 44 q 560 -3 590 4 q 497 -11 529 -11 m 499 60 q 530 64 514 60 q 558 78 546 68 q 576 104 569 89 q 582 136 582 119 l 582 375 q 576 406 582 390 q 558 432 569 422 q 530 446 546 442 q 499 450 514 450 q 466 446 482 450 q 438 432 450 442 q 420 406 426 422 q 414 375 414 390 l 414 136 q 420 104 414 119 q 438 78 426 89 q 466 64 450 68 q 499 60 482 60 m 46 0 l 210 422 l 296 422 l 136 0 l 46 0 z "},"&":{"ha":694,"x_min":79,"x_max":665,"o":"m 321 -11 q 253 -3 286 -11 q 191 23 219 4 q 141 69 163 42 q 106 128 119 96 q 86 193 93 160 q 79 261 79 226 q 92 344 79 303 q 126 421 104 385 q 176 488 147 457 q 238 547 206 519 q 194 611 215 579 q 156 677 174 643 q 128 748 139 711 q 117 824 117 785 q 129 903 117 864 q 169 974 142 943 q 235 1018 196 1004 q 315 1032 275 1032 q 395 1018 356 1032 q 462 974 435 1004 q 501 903 489 943 q 514 822 514 864 q 500 738 514 779 q 462 659 486 696 q 406 592 438 622 q 342 532 375 561 q 356 510 349 521 q 369 488 363 499 l 513 253 l 576 421 l 663 421 l 582 210 q 573 189 578 200 q 564 167 568 178 l 665 0 l 571 0 l 518 88 l 515 93 q 485 55 501 72 q 449 25 469 38 q 388 -2 421 7 q 321 -11 354 -11 m 299 599 q 347 644 324 621 q 390 696 371 668 q 419 756 408 724 q 431 822 431 789 q 424 872 431 847 q 403 916 418 896 q 364 947 388 936 q 315 957 340 957 q 267 947 290 957 q 228 916 243 936 q 206 872 213 896 q 200 821 200 847 q 208 762 200 792 q 231 705 217 732 q 261 652 244 678 q 296 601 278 626 l 297 600 l 297 599 l 299 599 m 326 64 q 372 72 349 64 q 413 92 394 79 q 447 124 432 106 q 474 161 461 142 l 299 449 q 290 465 294 457 q 279 481 285 472 q 234 435 256 458 q 197 383 213 411 q 172 324 181 356 q 163 261 163 293 q 167 213 163 238 q 180 167 171 189 q 203 124 189 144 q 235 90 217 104 q 278 70 254 76 q 326 64 301 64 z "},"'":{"ha":694,"x_min":301,"x_max":393,"o":"m 307 614 q 303 842 304 728 q 301 1072 301 957 l 393 1072 q 392 842 393 957 q 388 614 390 728 l 307 614 z "},"(":{"ha":694,"x_min":165,"x_max":564,"o":"m 522 -224 q 410 -145 463 -190 q 317 -45 358 -100 q 247 72 276 10 q 199 201 217 135 q 173 335 181 267 q 165 472 165 404 q 173 609 165 540 q 199 744 181 678 q 247 872 217 810 q 317 990 276 935 q 410 1090 358 1044 q 522 1168 463 1135 l 564 1101 q 422 985 485 1056 q 321 832 360 915 q 266 656 282 749 q 250 472 250 564 q 266 288 250 381 q 321 113 282 196 q 422 -41 360 29 q 564 -157 485 -111 l 522 -224 z "},")":{"ha":694,"x_min":131,"x_max":529,"o":"m 172 -224 l 131 -157 q 272 -41 210 -111 q 374 113 335 29 q 428 288 413 196 q 444 472 444 381 q 428 656 444 564 q 374 832 413 749 q 272 985 335 915 q 131 1101 210 1056 l 172 1168 q 284 1090 232 1135 q 377 990 336 1044 q 448 872 418 935 q 496 744 478 810 q 522 609 514 678 q 529 472 529 540 q 522 335 529 404 q 496 201 514 267 q 448 72 478 135 q 377 -45 418 10 q 284 -145 336 -100 q 172 -224 232 -190 z "},"*":{"ha":694,"x_min":57,"x_max":638,"o":"m 210 583 l 142 628 l 293 825 l 57 896 l 83 968 l 313 888 l 306 1133 l 389 1133 l 382 888 l 611 968 l 638 896 l 401 825 l 553 628 l 485 583 l 347 783 l 210 583 z "},"+":{"ha":694,"x_min":92,"x_max":603,"o":"m 307 207 l 307 435 l 92 435 l 92 510 l 307 510 l 307 738 l 388 738 l 388 510 l 603 510 l 603 435 l 388 435 l 388 207 l 307 207 z "},",":{"ha":694,"x_min":238,"x_max":439,"o":"m 304 -299 l 238 -253 q 312 -138 279 -199 q 358 -11 344 -78 l 346 -11 q 310 -6 328 -11 q 279 13 292 0 q 261 44 267 26 q 256 81 256 63 q 261 118 256 100 q 280 149 267 136 q 311 168 293 163 q 347 174 329 174 q 385 167 367 174 q 417 147 404 161 q 435 114 431 133 q 439 76 439 94 q 429 -24 439 25 q 401 -122 419 -74 q 358 -213 383 -169 q 304 -299 333 -257 z "},"-":{"ha":694,"x_min":92,"x_max":603,"o":"m 92 433 l 92 511 l 603 511 l 603 433 l 92 433 z "},".":{"ha":694,"x_min":256,"x_max":439,"o":"m 347 -11 q 311 -6 329 -11 q 280 13 293 0 q 261 44 267 26 q 256 81 256 63 q 261 118 256 100 q 280 149 267 136 q 311 168 293 163 q 347 174 329 174 q 383 168 365 174 q 415 149 401 163 q 433 118 428 136 q 439 81 439 100 q 433 44 439 63 q 415 13 428 26 q 383 -6 401 0 q 347 -11 365 -11 z "},"/":{"ha":694,"x_min":86,"x_max":608,"o":"m 86 -199 l 521 1143 l 608 1143 l 174 -199 l 86 -199 z "},":":{"ha":694,"x_min":256,"x_max":439,"o":"m 347 -11 q 311 -6 329 -11 q 280 13 293 0 q 261 44 267 26 q 256 81 256 63 q 261 118 256 100 q 280 149 267 136 q 311 168 293 163 q 347 174 329 174 q 383 168 365 174 q 415 149 401 163 q 433 118 428 136 q 439 81 439 100 q 433 44 439 63 q 415 13 428 26 q 383 -6 401 0 q 347 -11 365 -11 m 347 549 q 311 554 329 549 q 280 573 293 560 q 261 604 267 586 q 256 642 256 622 q 261 678 256 660 q 280 709 267 696 q 311 728 293 722 q 347 733 329 733 q 383 728 365 733 q 415 709 401 722 q 433 678 428 696 q 439 642 439 660 q 433 604 439 622 q 415 573 428 586 q 383 554 401 560 q 347 549 365 549 z "},";":{"ha":694,"x_min":238,"x_max":439,"o":"m 304 -299 l 238 -253 q 312 -138 279 -199 q 358 -11 344 -78 l 346 -11 q 310 -6 328 -11 q 279 13 292 0 q 261 44 267 26 q 256 81 256 63 q 261 118 256 100 q 280 149 267 136 q 311 168 293 163 q 347 174 329 174 q 385 167 367 174 q 417 147 404 161 q 435 114 431 133 q 439 76 439 94 q 429 -24 439 25 q 401 -122 419 -74 q 358 -213 383 -169 q 304 -299 333 -257 m 347 549 q 311 554 329 549 q 280 573 293 560 q 261 604 267 586 q 256 642 256 622 q 261 678 256 660 q 280 709 267 696 q 311 728 293 722 q 347 733 329 733 q 383 728 365 733 q 415 709 401 722 q 433 678 428 696 q 439 642 439 660 q 433 604 439 622 q 415 573 428 586 q 383 554 401 560 q 347 549 365 549 z "},"<":{"ha":694,"x_min":92,"x_max":624,"o":"m 582 126 l 92 429 l 92 515 l 582 818 l 624 756 l 163 472 l 624 189 l 582 126 z "},"=":{"ha":694,"x_min":92,"x_max":603,"o":"m 92 558 l 92 632 l 603 632 l 603 558 l 92 558 m 92 313 l 92 386 l 603 386 l 603 313 l 92 313 z "},">":{"ha":694,"x_min":71,"x_max":603,"o":"m 113 126 l 71 189 l 532 472 l 71 756 l 113 818 l 603 515 l 603 429 l 113 126 z "},"?":{"ha":694,"x_min":89,"x_max":603,"o":"m 306 307 q 308 374 306 340 q 322 441 311 408 q 349 503 332 474 q 388 558 367 532 q 433 610 410 585 q 475 663 456 635 q 507 724 494 692 q 519 790 519 756 q 507 856 519 824 q 470 913 494 889 q 413 946 446 936 q 346 956 379 956 q 278 945 311 956 q 220 910 244 935 q 185 853 196 886 q 174 786 174 821 l 174 776 l 89 776 l 89 790 q 97 856 89 824 q 120 918 104 889 q 161 970 136 947 q 216 1007 186 993 q 279 1026 246 1021 q 346 1032 313 1032 q 413 1026 379 1032 q 476 1007 446 1021 q 531 970 506 993 q 572 918 556 947 q 595 856 588 889 q 603 790 603 824 q 595 722 603 756 q 573 658 588 689 q 539 600 558 628 q 497 546 519 572 q 453 494 475 519 q 415 438 431 468 q 394 374 399 408 q 389 307 389 340 l 306 307 m 347 -11 q 314 -6 331 -11 q 285 10 297 -1 q 269 39 274 22 q 264 72 264 56 q 269 106 264 90 q 285 134 274 122 q 314 151 297 146 q 347 157 331 157 q 381 151 364 157 q 409 134 397 146 q 426 106 421 122 q 431 72 431 90 q 426 39 431 56 q 409 10 421 22 q 381 -6 397 -1 q 347 -11 364 -11 z "},"@":{"ha":694,"x_min":92,"x_max":603,"o":"m 347 -106 q 276 -98 311 -106 q 209 -72 240 -90 q 154 -25 178 -53 q 117 36 131 3 q 97 105 103 69 q 92 176 92 140 l 92 768 q 97 840 92 804 q 117 908 103 875 q 154 969 131 942 q 209 1016 178 997 q 276 1042 240 1035 q 347 1050 311 1050 q 419 1042 383 1050 q 485 1016 454 1035 q 540 969 517 997 q 578 908 564 942 q 597 840 592 875 q 603 768 603 804 l 603 308 q 600 263 603 286 q 590 219 597 240 q 569 178 582 197 q 538 147 556 160 q 497 127 519 133 q 451 121 475 121 q 407 127 429 121 q 366 147 385 133 q 334 178 347 160 q 313 219 321 197 q 303 263 306 240 q 300 308 300 286 l 300 579 q 303 626 300 603 q 315 670 307 649 q 336 710 322 692 q 369 742 350 729 q 412 761 389 756 q 458 767 435 767 l 525 767 l 525 768 q 522 819 525 793 q 508 868 518 844 q 483 913 499 892 q 445 947 467 933 q 398 967 424 961 q 347 972 372 972 q 297 967 322 972 q 249 947 271 961 q 212 913 228 933 q 186 868 196 892 q 173 819 176 844 q 169 768 169 793 l 169 176 q 173 126 169 151 q 186 76 176 100 q 212 32 196 53 q 249 -3 228 11 q 297 -22 271 -17 q 347 -28 322 -28 l 564 -28 l 564 -106 l 347 -106 m 451 193 q 487 205 471 193 q 511 234 503 217 q 522 271 519 251 q 525 308 525 290 l 525 694 l 458 694 q 421 684 438 694 q 394 656 404 674 q 382 619 385 639 q 379 579 379 599 l 379 308 q 382 271 379 290 q 392 234 385 251 q 416 205 400 217 q 451 193 432 193 z "},"A":{"ha":694,"x_min":65,"x_max":629,"o":"m 65 0 l 299 1021 l 396 1021 l 629 0 l 542 0 l 479 285 l 215 285 l 153 0 l 65 0 m 463 361 l 392 681 q 369 785 381 733 q 347 890 358 838 q 325 785 336 838 q 303 681 314 733 l 232 361 l 463 361 z "},"B":{"ha":694,"x_min":92,"x_max":625,"o":"m 92 0 l 92 1021 l 322 1021 q 394 1015 358 1021 q 461 993 429 1008 q 519 952 493 978 q 560 895 544 926 q 583 828 576 864 q 589 757 589 793 q 583 688 589 722 q 559 622 576 653 q 515 569 542 592 q 456 532 488 546 q 528 494 494 518 q 584 437 561 471 q 616 363 607 403 q 625 282 625 322 q 617 204 625 243 q 590 131 610 165 q 541 71 571 97 q 476 28 511 44 q 401 6 440 13 q 322 0 363 0 l 92 0 m 176 568 l 322 568 q 372 572 347 568 q 419 588 397 576 q 458 619 440 600 q 486 660 475 638 q 501 706 497 682 q 506 756 506 731 q 501 806 506 781 q 486 853 497 831 q 458 894 475 875 q 419 924 440 913 q 372 940 397 935 q 322 944 347 944 l 176 944 l 176 568 m 176 76 l 322 76 q 380 81 351 76 q 434 98 408 86 q 481 129 460 110 q 517 174 503 149 q 535 227 531 199 q 540 283 540 256 q 535 341 540 313 q 517 394 531 369 q 481 439 503 419 q 434 470 460 458 q 380 486 408 482 q 322 490 351 490 l 176 490 l 176 76 z "},"C":{"ha":694,"x_min":81,"x_max":606,"o":"m 343 -11 q 271 -4 307 -11 q 203 21 235 3 q 147 67 171 39 q 107 128 122 94 q 86 198 92 161 q 81 271 81 235 l 81 750 q 86 823 81 786 q 107 893 92 860 q 147 954 122 926 q 203 1000 171 982 q 271 1025 235 1018 q 343 1032 307 1032 q 411 1026 378 1032 q 475 1006 444 1021 q 531 968 506 992 q 574 915 557 944 q 598 851 590 885 q 606 783 606 818 l 606 776 l 521 776 l 521 782 q 509 851 521 817 q 472 910 497 885 q 413 945 447 935 q 343 956 378 956 q 292 950 318 956 q 245 931 267 944 q 208 896 224 917 q 182 851 192 875 q 169 801 172 826 q 165 750 165 776 l 165 271 q 169 219 165 244 q 182 170 172 194 q 208 125 192 146 q 245 90 224 104 q 292 71 267 76 q 343 65 318 65 q 413 76 378 65 q 472 111 447 86 q 509 170 497 136 q 521 239 521 204 l 521 244 l 606 244 l 606 238 q 598 169 606 203 q 574 106 590 136 q 531 53 557 76 q 475 15 506 29 q 411 -6 444 0 q 343 -11 378 -11 z "},"D":{"ha":694,"x_min":92,"x_max":614,"o":"m 306 0 l 92 0 l 92 1021 l 306 1021 q 386 1014 346 1021 q 463 990 426 1007 q 531 944 500 972 q 580 881 561 917 q 606 804 599 844 q 614 724 614 764 l 614 299 q 606 217 614 257 q 580 140 599 176 q 531 76 561 104 q 463 31 500 49 q 386 7 426 14 q 306 0 346 0 m 176 76 l 304 76 q 365 82 335 76 q 422 100 394 88 q 470 134 449 113 q 506 182 492 156 q 524 238 519 208 q 529 299 529 268 l 529 724 q 524 783 529 753 q 506 839 519 813 q 470 887 492 865 q 422 921 449 908 q 365 939 394 933 q 304 944 335 944 l 176 944 l 176 76 z "},"E":{"ha":694,"x_min":103,"x_max":603,"o":"m 103 0 l 103 1021 l 603 1021 l 603 944 l 188 944 l 188 569 l 526 569 l 526 493 l 188 493 l 188 76 l 603 76 l 603 0 l 103 0 z "},"F":{"ha":694,"x_min":138,"x_max":603,"o":"m 138 0 l 138 1021 l 603 1021 l 603 944 l 222 944 l 222 569 l 526 569 l 526 493 l 222 493 l 222 0 l 138 0 z "},"G":{"ha":694,"x_min":81,"x_max":606,"o":"m 310 -11 q 242 -3 276 -11 q 181 26 208 6 q 133 74 153 46 q 101 135 113 103 q 85 202 89 168 q 81 271 81 236 l 81 750 q 86 823 81 786 q 107 893 92 860 q 147 954 122 926 q 203 1000 171 982 q 271 1025 235 1018 q 343 1032 307 1032 q 411 1026 378 1032 q 475 1006 444 1021 q 531 968 506 992 q 574 915 557 944 q 598 851 590 885 q 606 783 606 818 l 606 776 l 521 776 l 521 782 q 509 851 521 817 q 472 910 497 885 q 413 945 447 935 q 343 956 378 956 q 292 950 318 956 q 245 931 267 944 q 208 896 224 917 q 182 851 192 875 q 169 801 172 826 q 165 750 165 776 l 165 271 q 169 220 165 246 q 181 170 172 194 q 206 126 190 146 q 244 92 222 106 q 291 72 265 78 q 342 65 317 65 q 392 72 367 65 q 440 92 418 78 q 477 126 461 106 q 502 170 493 146 q 515 219 511 194 q 518 271 518 244 l 518 474 l 347 474 l 347 550 l 603 550 l 603 0 l 529 0 l 529 167 q 501 95 519 129 q 453 36 482 61 q 386 0 424 11 q 310 -11 349 -11 z "},"H":{"ha":694,"x_min":92,"x_max":603,"o":"m 92 0 l 92 1021 l 176 1021 l 176 568 l 518 568 l 518 1021 l 603 1021 l 603 0 l 518 0 l 518 490 l 176 490 l 176 0 l 92 0 z "},"I":{"ha":694,"x_min":104,"x_max":590,"o":"m 104 0 l 104 76 l 306 76 l 306 944 l 104 944 l 104 1021 l 590 1021 l 590 944 l 389 944 l 389 76 l 590 76 l 590 0 l 104 0 z "},"J":{"ha":694,"x_min":65,"x_max":574,"o":"m 319 -11 q 253 -6 286 -11 q 190 15 219 0 q 136 54 160 31 q 97 108 113 78 q 73 170 81 138 q 65 238 65 203 l 65 244 l 150 244 l 150 239 q 161 171 150 204 q 196 113 172 138 q 253 76 219 88 q 319 65 286 65 q 369 72 344 65 q 415 92 394 78 q 451 128 436 107 q 474 172 465 149 q 486 221 483 196 q 489 271 489 246 l 489 944 l 289 944 l 289 1021 l 574 1021 l 574 271 q 569 199 574 235 q 549 131 564 164 q 512 69 535 97 q 458 22 489 40 q 391 -3 426 4 q 319 -11 356 -11 z "},"K":{"ha":694,"x_min":114,"x_max":611,"o":"m 518 0 l 272 482 l 197 364 l 197 0 l 114 0 l 114 1021 l 197 1021 l 197 510 l 514 1021 l 611 1021 l 321 560 l 611 0 l 518 0 z "},"L":{"ha":694,"x_min":138,"x_max":611,"o":"m 138 0 l 138 1021 l 222 1021 l 222 76 l 611 76 l 611 0 l 138 0 z "},"M":{"ha":694,"x_min":79,"x_max":615,"o":"m 79 0 l 79 1021 l 190 1021 l 347 442 l 504 1021 l 615 1021 l 615 0 l 533 0 l 533 204 q 536 542 533 374 q 539 879 539 711 l 383 307 l 311 307 l 156 879 q 158 542 156 711 q 161 204 161 374 l 161 0 l 79 0 z "},"N":{"ha":694,"x_min":92,"x_max":603,"o":"m 92 0 l 92 1021 l 201 1021 l 526 131 q 522 371 525 250 q 518 613 518 492 l 518 1021 l 603 1021 l 603 0 l 493 0 l 168 890 q 173 650 169 771 q 176 408 176 529 l 176 0 l 92 0 z "},"O":{"ha":694,"x_min":81,"x_max":614,"o":"m 347 -11 q 274 -4 311 -11 q 206 21 238 3 q 148 67 174 39 q 107 128 122 94 q 86 198 92 161 q 81 271 81 235 l 81 750 q 86 823 81 786 q 107 893 92 860 q 148 954 122 926 q 206 1000 174 982 q 274 1025 238 1018 q 347 1032 311 1032 q 420 1025 383 1032 q 489 1000 457 1018 q 547 954 521 982 q 588 893 572 926 q 608 823 603 860 q 614 750 614 786 l 614 271 q 608 198 614 235 q 588 128 603 161 q 547 67 572 94 q 489 21 521 39 q 420 -4 457 3 q 347 -11 383 -11 m 347 65 q 399 71 374 65 q 447 90 425 76 q 486 124 469 104 q 513 169 503 144 q 526 219 522 193 q 529 271 529 244 l 529 750 q 526 802 529 776 q 513 852 522 828 q 486 897 503 876 q 447 931 469 917 q 399 950 425 944 q 347 956 374 956 q 295 950 321 956 q 247 931 269 944 q 208 897 225 917 q 182 852 192 876 q 169 802 172 828 q 165 750 165 776 l 165 271 q 169 219 165 244 q 182 169 172 193 q 208 124 192 144 q 247 90 225 104 q 295 71 269 76 q 347 65 321 65 z "},"P":{"ha":694,"x_min":115,"x_max":625,"o":"m 115 0 l 115 1021 l 357 1021 q 431 1013 394 1021 q 501 987 468 1006 q 558 939 533 968 q 599 875 583 910 q 619 803 614 840 q 625 728 625 765 q 619 653 625 690 q 599 581 614 615 q 558 518 583 547 q 501 470 533 489 q 431 444 468 451 q 357 436 394 436 l 199 436 l 199 0 l 115 0 m 199 513 l 357 513 q 410 519 383 513 q 459 540 436 525 q 498 576 482 554 q 524 622 514 597 q 537 674 533 647 q 540 728 540 701 q 537 782 540 756 q 524 833 533 808 q 498 881 514 858 q 459 917 482 903 q 410 938 436 932 q 357 944 383 944 l 199 944 l 199 513 z "},"Q":{"ha":694,"x_min":81,"x_max":614,"o":"m 553 -244 q 489 -239 521 -244 q 428 -219 457 -233 q 376 -183 400 -206 q 338 -133 353 -161 q 315 -73 322 -104 q 308 -10 308 -42 q 243 4 275 -7 q 183 35 211 15 q 135 81 156 54 q 103 140 115 108 q 85 204 90 171 q 81 271 81 238 l 81 750 q 86 823 81 786 q 107 893 92 860 q 148 954 122 926 q 206 1000 174 982 q 274 1025 238 1018 q 347 1032 311 1032 q 420 1025 383 1032 q 489 1000 457 1018 q 547 954 521 982 q 588 893 572 926 q 608 823 603 860 q 614 750 614 786 l 614 271 q 610 205 614 238 q 593 142 606 172 q 561 84 581 111 q 515 38 542 57 q 457 6 489 18 q 393 -8 425 -6 q 403 -72 393 -40 q 436 -125 414 -103 q 490 -157 458 -147 q 553 -167 521 -167 l 583 -167 l 583 -244 l 553 -244 m 347 65 q 399 71 374 65 q 447 90 425 76 q 486 124 469 104 q 513 169 503 144 q 526 219 522 193 q 529 271 529 244 l 529 750 q 526 802 529 776 q 513 852 522 828 q 486 897 503 876 q 447 931 469 917 q 399 950 425 944 q 347 956 374 956 q 295 950 321 956 q 247 931 269 944 q 208 897 225 917 q 182 852 192 876 q 169 802 172 828 q 165 750 165 776 l 165 271 q 169 219 165 244 q 182 169 172 193 q 208 124 192 144 q 247 90 225 104 q 295 71 269 76 q 347 65 321 65 z "},"R":{"ha":694,"x_min":92,"x_max":636,"o":"m 636 0 l 543 0 l 325 436 l 176 436 l 176 0 l 92 0 l 92 1021 l 357 1021 q 430 1013 393 1021 q 498 985 467 1004 q 553 936 529 965 q 590 873 576 907 q 609 802 604 839 q 614 728 614 765 q 610 664 614 696 q 597 601 607 632 q 569 544 586 571 q 529 495 553 517 q 476 459 506 474 q 415 439 447 444 l 636 0 m 176 513 l 357 513 q 408 519 383 513 q 455 542 433 526 q 491 578 476 557 q 515 625 506 600 q 526 676 524 650 q 529 728 529 703 q 526 781 529 754 q 515 831 524 807 q 491 878 506 856 q 455 915 476 900 q 408 938 433 931 q 357 944 383 944 l 176 944 l 176 513 z "},"S":{"ha":694,"x_min":78,"x_max":614,"o":"m 346 -11 q 277 -6 311 -11 q 212 14 243 0 q 155 51 181 28 q 112 103 129 74 q 86 167 94 133 q 78 235 78 200 l 78 244 l 163 244 l 163 238 q 175 167 163 201 q 214 110 188 133 q 275 76 240 86 q 346 65 310 65 q 417 76 382 65 q 478 113 453 88 q 517 173 504 138 q 531 244 531 208 q 516 315 531 281 q 477 377 501 350 q 422 424 453 404 q 357 460 390 443 q 291 493 324 476 q 228 531 258 510 q 173 579 199 553 q 129 638 147 606 q 101 705 111 669 q 92 778 92 740 q 99 845 92 811 q 122 909 107 879 q 162 964 138 939 q 217 1004 186 989 q 281 1026 247 1019 q 349 1032 315 1032 q 415 1026 382 1032 q 478 1006 449 1021 q 533 968 508 992 q 574 915 558 944 q 598 853 590 886 q 606 786 606 819 l 606 776 l 521 776 l 521 783 q 510 851 521 818 q 474 909 499 885 q 417 944 450 933 q 349 956 383 956 q 280 944 314 956 q 222 906 246 932 q 187 847 199 881 q 175 778 175 813 q 189 706 175 740 q 228 644 203 671 q 284 597 253 617 q 348 562 315 578 q 413 528 381 546 q 476 490 446 511 q 531 442 506 468 q 576 383 557 415 q 604 316 594 351 q 614 244 614 281 q 606 174 614 208 q 581 110 597 140 q 538 55 564 79 q 481 15 513 31 q 415 -6 450 0 q 346 -11 381 -11 z "},"T":{"ha":694,"x_min":83,"x_max":611,"o":"m 306 0 l 306 944 l 83 944 l 83 1021 l 611 1021 l 611 944 l 389 944 l 389 0 l 306 0 z "},"U":{"ha":694,"x_min":92,"x_max":603,"o":"m 347 -11 q 276 -3 311 -11 q 209 22 240 4 q 154 69 178 40 q 117 130 131 97 q 97 199 103 163 q 92 271 92 235 l 92 1021 l 176 1021 l 176 271 q 179 221 176 246 q 191 172 182 196 q 215 126 200 147 q 251 92 231 106 q 297 72 272 78 q 347 65 322 65 q 397 72 372 65 q 443 92 422 78 q 479 126 464 106 q 503 172 494 147 q 515 221 513 196 q 518 271 518 246 l 518 1021 l 603 1021 l 603 271 q 597 199 603 235 q 578 130 592 163 q 540 69 564 97 q 485 22 517 40 q 419 -3 454 4 q 347 -11 383 -11 z "},"V":{"ha":694,"x_min":65,"x_max":629,"o":"m 396 0 l 299 0 l 65 1021 l 153 1021 l 303 340 q 325 235 314 288 q 347 131 336 183 q 369 235 358 183 q 392 340 381 288 l 542 1021 l 629 1021 l 396 0 z "},"W":{"ha":694,"x_min":57,"x_max":638,"o":"m 175 0 l 57 1021 l 140 1021 l 219 174 l 308 735 l 386 735 l 475 174 l 554 1021 l 638 1021 l 519 0 l 440 0 l 347 596 l 254 0 l 175 0 z "},"X":{"ha":694,"x_min":75,"x_max":619,"o":"m 75 0 l 304 511 l 75 1021 l 167 1021 l 347 610 l 528 1021 l 619 1021 l 390 511 l 619 0 l 528 0 l 347 411 l 167 0 l 75 0 z "},"Y":{"ha":694,"x_min":71,"x_max":624,"o":"m 306 0 l 306 407 l 71 1021 l 161 1021 l 347 522 l 533 1021 l 624 1021 l 389 407 l 389 0 l 306 0 z "},"Z":{"ha":694,"x_min":92,"x_max":603,"o":"m 92 0 l 92 76 l 506 944 l 92 944 l 92 1021 l 603 1021 l 603 944 l 189 76 l 603 76 l 603 0 l 92 0 z "},"[":{"ha":694,"x_min":176,"x_max":551,"o":"m 176 -199 l 176 1143 l 551 1143 l 551 1067 l 261 1067 l 261 -122 l 551 -122 l 551 -199 l 176 -199 z "},"\\":{"ha":694,"x_min":86,"x_max":608,"o":"m 521 -199 l 86 1143 l 174 1143 l 608 -199 l 521 -199 z "},"]":{"ha":694,"x_min":143,"x_max":518,"o":"m 143 -199 l 143 -122 l 433 -122 l 433 1067 l 143 1067 l 143 1143 l 518 1143 l 518 -199 l 143 -199 z "},"^":{"ha":694,"x_min":65,"x_max":629,"o":"m 138 633 l 65 681 l 299 993 l 396 993 l 629 681 l 557 633 l 347 925 l 138 633 z "},"_":{"ha":694,"x_min":92,"x_max":603,"o":"m 92 -76 l 92 0 l 603 0 l 603 -76 l 92 -76 z "},"`":{"ha":694,"x_min":140,"x_max":429,"o":"m 368 761 l 140 1054 l 214 1104 l 429 803 l 368 761 z "},"a":{"ha":694,"x_min":81,"x_max":603,"o":"m 310 -11 q 222 0 265 -11 q 146 40 179 11 q 97 110 113 68 q 81 196 81 153 q 90 265 81 231 q 122 325 100 299 q 174 369 143 351 q 237 398 204 388 q 304 412 269 408 q 372 415 339 415 l 518 415 l 518 489 q 514 534 518 511 q 499 577 510 557 q 472 613 489 597 q 435 639 456 629 q 391 653 414 649 q 346 657 368 657 q 285 651 315 657 q 230 629 256 646 q 189 585 204 613 q 174 529 174 558 l 174 526 l 89 526 l 89 529 q 99 590 89 560 q 126 644 108 619 q 170 687 144 669 q 224 715 196 704 q 284 729 253 725 q 346 733 315 733 q 413 728 379 733 q 476 708 446 722 q 533 672 507 694 q 574 619 558 649 q 597 556 590 589 q 603 489 603 522 l 603 0 l 518 0 l 518 122 q 485 65 506 92 q 436 21 464 39 q 376 -4 408 3 q 310 -11 343 -11 m 342 65 q 390 70 365 65 q 435 86 414 75 q 474 115 457 97 q 501 156 490 133 q 515 202 511 178 q 518 250 518 226 l 518 339 l 372 339 q 326 337 350 339 q 281 329 303 335 q 237 314 258 324 q 199 288 215 304 q 174 250 182 272 q 165 204 165 228 q 180 143 165 172 q 220 96 194 114 q 278 72 246 78 q 342 65 310 65 z "},"b":{"ha":694,"x_min":92,"x_max":614,"o":"m 385 -11 q 316 -2 350 -11 q 255 27 282 7 q 208 76 228 47 q 176 136 188 104 l 176 0 l 92 0 l 92 1021 l 176 1021 l 176 586 q 208 647 188 618 q 255 695 228 675 q 316 724 282 715 q 385 733 350 733 q 453 724 419 733 q 515 694 488 715 q 563 644 543 674 q 594 582 583 615 q 610 514 606 549 q 614 444 614 479 l 614 278 q 610 208 614 243 q 594 140 606 174 q 563 78 583 107 q 515 28 543 49 q 453 -2 488 7 q 385 -11 419 -11 m 353 65 q 405 72 379 65 q 452 92 431 78 q 489 128 474 107 q 513 175 504 150 q 526 226 522 200 q 529 278 529 251 l 529 444 q 526 497 529 471 q 513 547 522 522 q 489 594 504 572 q 452 630 474 615 q 405 651 431 644 q 353 657 379 657 q 301 651 326 657 q 253 630 275 644 q 217 594 232 615 q 192 547 201 572 q 180 497 183 522 q 176 444 176 471 l 176 278 q 180 226 176 251 q 192 175 183 200 q 217 128 201 150 q 253 92 232 107 q 301 72 275 78 q 353 65 326 65 z "},"c":{"ha":694,"x_min":81,"x_max":606,"o":"m 343 -11 q 270 -3 307 -11 q 201 23 233 4 q 145 70 169 42 q 106 133 121 99 q 86 203 92 167 q 81 278 81 240 l 81 444 q 86 519 81 482 q 106 590 92 556 q 145 652 121 624 q 201 699 169 681 q 270 726 233 718 q 343 733 307 733 q 411 728 378 733 q 476 707 444 722 q 532 668 507 692 q 574 615 557 644 q 598 551 590 585 q 606 483 606 518 l 606 478 l 521 478 l 521 482 q 509 552 521 518 q 472 610 497 586 q 413 646 447 635 q 343 657 379 657 q 291 651 317 657 q 244 630 265 644 q 206 594 222 615 q 181 548 190 572 q 169 497 172 524 q 165 444 165 471 l 165 278 q 169 225 165 251 q 181 174 172 199 q 206 128 190 150 q 244 92 222 107 q 291 72 265 78 q 343 65 317 65 q 413 76 379 65 q 472 112 447 88 q 509 170 497 136 q 521 240 521 204 l 521 244 l 606 244 l 606 239 q 598 171 606 204 q 574 108 590 138 q 532 54 557 78 q 476 15 507 31 q 411 -6 444 0 q 343 -11 378 -11 z "},"d":{"ha":694,"x_min":81,"x_max":603,"o":"m 310 -11 q 241 -2 275 -11 q 179 28 207 7 q 131 78 151 49 q 100 140 111 107 q 85 208 89 174 q 81 278 81 243 l 81 444 q 85 514 81 479 q 100 582 89 549 q 131 644 111 615 q 179 694 151 674 q 241 724 207 715 q 310 733 275 733 q 378 724 344 733 q 440 695 413 715 q 487 647 467 675 q 518 586 507 618 l 518 1021 l 603 1021 l 603 0 l 518 0 l 518 136 q 487 76 507 104 q 440 27 467 47 q 378 -2 413 7 q 310 -11 344 -11 m 342 65 q 394 72 368 65 q 441 92 419 78 q 478 128 463 107 q 502 175 493 150 q 515 226 511 200 q 518 278 518 251 l 518 444 q 515 497 518 471 q 502 547 511 522 q 478 594 493 572 q 441 630 463 615 q 394 651 419 644 q 342 657 368 657 q 290 651 315 657 q 242 630 264 644 q 206 594 221 615 q 181 547 190 572 q 169 497 172 522 q 165 444 165 471 l 165 278 q 169 226 165 251 q 181 175 172 200 q 206 128 190 150 q 242 92 221 107 q 290 72 264 78 q 342 65 315 65 z "},"e":{"ha":694,"x_min":81,"x_max":614,"o":"m 347 -11 q 273 -3 310 -11 q 204 22 236 4 q 147 69 172 40 q 107 133 122 99 q 86 203 92 167 q 81 278 81 240 l 81 444 q 86 519 81 482 q 107 590 92 556 q 147 653 122 624 q 203 700 171 682 q 273 726 236 718 q 347 733 310 733 q 422 726 385 733 q 491 700 458 718 q 548 653 524 682 q 588 590 572 624 q 608 519 603 556 q 614 444 614 482 l 614 322 l 165 322 l 165 278 q 169 225 165 251 q 182 174 172 199 q 208 128 192 149 q 246 92 224 107 q 294 72 268 78 q 347 65 321 65 q 409 72 378 65 q 467 94 440 78 q 510 137 493 110 q 526 196 526 164 l 611 196 q 600 134 610 164 q 572 79 590 104 q 526 36 553 54 q 471 8 500 18 q 410 -7 442 -3 q 347 -11 379 -11 m 165 400 l 529 400 l 529 444 q 526 497 529 471 q 513 549 522 524 q 487 594 503 574 q 449 630 471 615 q 400 651 426 644 q 347 657 374 657 q 294 651 321 657 q 246 630 268 644 q 208 594 224 615 q 182 549 192 574 q 169 497 172 524 q 165 444 165 471 l 165 400 z "},"f":{"ha":694,"x_min":92,"x_max":626,"o":"m 250 0 l 250 575 l 92 575 l 92 651 l 250 651 l 250 804 q 253 860 250 832 q 267 914 257 888 q 293 963 276 940 q 333 1002 310 986 q 383 1025 356 1018 q 439 1032 410 1032 q 513 1019 476 1032 q 576 980 550 1007 q 614 915 601 953 q 626 840 626 878 l 626 838 l 542 838 l 542 839 q 535 883 542 861 q 516 922 529 904 q 481 947 503 939 q 439 956 460 956 q 404 949 421 956 q 375 931 388 943 q 354 904 363 919 q 342 872 346 889 q 335 838 338 856 q 333 804 333 821 l 333 651 l 578 651 l 578 575 l 333 575 l 333 0 l 250 0 z "},"g":{"ha":694,"x_min":81,"x_max":603,"o":"m 343 -310 q 284 -306 314 -310 q 226 -293 254 -303 q 173 -267 199 -283 q 129 -227 147 -250 q 101 -176 111 -204 q 89 -117 90 -147 l 174 -117 q 192 -171 175 -146 q 233 -210 208 -196 q 287 -228 258 -224 q 343 -233 315 -233 q 395 -227 369 -233 q 442 -206 421 -221 q 479 -169 464 -190 q 503 -123 494 -147 q 515 -73 513 -99 q 518 -21 518 -47 l 518 136 q 487 76 507 104 q 440 27 467 47 q 378 -2 413 7 q 310 -11 344 -11 q 241 -2 275 -11 q 179 28 207 7 q 131 78 151 49 q 100 140 111 107 q 85 208 89 174 q 81 278 81 243 l 81 444 q 85 514 81 479 q 100 582 89 549 q 131 644 111 615 q 179 694 151 674 q 241 724 207 715 q 310 733 275 733 q 378 724 344 733 q 440 695 413 715 q 487 647 467 675 q 518 586 507 618 l 518 722 l 603 722 l 603 -21 q 597 -94 603 -57 q 578 -165 592 -131 q 540 -228 564 -199 q 485 -276 517 -257 q 417 -302 453 -294 q 343 -310 381 -310 m 342 65 q 394 72 368 65 q 441 92 419 78 q 478 128 463 107 q 502 175 493 150 q 515 226 511 200 q 518 278 518 251 l 518 444 q 515 497 518 471 q 502 547 511 522 q 478 594 493 572 q 441 630 463 615 q 394 651 419 644 q 342 657 368 657 q 290 651 315 657 q 242 630 264 644 q 206 594 221 615 q 181 547 190 572 q 169 497 172 522 q 165 444 165 471 l 165 278 q 169 226 165 251 q 181 175 172 200 q 206 128 190 150 q 242 92 221 107 q 290 72 264 78 q 342 65 315 65 z "},"h":{"ha":694,"x_min":92,"x_max":603,"o":"m 92 0 l 92 1021 l 176 1021 l 176 588 q 206 647 188 619 q 252 695 225 675 q 313 724 279 715 q 379 733 346 733 q 447 724 414 733 q 508 694 481 715 q 554 643 535 672 q 584 581 574 614 q 599 513 594 547 q 603 444 603 479 l 603 0 l 518 0 l 518 444 q 515 497 518 471 q 503 547 513 522 q 480 592 494 571 q 444 628 465 614 q 399 650 424 643 q 347 657 374 657 q 296 650 321 657 q 250 628 271 643 q 215 592 229 614 q 191 547 200 571 q 179 497 182 522 q 176 444 176 471 l 176 0 l 92 0 z "},"i":{"ha":694,"x_min":104,"x_max":590,"o":"m 104 0 l 104 76 l 315 76 l 315 646 l 124 646 l 124 722 l 399 722 l 399 76 l 590 76 l 590 0 l 104 0 m 354 858 q 325 863 339 858 q 301 877 311 867 q 286 901 290 888 q 282 931 282 915 q 286 960 282 946 q 301 984 290 974 q 325 999 311 994 q 354 1003 339 1003 q 383 999 369 1003 q 408 984 397 994 q 422 960 418 974 q 426 931 426 946 q 422 901 426 915 q 408 877 418 888 q 383 863 397 867 q 354 858 369 858 z "},"j":{"ha":694,"x_min":40,"x_max":497,"o":"m 257 -310 q 172 -297 214 -310 q 100 -253 131 -283 q 55 -181 69 -222 q 40 -96 40 -139 l 124 -96 q 133 -149 125 -124 q 160 -195 142 -175 q 204 -224 178 -215 q 257 -233 231 -233 q 302 -225 281 -233 q 340 -200 324 -217 q 367 -162 357 -183 q 383 -119 376 -142 q 391 -74 389 -97 q 393 -28 393 -51 l 393 646 l 192 646 l 192 722 l 476 722 l 476 -28 q 473 -95 476 -61 q 458 -161 469 -129 q 429 -222 447 -193 q 384 -271 411 -250 q 324 -301 357 -292 q 257 -310 292 -310 m 424 858 q 394 863 408 858 q 370 877 381 867 q 356 901 360 888 q 351 931 351 915 q 356 960 351 946 q 370 984 360 974 q 394 999 381 994 q 424 1003 408 1003 q 453 999 439 1003 q 477 984 467 994 q 492 960 488 974 q 496 931 496 946 q 492 901 496 915 q 477 877 488 888 q 453 863 467 867 q 424 858 439 858 z "},"k":{"ha":694,"x_min":114,"x_max":606,"o":"m 507 0 l 279 332 l 197 236 l 197 0 l 114 0 l 114 1021 l 197 1021 l 197 354 l 500 722 l 606 722 l 331 394 l 606 0 l 507 0 z "},"l":{"ha":694,"x_min":104,"x_max":590,"o":"m 104 0 l 104 76 l 315 76 l 315 944 l 124 944 l 124 1021 l 399 1021 l 399 76 l 590 76 l 590 0 l 104 0 z "},"m":{"ha":694,"x_min":79,"x_max":615,"o":"m 79 0 l 79 722 l 160 722 l 160 661 q 176 690 167 676 q 200 715 186 704 q 231 729 214 725 q 264 733 247 733 q 304 726 285 733 q 338 706 324 719 q 363 673 353 692 q 378 635 372 654 q 393 673 383 654 q 417 706 403 692 q 451 726 432 719 q 492 733 471 733 q 532 726 513 733 q 566 706 551 719 q 590 674 581 692 q 606 635 600 656 q 613 595 611 615 q 615 554 615 575 l 615 0 l 535 0 l 535 554 q 532 590 535 572 q 520 624 529 608 q 495 650 511 640 q 461 660 479 660 q 427 650 443 660 q 402 624 411 640 q 390 590 393 608 q 388 554 388 572 l 388 0 l 307 0 l 307 554 q 304 590 307 572 q 292 624 301 608 q 267 650 283 640 q 233 660 251 660 q 199 650 215 660 q 174 624 183 640 q 163 590 165 608 q 160 554 160 572 l 160 0 l 79 0 z "},"n":{"ha":694,"x_min":92,"x_max":603,"o":"m 92 0 l 92 722 l 176 722 l 176 588 q 206 647 188 619 q 252 695 225 675 q 313 724 279 715 q 379 733 346 733 q 447 724 414 733 q 508 694 481 715 q 554 643 535 672 q 584 581 574 614 q 599 513 594 547 q 603 444 603 479 l 603 0 l 518 0 l 518 444 q 515 497 518 471 q 503 547 513 522 q 480 592 494 571 q 444 628 465 614 q 399 650 424 643 q 347 657 374 657 q 296 650 321 657 q 250 628 271 643 q 215 592 229 614 q 191 547 200 571 q 179 497 182 522 q 176 444 176 471 l 176 0 l 92 0 z "},"o":{"ha":694,"x_min":81,"x_max":614,"o":"m 347 -11 q 273 -3 310 -11 q 203 22 236 4 q 147 69 171 40 q 107 133 122 99 q 86 203 92 167 q 81 278 81 240 l 81 444 q 86 519 81 482 q 107 590 92 556 q 147 653 122 624 q 203 700 171 682 q 273 726 236 718 q 347 733 310 733 q 422 726 385 733 q 491 700 458 718 q 548 653 524 682 q 588 590 572 624 q 608 519 603 556 q 614 444 614 482 l 614 278 q 608 203 614 240 q 588 133 603 167 q 548 69 572 99 q 491 22 524 40 q 422 -3 458 4 q 347 -11 385 -11 m 347 65 q 400 72 374 65 q 449 92 426 78 q 487 128 471 107 q 513 174 503 149 q 526 225 522 199 q 529 278 529 251 l 529 444 q 526 497 529 471 q 513 549 522 524 q 487 594 503 574 q 449 630 471 615 q 400 651 426 644 q 347 657 374 657 q 294 651 321 657 q 246 630 268 644 q 208 594 224 615 q 182 549 192 574 q 169 497 172 524 q 165 444 165 471 l 165 278 q 169 225 165 251 q 182 174 172 199 q 208 128 192 149 q 246 92 224 107 q 294 72 268 78 q 347 65 321 65 z "},"p":{"ha":694,"x_min":92,"x_max":614,"o":"m 92 -299 l 92 722 l 176 722 l 176 586 q 208 647 188 618 q 255 695 228 675 q 316 724 282 715 q 385 733 350 733 q 453 724 419 733 q 515 694 488 715 q 563 644 543 674 q 594 582 583 615 q 610 514 606 549 q 614 444 614 479 l 614 278 q 610 208 614 243 q 594 140 606 174 q 563 78 583 107 q 515 28 543 49 q 453 -2 488 7 q 385 -11 419 -11 q 316 -2 350 -11 q 255 27 282 7 q 208 76 228 47 q 176 136 188 104 l 176 -299 l 92 -299 m 353 65 q 405 72 379 65 q 452 92 431 78 q 489 128 474 107 q 513 175 504 150 q 526 226 522 200 q 529 278 529 251 l 529 444 q 526 497 529 471 q 513 547 522 522 q 489 594 504 572 q 452 630 474 615 q 405 651 431 644 q 353 657 379 657 q 301 651 326 657 q 253 630 275 644 q 217 594 232 615 q 192 547 201 572 q 180 497 183 522 q 176 444 176 471 l 176 278 q 180 226 176 251 q 192 175 183 200 q 217 128 201 150 q 253 92 232 107 q 301 72 275 78 q 353 65 326 65 z "},"q":{"ha":694,"x_min":81,"x_max":603,"o":"m 518 -299 l 518 136 q 487 76 507 104 q 440 27 467 47 q 378 -2 413 7 q 310 -11 344 -11 q 241 -2 275 -11 q 179 28 207 7 q 131 78 151 49 q 100 140 111 107 q 85 208 89 174 q 81 278 81 243 l 81 444 q 85 514 81 479 q 100 582 89 549 q 131 644 111 615 q 179 694 151 674 q 241 724 207 715 q 310 733 275 733 q 378 724 344 733 q 440 695 413 715 q 487 647 467 675 q 518 586 507 618 l 518 722 l 603 722 l 603 -299 l 518 -299 m 342 65 q 394 72 368 65 q 441 92 419 78 q 478 128 463 107 q 502 175 493 150 q 515 226 511 200 q 518 278 518 251 l 518 444 q 515 497 518 471 q 502 547 511 522 q 478 594 493 572 q 441 630 463 615 q 394 651 419 644 q 342 657 368 657 q 290 651 315 657 q 242 630 264 644 q 206 594 221 615 q 181 547 190 572 q 169 497 172 522 q 165 444 165 471 l 165 278 q 169 226 165 251 q 181 175 172 200 q 206 128 190 150 q 242 92 221 107 q 290 72 264 78 q 342 65 315 65 z "},"r":{"ha":694,"x_min":175,"x_max":624,"o":"m 175 0 l 175 722 l 260 722 l 260 561 q 285 626 269 594 q 324 682 300 657 q 380 720 347 707 q 447 733 413 733 q 498 728 472 733 q 545 710 524 724 q 583 676 567 696 q 608 632 599 656 q 620 583 617 608 q 624 531 624 557 l 539 531 q 535 577 539 554 q 517 619 531 600 q 483 647 504 638 q 439 657 461 657 q 379 646 408 657 q 328 613 350 635 q 294 563 307 590 q 273 505 281 535 q 263 444 265 475 q 260 383 260 414 l 260 0 l 175 0 z "},"s":{"ha":694,"x_min":89,"x_max":603,"o":"m 346 -11 q 287 -8 317 -11 q 228 4 257 -4 q 174 28 200 13 q 129 66 149 43 q 99 117 110 89 q 89 175 89 144 l 89 182 l 174 182 l 174 178 q 191 124 174 149 q 234 88 208 100 q 288 70 260 75 q 346 65 317 65 q 404 70 375 65 q 459 89 433 75 q 502 128 485 103 q 519 182 519 153 q 501 236 519 211 q 456 276 482 261 q 403 300 431 292 q 347 317 375 308 q 290 337 318 326 q 236 360 263 347 q 185 391 210 374 q 142 431 161 408 q 113 483 124 454 q 103 540 103 511 q 112 598 103 569 q 139 650 121 626 q 181 690 157 674 q 233 717 206 707 q 290 730 261 726 q 349 733 319 733 q 406 730 378 733 q 463 717 435 726 q 515 693 490 708 q 557 655 539 678 q 585 604 575 632 q 594 547 594 576 l 594 540 l 510 540 l 510 544 q 494 597 510 572 q 455 634 479 621 q 403 652 431 647 q 349 657 376 657 q 293 652 321 657 q 241 633 265 647 q 201 594 217 618 q 186 540 186 569 q 204 486 186 511 q 248 447 222 461 q 302 423 274 432 q 359 405 331 414 q 415 385 388 396 q 469 362 443 375 q 520 331 496 349 q 563 291 544 314 q 592 240 582 268 q 603 182 603 211 q 592 123 603 151 q 563 71 582 94 q 519 31 544 47 q 465 6 493 15 q 406 -8 436 -4 q 346 -11 376 -11 z "},"t":{"ha":694,"x_min":97,"x_max":650,"o":"m 446 -11 q 385 -3 415 -11 q 331 22 356 4 q 288 67 306 40 q 260 122 271 93 q 247 181 250 150 q 243 243 243 213 l 243 646 l 97 646 l 97 722 l 243 722 l 243 1021 l 326 1021 l 326 722 l 583 722 l 583 646 l 326 646 l 326 243 q 328 202 326 222 q 336 163 331 182 q 351 126 342 144 q 374 94 360 108 q 407 72 388 79 q 446 65 426 65 q 484 72 465 65 q 517 92 503 79 q 540 123 531 106 q 556 158 550 140 q 563 196 561 176 q 565 235 565 215 l 565 244 l 650 244 l 650 231 q 645 172 650 201 q 629 114 640 142 q 601 62 618 86 q 559 21 583 38 q 506 -3 535 4 q 446 -11 476 -11 z "},"u":{"ha":694,"x_min":92,"x_max":603,"o":"m 315 -11 q 247 -2 281 -11 q 187 28 214 7 q 140 79 160 50 q 110 142 121 108 q 96 209 100 175 q 92 278 92 243 l 92 722 l 176 722 l 176 278 q 179 226 176 251 q 191 176 182 200 q 215 130 200 151 q 250 94 229 108 q 296 72 271 79 q 347 65 321 65 q 399 72 374 65 q 444 94 424 79 q 480 130 465 108 q 503 176 494 151 q 515 226 513 200 q 518 278 518 251 l 518 722 l 603 722 l 603 0 l 518 0 l 518 135 q 488 75 507 103 q 442 27 469 47 q 382 -2 415 7 q 315 -11 349 -11 z "},"v":{"ha":694,"x_min":65,"x_max":629,"o":"m 299 0 l 65 722 l 156 722 l 304 240 q 326 170 315 206 q 347 100 338 135 q 368 170 357 135 q 390 240 379 206 l 539 722 l 629 722 l 396 0 l 299 0 z "},"w":{"ha":694,"x_min":57,"x_max":638,"o":"m 175 0 l 57 722 l 140 722 l 219 124 l 308 519 l 386 519 l 475 124 l 554 722 l 638 722 l 519 0 l 440 0 l 347 421 l 254 0 l 175 0 z "},"x":{"ha":694,"x_min":79,"x_max":615,"o":"m 79 0 l 301 361 l 79 722 l 179 722 l 347 439 l 515 722 l 615 722 l 393 361 l 615 0 l 515 0 l 347 283 l 179 0 l 79 0 z "},"y":{"ha":694,"x_min":74,"x_max":621,"o":"m 222 -299 q 245 -224 233 -261 q 268 -150 257 -187 l 304 -32 l 74 722 l 161 722 l 347 88 l 533 722 l 621 722 l 310 -299 l 222 -299 z "},"z":{"ha":694,"x_min":92,"x_max":603,"o":"m 92 0 l 92 76 l 511 646 l 92 646 l 92 722 l 603 722 l 603 646 l 183 76 l 603 76 l 603 0 l 92 0 z "},"{":{"ha":694,"x_min":117,"x_max":551,"o":"m 551 -212 q 479 -208 515 -212 q 409 -190 443 -203 q 344 -157 375 -178 q 292 -107 314 -136 q 259 -42 269 -78 q 249 29 249 -7 q 256 92 249 61 q 277 151 264 122 q 302 208 290 179 q 314 269 314 238 q 308 317 314 293 q 289 362 303 342 q 255 397 275 382 q 213 419 235 411 q 166 431 190 428 q 118 433 142 433 l 117 451 l 117 511 q 166 514 142 511 q 213 525 190 517 q 255 548 235 533 q 289 583 275 563 q 308 627 303 603 q 314 675 314 651 q 302 736 314 707 q 277 794 290 765 q 256 853 264 822 q 249 915 249 883 q 259 987 249 951 q 292 1051 269 1022 q 344 1101 314 1081 q 409 1135 375 1122 q 479 1152 443 1147 q 551 1157 515 1157 l 551 1079 q 501 1076 526 1079 q 451 1065 475 1074 q 404 1044 426 1057 q 365 1010 382 1031 q 341 965 349 990 q 333 915 333 940 q 345 854 333 883 q 369 797 357 825 q 390 738 382 768 q 399 675 399 707 q 390 609 399 642 q 363 549 382 576 q 315 503 343 522 q 257 472 288 483 q 315 442 288 461 q 363 395 343 422 q 390 335 382 368 q 399 269 399 303 q 390 207 399 238 q 369 148 382 176 q 345 90 357 119 q 333 29 333 61 q 341 -21 333 4 q 365 -66 349 -46 q 404 -99 382 -86 q 451 -121 426 -112 q 501 -132 475 -129 q 551 -135 526 -135 l 551 -212 z "},"|":{"ha":694,"x_min":306,"x_max":389,"o":"m 306 -199 l 306 1143 l 389 1143 l 389 -199 l 306 -199 z "},"}":{"ha":694,"x_min":143,"x_max":578,"o":"m 143 -212 l 143 -135 q 194 -132 168 -135 q 244 -121 219 -129 q 290 -99 268 -112 q 329 -66 313 -86 q 353 -21 346 -46 q 361 29 361 4 q 349 90 361 61 q 325 148 338 119 q 304 207 313 176 q 296 269 296 238 q 304 335 296 303 q 332 395 313 368 q 379 442 351 422 q 438 472 407 461 q 379 503 407 483 q 332 549 351 522 q 304 609 313 576 q 296 675 296 642 q 304 738 296 707 q 325 797 313 768 q 349 854 338 825 q 361 915 361 883 q 353 965 361 940 q 329 1010 346 990 q 290 1044 313 1031 q 244 1065 268 1057 q 194 1076 219 1074 q 143 1079 168 1079 l 143 1157 q 215 1152 179 1157 q 285 1135 251 1147 q 350 1101 319 1122 q 403 1051 381 1081 q 435 987 425 1022 q 446 915 446 951 q 438 853 446 883 q 417 794 431 822 q 392 736 404 765 q 381 675 381 707 q 386 627 381 651 q 406 583 392 603 q 440 548 419 563 q 482 525 460 533 q 528 514 504 517 q 578 511 553 511 l 578 433 q 528 431 553 433 q 482 419 504 428 q 440 397 460 411 q 406 362 419 382 q 386 317 392 342 q 381 269 381 293 q 392 208 381 238 q 417 151 404 179 q 438 92 431 122 q 446 29 446 61 q 435 -42 446 -7 q 403 -107 425 -78 q 350 -157 381 -136 q 285 -190 319 -178 q 215 -208 251 -203 q 143 -212 179 -212 z "},"~":{"ha":694,"x_min":53,"x_max":642,"o":"m 447 256 q 427 258 438 256 q 408 265 417 261 q 392 276 400 269 q 378 289 385 282 q 365 303 371 296 q 353 319 358 311 q 342 335 347 326 q 331 353 336 344 q 322 370 326 361 q 313 388 318 379 q 303 407 308 397 q 292 426 297 417 q 281 443 286 435 q 272 458 276 451 q 258 476 268 465 l 247 486 l 240 481 q 227 467 232 474 q 217 453 222 461 q 208 440 211 444 q 203 431 206 436 q 197 421 200 426 q 192 409 194 415 q 185 397 189 403 q 179 383 182 390 q 173 369 176 376 q 166 353 169 361 q 159 337 163 346 q 152 319 156 328 q 145 300 149 310 q 138 280 142 290 q 131 260 133 269 l 53 283 q 66 320 60 303 q 78 353 72 338 q 91 383 85 369 q 103 410 97 397 q 115 435 108 424 q 126 458 121 447 q 138 478 132 468 q 152 500 143 488 q 171 523 161 513 q 192 542 181 533 q 218 556 204 550 q 247 561 232 561 q 267 558 257 561 q 286 551 278 556 q 302 541 294 547 q 317 528 310 535 q 330 513 324 521 q 342 497 336 506 q 353 481 347 489 q 363 464 358 472 q 372 447 368 456 q 381 428 376 438 q 392 410 386 419 q 403 390 397 400 q 413 373 408 381 q 422 358 418 365 q 438 342 426 351 l 447 331 l 456 338 q 467 349 463 343 q 478 363 472 356 q 486 376 483 371 q 492 385 489 381 q 497 396 494 390 q 503 407 500 401 q 509 419 506 413 q 515 433 513 426 q 522 448 518 440 q 528 463 525 456 q 535 480 532 471 q 542 498 539 489 q 549 517 546 507 q 557 536 553 526 q 564 557 561 546 l 642 532 q 628 497 635 514 q 616 463 622 479 q 603 433 610 447 q 592 406 597 419 q 580 381 586 393 q 568 359 574 369 q 557 339 563 349 q 542 317 551 329 q 524 294 533 304 q 502 275 514 283 q 476 261 490 267 q 447 256 463 256 z "},"":{"ha":694,"x_min":0,"x_max":0,"o":""},"":{"ha":694,"x_min":264,"x_max":431,"o":"m 347 565 q 314 571 331 565 q 285 588 297 576 q 269 616 274 600 q 264 650 264 632 q 269 683 264 667 q 285 712 274 700 q 314 728 297 724 q 347 733 331 733 q 381 728 364 733 q 409 712 397 724 q 426 683 421 700 q 431 650 431 667 q 426 616 431 632 q 409 588 421 600 q 381 571 397 576 q 347 565 364 565 m 306 -299 l 306 361 l 389 361 l 389 -299 l 306 -299 z "},"":{"ha":694,"x_min":81,"x_max":606,"o":"m 307 -149 l 307 -10 q 241 4 274 -7 q 181 36 208 15 q 134 85 154 57 q 101 144 114 113 q 85 210 89 176 q 81 278 81 244 l 81 444 q 85 512 81 478 q 101 578 89 546 q 134 638 114 610 q 181 686 154 665 q 241 718 208 707 q 307 732 274 729 l 307 872 l 388 872 l 388 732 q 475 707 433 726 q 547 653 517 688 q 591 574 576 618 q 606 483 606 529 l 606 478 l 521 478 l 521 482 q 513 542 521 513 q 486 594 504 571 q 442 633 468 618 q 385 654 415 649 l 385 68 q 442 89 415 74 q 486 128 468 104 q 513 181 504 151 q 521 240 521 210 l 521 244 l 606 244 l 606 239 q 591 149 606 193 q 547 69 576 104 q 475 15 517 35 q 388 -10 433 -4 l 388 -149 l 307 -149 m 310 68 l 310 654 q 244 630 275 650 q 196 580 214 610 q 172 515 178 550 q 165 444 165 479 l 165 278 q 172 208 165 243 q 196 142 178 172 q 244 92 214 113 q 310 68 275 72 z "},"":{"ha":694,"x_min":56,"x_max":603,"o":"m 92 0 l 92 76 q 140 137 119 103 q 170 208 160 171 q 183 283 181 244 q 186 360 186 321 l 186 475 l 56 475 l 56 546 l 186 546 l 186 818 q 190 873 186 846 q 206 925 194 900 q 235 972 217 950 q 277 1007 253 993 q 328 1026 301 1021 q 383 1032 356 1032 q 463 1018 424 1032 q 528 974 501 1004 q 568 905 556 944 q 581 825 581 865 l 581 814 l 496 814 l 496 821 q 490 870 496 846 q 469 915 483 894 q 431 945 454 935 q 383 956 408 956 q 335 945 358 956 q 296 914 311 935 q 276 868 281 893 q 271 818 271 843 l 271 546 l 419 546 l 419 475 l 271 475 l 271 360 q 269 285 271 322 q 259 212 267 249 q 237 141 251 175 q 201 76 222 107 l 603 76 l 603 0 l 92 0 z "},"":{"ha":694,"x_min":64,"x_max":631,"o":"m 575 192 l 496 271 q 425 240 464 249 q 347 231 386 231 q 269 240 308 231 q 199 271 231 249 l 119 192 l 64 242 l 146 324 q 115 394 124 356 q 106 472 106 433 q 115 550 106 511 q 146 621 124 589 l 64 703 l 119 753 l 199 674 q 269 705 231 696 q 347 714 308 714 q 425 705 386 714 q 496 674 464 696 l 575 753 l 631 703 l 549 621 q 580 550 571 589 q 589 472 589 511 q 580 394 589 433 q 549 324 571 356 l 631 242 l 575 192 m 347 303 q 413 313 381 303 q 469 349 446 324 q 501 406 492 374 q 510 472 510 439 q 501 538 510 506 q 469 596 492 571 q 413 631 446 621 q 347 642 381 642 q 281 631 314 642 q 226 596 249 621 q 194 538 203 571 q 185 472 185 506 q 194 406 185 439 q 226 349 203 374 q 281 313 249 324 q 347 303 314 303 z "},"":{"ha":694,"x_min":71,"x_max":624,"o":"m 306 0 l 306 169 l 92 169 l 92 239 l 306 239 l 306 374 l 92 374 l 92 443 l 292 443 l 71 1021 l 161 1021 l 347 522 l 533 1021 l 624 1021 l 403 443 l 603 443 l 603 374 l 389 374 l 389 239 l 603 239 l 603 169 l 389 169 l 389 0 l 306 0 z "},"":{"ha":694,"x_min":306,"x_max":389,"o":"m 306 536 l 306 1143 l 389 1143 l 389 536 l 306 536 m 306 -199 l 306 408 l 389 408 l 389 -199 l 306 -199 z "},"":{"ha":694,"x_min":89,"x_max":606,"o":"m 346 -210 q 279 -204 313 -210 q 215 -183 246 -199 q 160 -144 185 -168 q 120 -91 136 -121 q 97 -28 104 -61 q 89 39 89 4 l 89 46 l 174 46 l 174 40 q 185 -28 174 6 q 220 -86 196 -61 q 278 -122 244 -111 q 346 -133 311 -133 q 416 -121 382 -133 q 474 -81 450 -108 q 508 -19 497 -54 q 519 50 519 15 q 506 115 519 83 q 467 168 492 146 q 412 203 443 190 q 349 226 381 217 q 286 246 318 236 q 225 271 254 256 q 170 308 196 286 q 126 358 144 331 q 99 418 108 386 q 90 483 90 450 q 97 544 90 514 q 117 603 104 575 q 149 657 129 632 q 193 700 168 682 q 150 738 169 717 q 117 783 131 758 q 97 836 104 808 q 90 892 90 864 q 99 960 90 926 q 122 1026 107 994 q 161 1083 138 1057 q 215 1124 185 1108 q 280 1147 246 1140 q 349 1154 314 1154 q 415 1149 382 1154 q 479 1128 449 1143 q 534 1089 510 1113 q 574 1035 558 1065 q 598 973 590 1006 q 606 906 606 940 l 606 899 l 521 899 l 521 904 q 510 972 521 939 q 474 1031 499 1006 q 417 1067 450 1056 q 349 1078 383 1078 q 278 1065 313 1078 q 221 1026 244 1053 q 186 964 197 999 q 175 894 175 929 q 189 830 175 861 q 227 776 203 799 q 283 741 251 754 q 345 718 314 728 q 408 699 376 708 q 469 674 440 689 q 524 636 499 658 q 568 586 550 614 q 595 526 586 558 q 604 461 604 494 q 597 400 604 431 q 578 341 590 369 q 546 288 565 313 q 501 244 526 263 q 544 207 525 228 q 577 161 564 186 q 597 108 590 136 q 604 53 604 81 q 596 -16 604 18 q 572 -81 588 -50 q 533 -138 557 -112 q 479 -180 510 -164 q 415 -203 449 -196 q 346 -210 381 -210 m 413 288 q 458 314 438 296 q 492 356 479 332 q 513 406 506 379 q 519 458 519 432 q 510 513 519 486 q 481 561 500 540 q 439 597 463 582 q 389 623 415 613 q 335 641 363 633 q 282 657 308 649 q 236 631 257 649 q 202 589 215 613 q 182 539 189 565 q 175 486 175 513 q 185 431 175 458 q 213 383 194 404 q 256 347 232 363 q 306 322 279 332 q 359 303 332 311 q 413 288 386 296 z "},"":{"ha":694,"x_min":136,"x_max":558,"o":"m 486 858 q 457 863 471 858 q 433 877 443 867 q 418 901 422 888 q 414 931 414 915 q 418 960 414 946 q 433 984 422 974 q 457 999 443 994 q 486 1003 471 1003 q 515 999 501 1003 q 540 984 529 994 q 554 960 550 974 q 558 931 558 946 q 554 901 558 915 q 540 877 550 888 q 515 863 529 867 q 486 858 501 858 m 208 858 q 179 863 193 858 q 155 877 165 867 q 140 901 144 888 q 136 931 136 915 q 140 960 136 946 q 155 984 144 974 q 179 999 165 994 q 208 1003 193 1003 q 238 999 224 1003 q 262 984 251 994 q 276 960 272 974 q 281 931 281 946 q 276 901 281 915 q 262 877 272 888 q 238 863 251 867 q 208 858 224 858 z "},"":{"ha":694,"x_min":144,"x_max":542,"o":"m 313 440 q 249 448 281 440 q 194 476 218 456 q 157 526 169 496 q 144 588 144 556 q 153 639 144 614 q 178 683 161 664 q 217 715 194 701 q 265 735 240 728 q 315 744 290 742 q 367 747 340 747 l 464 747 l 464 794 q 455 836 464 815 q 428 869 446 857 q 390 887 411 882 q 346 892 368 892 q 308 889 326 892 q 272 878 289 886 q 242 853 254 869 q 229 818 229 838 l 151 818 l 151 819 q 169 884 151 854 q 216 932 188 914 q 278 956 244 950 q 346 963 313 963 q 395 959 371 963 q 442 947 419 956 q 485 922 465 938 q 517 887 504 907 q 536 842 531 867 q 542 794 542 818 l 542 449 l 464 449 l 464 532 q 439 492 454 511 q 403 462 424 474 q 359 445 382 450 q 313 440 336 440 m 343 511 q 390 517 367 511 q 430 540 413 524 q 456 578 447 556 q 464 624 464 600 l 464 676 l 367 676 q 336 675 351 676 q 306 671 321 674 q 276 663 290 668 q 249 648 261 657 q 231 624 238 639 q 224 594 224 610 q 235 557 224 575 q 264 528 246 539 q 302 515 282 518 q 343 511 322 511 m 153 271 l 153 335 l 542 335 l 542 271 l 153 271 z "},"":{"ha":694,"x_min":53,"x_max":625,"o":"m 554 124 q 510 218 535 172 q 455 306 485 264 q 388 386 425 349 q 308 454 351 424 l 308 490 q 388 558 351 521 q 455 638 425 596 q 510 726 485 681 q 554 821 535 772 l 625 794 q 584 706 607 749 q 535 622 561 663 q 477 542 508 581 q 408 472 446 504 q 477 402 446 440 q 535 323 508 364 q 584 239 561 282 q 625 150 607 196 l 554 124 m 299 124 q 254 218 279 172 q 199 306 229 264 q 133 386 169 349 q 53 454 96 424 l 53 490 q 133 558 96 521 q 199 638 169 596 q 254 726 229 681 q 299 821 279 772 l 369 794 q 328 706 351 749 q 279 622 306 663 q 222 542 253 581 q 153 472 190 504 q 222 402 190 440 q 279 323 253 364 q 328 239 306 282 q 369 150 351 196 l 299 124 z "},"":{"ha":694,"x_min":92,"x_max":603,"o":"m 521 192 l 521 435 l 92 435 l 92 510 l 603 510 l 603 192 l 521 192 z "},"":{"ha":694,"x_min":92,"x_max":603,"o":"m 92 433 l 92 511 l 603 511 l 603 433 l 92 433 z "},"":{"ha":694,"x_min":32,"x_max":663,"o":"m 226 714 l 226 1122 l 357 1122 q 404 1114 381 1122 q 444 1087 428 1106 q 466 1044 460 1068 q 472 996 472 1019 q 469 958 472 976 q 456 922 465 939 q 432 893 447 906 q 399 875 417 881 l 481 714 l 408 714 l 329 869 l 293 869 l 293 714 l 226 714 m 293 929 l 357 929 q 379 935 368 929 q 397 950 390 940 q 405 972 403 960 q 407 996 407 983 q 405 1019 407 1007 q 397 1041 403 1031 q 379 1057 390 1051 q 357 1063 368 1063 l 293 1063 l 293 929 m 347 603 q 263 610 306 603 q 183 637 221 618 q 115 686 146 656 q 66 754 85 717 q 40 834 47 792 q 32 918 32 876 q 40 1002 32 960 q 66 1082 47 1044 q 115 1150 85 1119 q 183 1199 146 1181 q 263 1226 221 1218 q 347 1233 306 1233 q 431 1226 389 1233 q 511 1199 474 1218 q 579 1150 549 1181 q 628 1082 610 1119 q 655 1002 647 1044 q 663 918 663 960 q 655 834 663 876 q 628 754 647 792 q 579 686 610 717 q 511 637 549 656 q 431 610 474 618 q 347 603 389 603 m 347 663 q 415 669 381 663 q 478 691 449 675 q 532 731 508 707 q 570 786 556 756 q 590 851 585 817 q 596 918 596 885 q 590 985 596 951 q 570 1050 585 1019 q 532 1105 556 1081 q 478 1145 508 1129 q 415 1167 449 1161 q 347 1174 381 1174 q 280 1167 314 1174 q 216 1145 246 1161 q 163 1105 186 1129 q 124 1050 139 1081 q 104 985 110 1019 q 99 918 99 951 q 104 851 99 885 q 124 786 110 817 q 163 731 139 756 q 216 691 186 707 q 280 669 246 675 q 347 663 314 663 z "},"":{"ha":694,"x_min":92,"x_max":603,"o":"m 92 894 l 92 967 l 603 967 l 603 894 l 92 894 z "},"":{"ha":694,"x_min":199,"x_max":496,"o":"m 347 765 q 289 774 318 765 q 238 804 260 783 q 208 854 217 825 q 199 914 199 883 q 208 972 199 943 q 238 1022 217 1001 q 289 1052 260 1043 q 347 1061 318 1061 q 406 1052 376 1061 q 456 1022 435 1043 q 487 972 478 1001 q 496 914 496 943 q 487 854 496 883 q 456 804 478 825 q 406 774 435 783 q 347 765 376 765 m 347 840 q 377 844 363 840 q 402 859 392 849 q 417 884 413 869 q 421 914 421 899 q 417 942 421 928 q 402 967 413 957 q 377 982 392 978 q 347 986 363 986 q 317 982 332 986 q 292 967 303 978 q 278 942 282 957 q 274 914 274 928 q 278 884 274 899 q 292 859 282 869 q 317 844 303 849 q 347 840 332 840 z "},"":{"ha":694,"x_min":92,"x_max":603,"o":"m 307 207 l 307 435 l 92 435 l 92 510 l 307 510 l 307 738 l 388 738 l 388 510 l 603 510 l 603 435 l 388 435 l 388 207 l 307 207 m 92 0 l 92 74 l 603 74 l 603 0 l 92 0 z "},"":{"ha":694,"x_min":151,"x_max":546,"o":"m 153 449 l 153 450 q 155 515 153 482 q 165 578 157 547 q 186 639 172 610 q 220 694 200 668 q 265 741 240 719 q 315 781 289 763 q 370 816 342 799 q 421 857 399 833 q 455 911 443 881 q 467 974 467 942 q 460 1023 467 999 q 438 1065 454 1047 q 397 1092 421 1083 q 349 1100 372 1100 q 304 1094 326 1100 q 265 1074 282 1089 q 238 1039 247 1060 q 229 996 229 1018 l 229 993 l 151 993 l 151 997 q 166 1070 151 1035 q 209 1129 181 1106 q 274 1162 238 1153 q 349 1171 311 1171 q 426 1159 388 1171 q 494 1119 465 1147 q 534 1053 522 1092 q 546 974 546 1014 q 535 903 546 939 q 502 840 524 868 q 452 789 481 811 q 394 746 424 767 q 337 703 365 725 q 287 652 308 681 q 252 590 265 624 q 235 519 239 556 l 542 519 l 542 449 l 153 449 z "},"":{"ha":694,"x_min":143,"x_max":557,"o":"m 350 440 q 274 449 311 440 q 206 482 236 458 q 160 542 176 506 q 143 617 143 578 l 143 619 l 221 619 l 221 617 q 232 572 221 594 q 262 536 243 550 q 303 517 281 522 q 350 513 326 513 q 400 520 375 513 q 443 545 425 528 q 470 588 461 563 q 479 638 479 613 q 466 699 479 669 q 428 749 453 729 q 372 776 404 769 q 308 782 340 782 l 308 853 q 367 858 338 853 q 418 883 396 864 q 452 928 440 901 q 464 985 464 956 q 456 1031 464 1008 q 433 1069 449 1053 q 394 1092 417 1085 q 350 1100 372 1100 q 307 1094 328 1100 q 269 1073 286 1088 q 245 1038 253 1058 q 238 996 238 1018 l 238 993 l 158 993 l 158 999 q 172 1069 158 1035 q 214 1128 186 1104 q 278 1161 242 1151 q 350 1171 314 1171 q 424 1160 388 1171 q 488 1123 461 1149 q 528 1061 515 1097 q 542 988 542 1025 q 535 935 542 961 q 515 888 529 910 q 482 847 501 865 q 439 818 463 829 q 488 789 465 807 q 526 746 511 771 q 549 693 542 721 q 557 636 557 665 q 542 557 557 596 q 499 491 528 518 q 430 452 469 464 q 350 440 390 440 z "},"":{"ha":694,"x_min":265,"x_max":554,"o":"m 326 761 l 265 803 l 481 1104 l 554 1054 l 326 761 z "},"":{"ha":694,"x_min":92,"x_max":603,"o":"m 92 -299 l 92 722 l 176 722 l 176 278 q 179 226 176 251 q 191 176 182 200 q 215 130 200 151 q 250 94 229 108 q 296 72 271 79 q 347 65 321 65 q 399 72 374 65 q 444 94 424 79 q 480 130 465 108 q 503 176 494 151 q 515 226 513 200 q 518 278 518 251 l 518 722 l 603 722 l 603 0 l 518 0 l 518 135 q 488 75 507 103 q 442 27 469 47 q 382 -2 415 7 q 315 -11 349 -11 q 239 1 276 -11 q 172 40 201 14 q 176 -54 175 -7 q 176 -150 176 -101 l 176 -299 l 92 -299 z "},"":{"ha":694,"x_min":92,"x_max":603,"o":"m 329 0 l 329 478 q 261 485 294 478 q 199 511 228 493 q 148 556 169 529 q 114 615 126 583 q 97 681 101 647 q 92 749 92 715 q 97 817 92 783 q 114 883 101 851 q 148 942 126 915 q 199 988 169 969 q 261 1013 228 1006 q 329 1021 294 1021 l 603 1021 l 603 0 l 531 0 l 531 954 l 401 954 l 401 0 l 329 0 z "},"":{"ha":694,"x_min":256,"x_max":439,"o":"m 347 381 q 311 386 329 381 q 280 405 293 392 q 261 436 267 418 q 256 472 256 454 q 261 508 256 490 q 280 540 267 526 q 311 558 293 553 q 347 564 329 564 q 383 558 365 564 q 415 540 401 553 q 433 508 428 526 q 439 472 439 490 q 433 436 439 454 q 415 405 428 418 q 383 386 401 392 q 347 381 365 381 z "},"":{"ha":694,"x_min":208,"x_max":497,"o":"m 208 -306 l 208 -233 l 347 -233 q 374 -231 361 -233 q 399 -222 388 -229 q 418 -203 411 -215 q 425 -176 425 -190 q 418 -150 425 -162 q 400 -131 411 -137 q 375 -121 389 -124 q 347 -118 361 -118 l 308 -118 l 308 0 l 386 0 l 386 -61 q 430 -74 408 -65 q 467 -99 451 -83 q 490 -137 483 -115 q 497 -182 497 -160 q 485 -235 497 -210 q 451 -278 474 -261 q 402 -300 429 -294 q 347 -306 375 -306 l 208 -306 z "},"":{"ha":694,"x_min":160,"x_max":415,"o":"m 338 449 l 338 1079 l 203 975 l 160 1026 l 338 1164 l 415 1164 l 415 449 l 338 449 z "},"":{"ha":694,"x_min":144,"x_max":550,"o":"m 347 440 q 293 445 319 440 q 242 463 267 450 q 199 494 218 475 q 167 538 179 514 q 149 589 154 563 q 144 643 144 615 l 144 760 q 149 814 144 788 q 167 865 154 840 q 199 908 179 889 q 242 940 218 928 q 293 958 267 953 q 347 963 319 963 q 401 958 375 963 q 452 940 428 953 q 496 908 476 928 q 528 865 515 889 q 545 814 540 840 q 550 760 550 788 l 550 643 q 545 589 550 615 q 528 538 540 563 q 496 494 515 514 q 452 463 476 475 q 401 445 428 450 q 347 440 375 440 m 347 513 q 397 521 372 513 q 440 548 422 529 q 464 592 457 567 q 471 643 471 618 l 471 760 q 464 810 471 785 q 440 855 457 836 q 397 882 422 874 q 347 890 372 890 q 297 882 322 890 q 255 855 272 874 q 231 810 238 836 q 224 760 224 785 l 224 643 q 231 592 224 618 q 255 548 238 567 q 297 521 272 529 q 347 513 322 513 m 153 271 l 153 335 l 542 335 l 542 271 l 153 271 z "},"":{"ha":694,"x_min":69,"x_max":642,"o":"m 396 124 l 325 150 q 366 239 343 196 q 415 323 389 282 q 473 402 442 364 q 542 472 504 440 q 473 542 504 504 q 415 622 442 581 q 366 706 389 663 q 325 794 343 749 l 396 821 q 440 726 415 772 q 495 638 465 681 q 562 558 525 596 q 642 490 599 521 l 642 454 q 562 386 599 424 q 495 306 525 349 q 440 218 465 264 q 396 124 415 172 m 140 124 l 69 150 q 110 239 88 196 q 160 323 133 282 q 217 402 186 364 q 286 472 249 440 q 217 542 249 504 q 160 622 186 581 q 110 706 133 663 q 69 794 88 749 l 140 821 q 185 726 160 772 q 240 638 210 681 q 306 558 269 596 q 386 490 343 521 l 386 454 q 306 386 343 424 q 240 306 269 349 q 185 218 210 264 q 140 124 160 172 z "},"":{"ha":694,"x_min":92,"x_max":603,"o":"m 92 444 l 92 500 l 603 500 l 603 444 l 92 444 m 335 617 l 335 1101 l 239 1024 l 200 1069 l 335 1178 l 407 1178 l 407 617 l 335 617 m 386 -233 l 386 -89 l 176 -89 l 176 -24 l 382 328 l 458 328 l 253 -24 l 386 -24 l 386 100 l 458 100 l 458 -24 l 514 -24 l 514 -89 l 458 -89 l 458 -233 l 386 -233 z "},"":{"ha":694,"x_min":92,"x_max":603,"o":"m 92 444 l 92 500 l 603 500 l 603 444 l 92 444 m 335 617 l 335 1101 l 239 1024 l 200 1069 l 335 1178 l 407 1178 l 407 617 l 335 617 m 182 -233 l 182 -232 q 183 -181 182 -207 q 191 -129 185 -154 q 209 -81 197 -104 q 238 -37 221 -57 q 274 -1 254 -17 q 316 29 294 15 q 361 55 338 43 q 403 84 385 67 q 433 126 422 101 q 444 176 444 150 q 439 214 444 196 q 419 245 433 232 q 387 264 406 258 q 349 269 368 269 q 315 266 332 269 q 283 253 297 263 q 261 228 269 243 q 253 196 253 213 l 253 194 l 181 194 l 181 197 q 194 256 181 228 q 233 303 208 285 q 288 328 257 321 q 349 335 318 335 q 414 326 382 335 q 470 294 446 317 q 506 240 494 272 q 517 176 517 208 q 508 121 517 149 q 483 71 500 93 q 442 31 465 49 q 396 -1 419 14 q 349 -31 372 -15 q 306 -68 325 -47 q 275 -115 288 -89 q 258 -168 263 -140 l 514 -168 l 514 -233 l 182 -233 z "},"":{"ha":694,"x_min":92,"x_max":603,"o":"m 92 444 l 92 500 l 603 500 l 603 444 l 92 444 m 350 611 q 287 617 318 611 q 230 642 256 624 q 190 688 204 660 q 175 749 175 717 l 175 751 l 246 751 l 246 750 q 256 716 246 732 q 281 691 265 700 q 315 679 297 682 q 350 676 332 676 q 389 681 369 676 q 424 698 408 686 q 447 728 439 710 q 454 767 454 747 q 442 815 454 792 q 410 851 431 838 q 364 869 389 865 q 315 872 339 872 l 315 939 q 360 942 338 939 q 402 958 383 946 q 431 992 421 971 q 442 1036 442 1014 q 435 1070 442 1053 q 416 1099 429 1088 q 385 1115 403 1110 q 350 1119 368 1119 q 317 1116 333 1119 q 288 1103 301 1113 q 266 1078 274 1093 q 258 1046 258 1063 l 258 1044 l 186 1044 l 186 1047 q 199 1106 186 1078 q 237 1152 213 1133 q 290 1178 261 1171 q 350 1185 319 1185 q 412 1176 381 1185 q 466 1148 443 1168 q 501 1098 489 1128 q 514 1038 514 1068 q 508 997 514 1017 q 492 960 503 978 q 466 929 482 943 q 432 907 450 915 q 470 883 453 897 q 501 851 488 869 q 520 810 514 832 q 526 765 526 788 q 513 701 526 732 q 474 649 499 669 q 416 619 449 628 q 350 611 383 611 m 386 -233 l 386 -89 l 176 -89 l 176 -24 l 382 328 l 458 328 l 253 -24 l 386 -24 l 386 100 l 458 100 l 458 -24 l 514 -24 l 514 -89 l 458 -89 l 458 -233 l 386 -233 z "},"":{"ha":694,"x_min":92,"x_max":606,"o":"m 347 565 q 314 571 331 565 q 285 588 297 576 q 269 616 274 600 q 264 650 264 632 q 269 683 264 667 q 285 712 274 700 q 314 728 297 724 q 347 733 331 733 q 381 728 364 733 q 409 712 397 724 q 426 683 421 700 q 431 650 431 667 q 426 616 431 632 q 409 588 421 600 q 381 571 397 576 q 347 565 364 565 m 349 -310 q 282 -304 315 -310 q 219 -285 249 -299 q 164 -248 189 -271 q 123 -196 139 -225 q 99 -134 107 -167 q 92 -68 92 -101 q 99 0 92 -33 q 122 64 107 33 q 156 122 136 94 q 197 176 175 150 q 242 228 219 203 q 280 284 264 254 q 301 348 296 314 q 306 415 306 382 l 389 415 q 386 348 389 382 q 373 281 383 314 q 345 219 363 249 q 306 164 328 190 q 262 113 285 138 q 219 59 239 88 q 188 -1 200 31 q 175 -68 175 -33 q 188 -134 175 -101 q 224 -190 200 -167 q 282 -224 249 -214 q 349 -233 315 -233 q 417 -223 383 -233 q 474 -188 450 -212 q 510 -131 499 -164 q 521 -64 521 -99 l 521 -54 l 606 -54 l 606 -68 q 598 -134 606 -101 q 574 -196 590 -167 q 533 -248 558 -225 q 478 -285 508 -271 q 415 -304 449 -299 q 349 -310 382 -310 z "},"":{"ha":694,"x_min":65,"x_max":629,"o":"m 65 0 l 299 1021 l 396 1021 l 629 0 l 542 0 l 479 285 l 215 285 l 153 0 l 65 0 m 463 361 l 392 681 q 369 785 381 733 q 347 890 358 838 q 325 785 336 838 q 303 681 314 733 l 232 361 l 463 361 m 360 1111 l 192 1301 l 260 1351 l 414 1153 l 360 1111 z "},"":{"ha":694,"x_min":65,"x_max":629,"o":"m 65 0 l 299 1021 l 396 1021 l 629 0 l 542 0 l 479 285 l 215 285 l 153 0 l 65 0 m 463 361 l 392 681 q 369 785 381 733 q 347 890 358 838 q 325 785 336 838 q 303 681 314 733 l 232 361 l 463 361 m 335 1111 l 281 1153 l 435 1351 l 503 1301 l 335 1111 z "},"":{"ha":694,"x_min":65,"x_max":629,"o":"m 65 0 l 299 1021 l 396 1021 l 629 0 l 542 0 l 479 285 l 215 285 l 153 0 l 65 0 m 463 361 l 392 681 q 369 785 381 733 q 347 890 358 838 q 325 785 336 838 q 303 681 314 733 l 232 361 l 463 361 m 217 1119 l 160 1158 l 294 1349 l 400 1349 l 535 1158 l 478 1119 l 347 1283 l 217 1119 z "},"":{"ha":694,"x_min":65,"x_max":629,"o":"m 65 0 l 299 1021 l 396 1021 l 629 0 l 542 0 l 479 285 l 215 285 l 153 0 l 65 0 m 463 361 l 392 681 q 369 785 381 733 q 347 890 358 838 q 325 785 336 838 q 303 681 314 733 l 232 361 l 463 361 m 429 1129 q 414 1131 421 1129 q 401 1134 407 1132 q 388 1140 394 1136 q 375 1147 381 1143 q 365 1155 369 1150 q 355 1165 360 1160 q 345 1176 350 1171 q 336 1188 340 1182 q 328 1199 332 1193 q 319 1210 324 1204 q 311 1222 315 1215 q 302 1234 307 1228 q 293 1247 297 1240 q 285 1257 289 1253 q 275 1267 282 1261 q 267 1274 268 1274 q 258 1270 261 1274 q 251 1263 256 1267 q 243 1255 247 1260 q 237 1247 239 1250 q 233 1242 235 1244 q 228 1235 231 1239 q 224 1228 226 1232 q 219 1220 222 1224 q 214 1212 217 1217 q 209 1203 211 1207 q 204 1193 207 1199 q 199 1183 201 1188 q 193 1172 196 1178 q 187 1159 190 1165 q 181 1147 183 1153 q 175 1133 178 1140 l 103 1163 q 125 1210 114 1189 q 147 1249 136 1231 q 167 1281 157 1267 q 192 1310 176 1294 q 226 1335 207 1325 q 265 1346 244 1346 q 281 1344 274 1346 q 294 1341 288 1343 q 307 1335 300 1339 q 319 1328 314 1332 q 330 1319 325 1324 q 340 1310 335 1315 q 349 1299 344 1304 q 358 1288 354 1293 q 367 1276 363 1282 q 375 1265 371 1271 q 383 1253 379 1260 q 392 1240 388 1246 q 401 1228 397 1233 q 409 1217 406 1222 q 419 1206 413 1213 q 428 1200 426 1200 q 436 1203 433 1200 q 443 1211 439 1207 q 451 1220 447 1215 q 458 1228 456 1225 q 462 1233 460 1231 q 466 1240 464 1236 q 470 1247 468 1243 q 475 1254 472 1250 q 481 1263 478 1258 q 485 1272 483 1267 q 490 1281 488 1276 q 496 1292 493 1286 q 501 1303 499 1297 q 508 1315 504 1308 q 514 1328 511 1321 q 519 1342 517 1335 l 592 1311 q 569 1265 581 1286 q 548 1226 558 1243 q 528 1194 538 1208 q 503 1165 518 1181 q 469 1139 488 1149 q 429 1129 450 1129 z "},"":{"ha":694,"x_min":65,"x_max":629,"o":"m 65 0 l 299 1021 l 396 1021 l 629 0 l 542 0 l 479 285 l 215 285 l 153 0 l 65 0 m 463 361 l 392 681 q 369 785 381 733 q 347 890 358 838 q 325 785 336 838 q 303 681 314 733 l 232 361 l 463 361 m 486 1157 q 457 1161 471 1157 q 433 1176 443 1165 q 418 1200 422 1186 q 414 1229 414 1214 q 418 1258 414 1244 q 433 1283 422 1272 q 457 1297 443 1293 q 486 1301 471 1301 q 515 1297 501 1301 q 540 1283 529 1293 q 554 1258 550 1272 q 558 1229 558 1244 q 554 1200 558 1214 q 540 1176 550 1186 q 515 1161 529 1165 q 486 1157 501 1157 m 208 1157 q 179 1161 193 1157 q 155 1176 165 1165 q 140 1200 144 1186 q 136 1229 136 1214 q 140 1258 136 1244 q 155 1283 144 1272 q 179 1297 165 1293 q 208 1301 193 1301 q 238 1297 224 1301 q 262 1283 251 1293 q 276 1258 272 1272 q 281 1229 281 1244 q 276 1200 281 1214 q 262 1176 272 1186 q 238 1161 251 1165 q 208 1157 224 1157 z "},"":{"ha":694,"x_min":65,"x_max":629,"o":"m 65 0 l 299 1021 l 396 1021 l 629 0 l 542 0 l 479 285 l 215 285 l 153 0 l 65 0 m 463 361 l 392 681 q 369 785 381 733 q 347 890 358 838 q 325 785 336 838 q 303 681 314 733 l 232 361 l 463 361 m 347 1108 q 299 1116 324 1108 q 258 1140 275 1124 q 234 1181 242 1157 q 226 1229 226 1206 q 234 1277 226 1253 q 258 1318 242 1301 q 299 1342 275 1335 q 347 1350 324 1350 q 395 1342 371 1350 q 436 1318 419 1335 q 460 1277 453 1301 q 468 1229 468 1253 q 460 1181 468 1206 q 436 1140 453 1157 q 395 1116 419 1124 q 347 1108 371 1108 m 347 1169 q 372 1173 360 1169 q 392 1185 383 1176 q 403 1205 400 1193 q 407 1229 407 1217 q 403 1253 407 1242 q 392 1274 400 1265 q 372 1285 383 1282 q 347 1289 360 1289 q 323 1285 335 1289 q 303 1274 311 1282 q 291 1253 294 1265 q 288 1229 288 1242 q 291 1205 288 1217 q 303 1185 294 1193 q 323 1173 311 1176 q 347 1169 335 1169 z "},"":{"ha":694,"x_min":57,"x_max":615,"o":"m 57 0 l 286 1021 l 615 1021 l 615 944 l 408 944 l 408 569 l 597 569 l 597 493 l 408 493 l 408 76 l 615 76 l 615 0 l 326 0 l 326 288 l 201 288 l 139 0 l 57 0 m 217 361 l 326 361 l 326 869 q 307 775 317 822 q 286 681 297 728 l 217 361 z "},"":{"ha":694,"x_min":81,"x_max":606,"o":"m 343 -11 q 271 -4 307 -11 q 203 21 235 3 q 147 67 171 39 q 107 128 122 94 q 86 198 92 161 q 81 271 81 235 l 81 750 q 86 823 81 786 q 107 893 92 860 q 147 954 122 926 q 203 1000 171 982 q 271 1025 235 1018 q 343 1032 307 1032 q 411 1026 378 1032 q 475 1006 444 1021 q 531 968 506 992 q 574 915 557 944 q 598 851 590 885 q 606 783 606 818 l 606 776 l 521 776 l 521 782 q 509 851 521 817 q 472 910 497 885 q 413 945 447 935 q 343 956 378 956 q 292 950 318 956 q 245 931 267 944 q 208 896 224 917 q 182 851 192 875 q 169 801 172 826 q 165 750 165 776 l 165 271 q 169 219 165 244 q 182 170 172 194 q 208 125 192 146 q 245 90 224 104 q 292 71 267 76 q 343 65 318 65 q 413 76 378 65 q 472 111 447 86 q 509 170 497 136 q 521 239 521 204 l 521 244 l 606 244 l 606 238 q 598 169 606 203 q 574 106 590 136 q 531 53 557 76 q 475 15 506 29 q 411 -6 444 0 q 343 -11 378 -11 m 208 -306 l 208 -233 l 347 -233 q 374 -231 361 -233 q 399 -222 388 -229 q 418 -203 411 -215 q 425 -176 425 -190 q 418 -150 425 -162 q 400 -131 411 -137 q 375 -121 389 -124 q 347 -118 361 -118 l 308 -118 l 308 65 l 386 65 l 386 -61 q 430 -74 408 -65 q 467 -99 451 -83 q 490 -137 483 -115 q 497 -182 497 -160 q 485 -235 497 -210 q 451 -278 474 -261 q 402 -300 429 -294 q 347 -306 375 -306 l 208 -306 z "},"":{"ha":694,"x_min":103,"x_max":603,"o":"m 103 0 l 103 1021 l 603 1021 l 603 944 l 188 944 l 188 569 l 526 569 l 526 493 l 188 493 l 188 76 l 603 76 l 603 0 l 103 0 m 360 1111 l 192 1301 l 260 1351 l 414 1153 l 360 1111 z "},"":{"ha":694,"x_min":103,"x_max":603,"o":"m 103 0 l 103 1021 l 603 1021 l 603 944 l 188 944 l 188 569 l 526 569 l 526 493 l 188 493 l 188 76 l 603 76 l 603 0 l 103 0 m 335 1111 l 281 1153 l 435 1351 l 503 1301 l 335 1111 z "},"":{"ha":694,"x_min":103,"x_max":603,"o":"m 103 0 l 103 1021 l 603 1021 l 603 944 l 188 944 l 188 569 l 526 569 l 526 493 l 188 493 l 188 76 l 603 76 l 603 0 l 103 0 m 217 1119 l 160 1158 l 294 1349 l 400 1349 l 535 1158 l 478 1119 l 347 1283 l 217 1119 z "},"":{"ha":694,"x_min":103,"x_max":603,"o":"m 103 0 l 103 1021 l 603 1021 l 603 944 l 188 944 l 188 569 l 526 569 l 526 493 l 188 493 l 188 76 l 603 76 l 603 0 l 103 0 m 486 1157 q 457 1161 471 1157 q 433 1176 443 1165 q 418 1200 422 1186 q 414 1229 414 1214 q 418 1258 414 1244 q 433 1283 422 1272 q 457 1297 443 1293 q 486 1301 471 1301 q 515 1297 501 1301 q 540 1283 529 1293 q 554 1258 550 1272 q 558 1229 558 1244 q 554 1200 558 1214 q 540 1176 550 1186 q 515 1161 529 1165 q 486 1157 501 1157 m 208 1157 q 179 1161 193 1157 q 155 1176 165 1165 q 140 1200 144 1186 q 136 1229 136 1214 q 140 1258 136 1244 q 155 1283 144 1272 q 179 1297 165 1293 q 208 1301 193 1301 q 238 1297 224 1301 q 262 1283 251 1293 q 276 1258 272 1272 q 281 1229 281 1244 q 276 1200 281 1214 q 262 1176 272 1186 q 238 1161 251 1165 q 208 1157 224 1157 z "},"":{"ha":694,"x_min":104,"x_max":590,"o":"m 104 0 l 104 76 l 306 76 l 306 944 l 104 944 l 104 1021 l 590 1021 l 590 944 l 389 944 l 389 76 l 590 76 l 590 0 l 104 0 m 360 1111 l 192 1301 l 260 1351 l 414 1153 l 360 1111 z "},"":{"ha":694,"x_min":104,"x_max":590,"o":"m 104 0 l 104 76 l 306 76 l 306 944 l 104 944 l 104 1021 l 590 1021 l 590 944 l 389 944 l 389 76 l 590 76 l 590 0 l 104 0 m 335 1111 l 281 1153 l 435 1351 l 503 1301 l 335 1111 z "},"":{"ha":694,"x_min":104,"x_max":590,"o":"m 104 0 l 104 76 l 306 76 l 306 944 l 104 944 l 104 1021 l 590 1021 l 590 944 l 389 944 l 389 76 l 590 76 l 590 0 l 104 0 m 217 1119 l 160 1158 l 294 1349 l 400 1349 l 535 1158 l 478 1119 l 347 1283 l 217 1119 z "},"":{"ha":694,"x_min":104,"x_max":590,"o":"m 104 0 l 104 76 l 306 76 l 306 944 l 104 944 l 104 1021 l 590 1021 l 590 944 l 389 944 l 389 76 l 590 76 l 590 0 l 104 0 m 486 1157 q 457 1161 471 1157 q 433 1176 443 1165 q 418 1200 422 1186 q 414 1229 414 1214 q 418 1258 414 1244 q 433 1283 422 1272 q 457 1297 443 1293 q 486 1301 471 1301 q 515 1297 501 1301 q 540 1283 529 1293 q 554 1258 550 1272 q 558 1229 558 1244 q 554 1200 558 1214 q 540 1176 550 1186 q 515 1161 529 1165 q 486 1157 501 1157 m 208 1157 q 179 1161 193 1157 q 155 1176 165 1165 q 140 1200 144 1186 q 136 1229 136 1214 q 140 1258 136 1244 q 155 1283 144 1272 q 179 1297 165 1293 q 208 1301 193 1301 q 238 1297 224 1301 q 262 1283 251 1293 q 276 1258 272 1272 q 281 1229 281 1244 q 276 1200 281 1214 q 262 1176 272 1186 q 238 1161 251 1165 q 208 1157 224 1157 z "},"":{"ha":694,"x_min":21,"x_max":614,"o":"m 306 0 l 92 0 l 92 475 l 21 475 l 21 546 l 92 546 l 92 1021 l 306 1021 q 386 1014 346 1021 q 463 990 426 1007 q 531 944 500 972 q 580 881 561 917 q 606 804 599 844 q 614 724 614 764 l 614 299 q 606 217 614 257 q 580 140 599 176 q 531 76 561 104 q 463 31 500 49 q 386 7 426 14 q 306 0 346 0 m 176 76 l 304 76 q 365 82 335 76 q 422 100 394 88 q 470 134 449 113 q 506 182 492 156 q 524 238 519 208 q 529 299 529 268 l 529 724 q 524 783 529 753 q 506 839 519 813 q 470 887 492 865 q 422 921 449 908 q 365 939 394 933 q 304 944 335 944 l 176 944 l 176 546 l 328 546 l 328 475 l 176 475 l 176 76 z "},"":{"ha":694,"x_min":92,"x_max":603,"o":"m 92 0 l 92 1021 l 201 1021 l 526 131 q 522 371 525 250 q 518 613 518 492 l 518 1021 l 603 1021 l 603 0 l 493 0 l 168 890 q 173 650 169 771 q 176 408 176 529 l 176 0 l 92 0 m 429 1129 q 414 1131 421 1129 q 401 1134 407 1132 q 388 1140 394 1136 q 375 1147 381 1143 q 365 1155 369 1150 q 355 1165 360 1160 q 345 1176 350 1171 q 336 1188 340 1182 q 328 1199 332 1193 q 319 1210 324 1204 q 311 1222 315 1215 q 302 1234 307 1228 q 293 1247 297 1240 q 285 1257 289 1253 q 275 1267 282 1261 q 267 1274 268 1274 q 258 1270 261 1274 q 251 1263 256 1267 q 243 1255 247 1260 q 237 1247 239 1250 q 233 1242 235 1244 q 228 1235 231 1239 q 224 1228 226 1232 q 219 1220 222 1224 q 214 1212 217 1217 q 209 1203 211 1207 q 204 1193 207 1199 q 199 1183 201 1188 q 193 1172 196 1178 q 187 1159 190 1165 q 181 1147 183 1153 q 175 1133 178 1140 l 103 1163 q 125 1210 114 1189 q 147 1249 136 1231 q 167 1281 157 1267 q 192 1310 176 1294 q 226 1335 207 1325 q 265 1346 244 1346 q 281 1344 274 1346 q 294 1341 288 1343 q 307 1335 300 1339 q 319 1328 314 1332 q 330 1319 325 1324 q 340 1310 335 1315 q 349 1299 344 1304 q 358 1288 354 1293 q 367 1276 363 1282 q 375 1265 371 1271 q 383 1253 379 1260 q 392 1240 388 1246 q 401 1228 397 1233 q 409 1217 406 1222 q 419 1206 413 1213 q 428 1200 426 1200 q 436 1203 433 1200 q 443 1211 439 1207 q 451 1220 447 1215 q 458 1228 456 1225 q 462 1233 460 1231 q 466 1240 464 1236 q 470 1247 468 1243 q 475 1254 472 1250 q 481 1263 478 1258 q 485 1272 483 1267 q 490 1281 488 1276 q 496 1292 493 1286 q 501 1303 499 1297 q 508 1315 504 1308 q 514 1328 511 1321 q 519 1342 517 1335 l 592 1311 q 569 1265 581 1286 q 548 1226 558 1243 q 528 1194 538 1208 q 503 1165 518 1181 q 469 1139 488 1149 q 429 1129 450 1129 z "},"":{"ha":694,"x_min":81,"x_max":614,"o":"m 347 -11 q 274 -4 311 -11 q 206 21 238 3 q 148 67 174 39 q 107 128 122 94 q 86 198 92 161 q 81 271 81 235 l 81 750 q 86 823 81 786 q 107 893 92 860 q 148 954 122 926 q 206 1000 174 982 q 274 1025 238 1018 q 347 1032 311 1032 q 420 1025 383 1032 q 489 1000 457 1018 q 547 954 521 982 q 588 893 572 926 q 608 823 603 860 q 614 750 614 786 l 614 271 q 608 198 614 235 q 588 128 603 161 q 547 67 572 94 q 489 21 521 39 q 420 -4 457 3 q 347 -11 383 -11 m 347 65 q 399 71 374 65 q 447 90 425 76 q 486 124 469 104 q 513 169 503 144 q 526 219 522 193 q 529 271 529 244 l 529 750 q 526 802 529 776 q 513 852 522 828 q 486 897 503 876 q 447 931 469 917 q 399 950 425 944 q 347 956 374 956 q 295 950 321 956 q 247 931 269 944 q 208 897 225 917 q 182 852 192 876 q 169 802 172 828 q 165 750 165 776 l 165 271 q 169 219 165 244 q 182 169 172 193 q 208 124 192 144 q 247 90 225 104 q 295 71 269 76 q 347 65 321 65 m 360 1111 l 192 1301 l 260 1351 l 414 1153 l 360 1111 z "},"":{"ha":694,"x_min":81,"x_max":614,"o":"m 347 -11 q 274 -4 311 -11 q 206 21 238 3 q 148 67 174 39 q 107 128 122 94 q 86 198 92 161 q 81 271 81 235 l 81 750 q 86 823 81 786 q 107 893 92 860 q 148 954 122 926 q 206 1000 174 982 q 274 1025 238 1018 q 347 1032 311 1032 q 420 1025 383 1032 q 489 1000 457 1018 q 547 954 521 982 q 588 893 572 926 q 608 823 603 860 q 614 750 614 786 l 614 271 q 608 198 614 235 q 588 128 603 161 q 547 67 572 94 q 489 21 521 39 q 420 -4 457 3 q 347 -11 383 -11 m 347 65 q 399 71 374 65 q 447 90 425 76 q 486 124 469 104 q 513 169 503 144 q 526 219 522 193 q 529 271 529 244 l 529 750 q 526 802 529 776 q 513 852 522 828 q 486 897 503 876 q 447 931 469 917 q 399 950 425 944 q 347 956 374 956 q 295 950 321 956 q 247 931 269 944 q 208 897 225 917 q 182 852 192 876 q 169 802 172 828 q 165 750 165 776 l 165 271 q 169 219 165 244 q 182 169 172 193 q 208 124 192 144 q 247 90 225 104 q 295 71 269 76 q 347 65 321 65 m 335 1111 l 281 1153 l 435 1351 l 503 1301 l 335 1111 z "},"":{"ha":694,"x_min":81,"x_max":614,"o":"m 347 -11 q 274 -4 311 -11 q 206 21 238 3 q 148 67 174 39 q 107 128 122 94 q 86 198 92 161 q 81 271 81 235 l 81 750 q 86 823 81 786 q 107 893 92 860 q 148 954 122 926 q 206 1000 174 982 q 274 1025 238 1018 q 347 1032 311 1032 q 420 1025 383 1032 q 489 1000 457 1018 q 547 954 521 982 q 588 893 572 926 q 608 823 603 860 q 614 750 614 786 l 614 271 q 608 198 614 235 q 588 128 603 161 q 547 67 572 94 q 489 21 521 39 q 420 -4 457 3 q 347 -11 383 -11 m 347 65 q 399 71 374 65 q 447 90 425 76 q 486 124 469 104 q 513 169 503 144 q 526 219 522 193 q 529 271 529 244 l 529 750 q 526 802 529 776 q 513 852 522 828 q 486 897 503 876 q 447 931 469 917 q 399 950 425 944 q 347 956 374 956 q 295 950 321 956 q 247 931 269 944 q 208 897 225 917 q 182 852 192 876 q 169 802 172 828 q 165 750 165 776 l 165 271 q 169 219 165 244 q 182 169 172 193 q 208 124 192 144 q 247 90 225 104 q 295 71 269 76 q 347 65 321 65 m 217 1119 l 160 1158 l 294 1349 l 400 1349 l 535 1158 l 478 1119 l 347 1283 l 217 1119 z "},"":{"ha":694,"x_min":81,"x_max":614,"o":"m 347 -11 q 274 -4 311 -11 q 206 21 238 3 q 148 67 174 39 q 107 128 122 94 q 86 198 92 161 q 81 271 81 235 l 81 750 q 86 823 81 786 q 107 893 92 860 q 148 954 122 926 q 206 1000 174 982 q 274 1025 238 1018 q 347 1032 311 1032 q 420 1025 383 1032 q 489 1000 457 1018 q 547 954 521 982 q 588 893 572 926 q 608 823 603 860 q 614 750 614 786 l 614 271 q 608 198 614 235 q 588 128 603 161 q 547 67 572 94 q 489 21 521 39 q 420 -4 457 3 q 347 -11 383 -11 m 347 65 q 399 71 374 65 q 447 90 425 76 q 486 124 469 104 q 513 169 503 144 q 526 219 522 193 q 529 271 529 244 l 529 750 q 526 802 529 776 q 513 852 522 828 q 486 897 503 876 q 447 931 469 917 q 399 950 425 944 q 347 956 374 956 q 295 950 321 956 q 247 931 269 944 q 208 897 225 917 q 182 852 192 876 q 169 802 172 828 q 165 750 165 776 l 165 271 q 169 219 165 244 q 182 169 172 193 q 208 124 192 144 q 247 90 225 104 q 295 71 269 76 q 347 65 321 65 m 429 1129 q 414 1131 421 1129 q 401 1134 407 1132 q 388 1140 394 1136 q 375 1147 381 1143 q 365 1155 369 1150 q 355 1165 360 1160 q 345 1176 350 1171 q 336 1188 340 1182 q 328 1199 332 1193 q 319 1210 324 1204 q 311 1222 315 1215 q 302 1234 307 1228 q 293 1247 297 1240 q 285 1257 289 1253 q 275 1267 282 1261 q 267 1274 268 1274 q 258 1270 261 1274 q 251 1263 256 1267 q 243 1255 247 1260 q 237 1247 239 1250 q 233 1242 235 1244 q 228 1235 231 1239 q 224 1228 226 1232 q 219 1220 222 1224 q 214 1212 217 1217 q 209 1203 211 1207 q 204 1193 207 1199 q 199 1183 201 1188 q 193 1172 196 1178 q 187 1159 190 1165 q 181 1147 183 1153 q 175 1133 178 1140 l 103 1163 q 125 1210 114 1189 q 147 1249 136 1231 q 167 1281 157 1267 q 192 1310 176 1294 q 226 1335 207 1325 q 265 1346 244 1346 q 281 1344 274 1346 q 294 1341 288 1343 q 307 1335 300 1339 q 319 1328 314 1332 q 330 1319 325 1324 q 340 1310 335 1315 q 349 1299 344 1304 q 358 1288 354 1293 q 367 1276 363 1282 q 375 1265 371 1271 q 383 1253 379 1260 q 392 1240 388 1246 q 401 1228 397 1233 q 409 1217 406 1222 q 419 1206 413 1213 q 428 1200 426 1200 q 436 1203 433 1200 q 443 1211 439 1207 q 451 1220 447 1215 q 458 1228 456 1225 q 462 1233 460 1231 q 466 1240 464 1236 q 470 1247 468 1243 q 475 1254 472 1250 q 481 1263 478 1258 q 485 1272 483 1267 q 490 1281 488 1276 q 496 1292 493 1286 q 501 1303 499 1297 q 508 1315 504 1308 q 514 1328 511 1321 q 519 1342 517 1335 l 592 1311 q 569 1265 581 1286 q 548 1226 558 1243 q 528 1194 538 1208 q 503 1165 518 1181 q 469 1139 488 1149 q 429 1129 450 1129 z "},"":{"ha":694,"x_min":81,"x_max":614,"o":"m 347 -11 q 274 -4 311 -11 q 206 21 238 3 q 148 67 174 39 q 107 128 122 94 q 86 198 92 161 q 81 271 81 235 l 81 750 q 86 823 81 786 q 107 893 92 860 q 148 954 122 926 q 206 1000 174 982 q 274 1025 238 1018 q 347 1032 311 1032 q 420 1025 383 1032 q 489 1000 457 1018 q 547 954 521 982 q 588 893 572 926 q 608 823 603 860 q 614 750 614 786 l 614 271 q 608 198 614 235 q 588 128 603 161 q 547 67 572 94 q 489 21 521 39 q 420 -4 457 3 q 347 -11 383 -11 m 347 65 q 399 71 374 65 q 447 90 425 76 q 486 124 469 104 q 513 169 503 144 q 526 219 522 193 q 529 271 529 244 l 529 750 q 526 802 529 776 q 513 852 522 828 q 486 897 503 876 q 447 931 469 917 q 399 950 425 944 q 347 956 374 956 q 295 950 321 956 q 247 931 269 944 q 208 897 225 917 q 182 852 192 876 q 169 802 172 828 q 165 750 165 776 l 165 271 q 169 219 165 244 q 182 169 172 193 q 208 124 192 144 q 247 90 225 104 q 295 71 269 76 q 347 65 321 65 m 486 1157 q 457 1161 471 1157 q 433 1176 443 1165 q 418 1200 422 1186 q 414 1229 414 1214 q 418 1258 414 1244 q 433 1283 422 1272 q 457 1297 443 1293 q 486 1301 471 1301 q 515 1297 501 1301 q 540 1283 529 1293 q 554 1258 550 1272 q 558 1229 558 1244 q 554 1200 558 1214 q 540 1176 550 1186 q 515 1161 529 1165 q 486 1157 501 1157 m 208 1157 q 179 1161 193 1157 q 155 1176 165 1165 q 140 1200 144 1186 q 136 1229 136 1214 q 140 1258 136 1244 q 155 1283 144 1272 q 179 1297 165 1293 q 208 1301 193 1301 q 238 1297 224 1301 q 262 1283 251 1293 q 276 1258 272 1272 q 281 1229 281 1244 q 276 1200 281 1214 q 262 1176 272 1186 q 238 1161 251 1165 q 208 1157 224 1157 z "},"":{"ha":694,"x_min":40,"x_max":654,"o":"m 597 168 l 347 417 l 97 168 l 40 219 l 292 472 l 40 725 l 97 776 l 347 528 l 597 776 l 654 725 l 403 472 l 654 219 l 597 168 z "},"":{"ha":694,"x_min":81,"x_max":614,"o":"m 151 -64 l 81 -37 l 131 86 q 107 128 117 106 q 91 174 97 151 q 83 222 85 197 q 81 271 81 246 l 81 750 q 86 823 81 786 q 107 893 92 860 q 148 954 122 926 q 206 1000 174 982 q 274 1025 238 1018 q 347 1032 311 1032 q 429 1023 389 1032 q 504 992 469 1014 l 543 1085 l 614 1058 l 564 935 q 588 892 578 915 q 603 847 597 869 q 612 799 610 824 q 614 750 614 775 l 614 271 q 608 198 614 235 q 588 128 603 161 q 547 67 572 94 q 489 21 521 39 q 420 -4 457 3 q 347 -11 383 -11 q 265 -2 306 -11 q 190 29 225 7 l 151 -64 m 175 192 l 471 911 q 414 945 447 935 q 347 956 381 956 q 295 950 321 956 q 247 931 269 944 q 208 897 225 917 q 182 852 192 876 q 169 802 172 828 q 165 750 165 776 l 165 271 q 167 231 165 251 q 175 192 168 211 m 347 65 q 399 71 374 65 q 447 90 425 76 q 486 124 469 104 q 513 169 503 144 q 526 219 522 193 q 529 271 529 244 l 529 750 q 528 790 529 769 q 519 829 526 810 l 224 110 q 281 76 247 86 q 347 65 314 65 z "},"":{"ha":694,"x_min":92,"x_max":603,"o":"m 347 -11 q 276 -3 311 -11 q 209 22 240 4 q 154 69 178 40 q 117 130 131 97 q 97 199 103 163 q 92 271 92 235 l 92 1021 l 176 1021 l 176 271 q 179 221 176 246 q 191 172 182 196 q 215 126 200 147 q 251 92 231 106 q 297 72 272 78 q 347 65 322 65 q 397 72 372 65 q 443 92 422 78 q 479 126 464 106 q 503 172 494 147 q 515 221 513 196 q 518 271 518 246 l 518 1021 l 603 1021 l 603 271 q 597 199 603 235 q 578 130 592 163 q 540 69 564 97 q 485 22 517 40 q 419 -3 454 4 q 347 -11 383 -11 m 360 1111 l 192 1301 l 260 1351 l 414 1153 l 360 1111 z "},"":{"ha":694,"x_min":92,"x_max":603,"o":"m 347 -11 q 276 -3 311 -11 q 209 22 240 4 q 154 69 178 40 q 117 130 131 97 q 97 199 103 163 q 92 271 92 235 l 92 1021 l 176 1021 l 176 271 q 179 221 176 246 q 191 172 182 196 q 215 126 200 147 q 251 92 231 106 q 297 72 272 78 q 347 65 322 65 q 397 72 372 65 q 443 92 422 78 q 479 126 464 106 q 503 172 494 147 q 515 221 513 196 q 518 271 518 246 l 518 1021 l 603 1021 l 603 271 q 597 199 603 235 q 578 130 592 163 q 540 69 564 97 q 485 22 517 40 q 419 -3 454 4 q 347 -11 383 -11 m 335 1111 l 281 1153 l 435 1351 l 503 1301 l 335 1111 z "},"":{"ha":694,"x_min":92,"x_max":603,"o":"m 347 -11 q 276 -3 311 -11 q 209 22 240 4 q 154 69 178 40 q 117 130 131 97 q 97 199 103 163 q 92 271 92 235 l 92 1021 l 176 1021 l 176 271 q 179 221 176 246 q 191 172 182 196 q 215 126 200 147 q 251 92 231 106 q 297 72 272 78 q 347 65 322 65 q 397 72 372 65 q 443 92 422 78 q 479 126 464 106 q 503 172 494 147 q 515 221 513 196 q 518 271 518 246 l 518 1021 l 603 1021 l 603 271 q 597 199 603 235 q 578 130 592 163 q 540 69 564 97 q 485 22 517 40 q 419 -3 454 4 q 347 -11 383 -11 m 217 1119 l 160 1158 l 294 1349 l 400 1349 l 535 1158 l 478 1119 l 347 1283 l 217 1119 z "},"":{"ha":694,"x_min":92,"x_max":603,"o":"m 347 -11 q 276 -3 311 -11 q 209 22 240 4 q 154 69 178 40 q 117 130 131 97 q 97 199 103 163 q 92 271 92 235 l 92 1021 l 176 1021 l 176 271 q 179 221 176 246 q 191 172 182 196 q 215 126 200 147 q 251 92 231 106 q 297 72 272 78 q 347 65 322 65 q 397 72 372 65 q 443 92 422 78 q 479 126 464 106 q 503 172 494 147 q 515 221 513 196 q 518 271 518 246 l 518 1021 l 603 1021 l 603 271 q 597 199 603 235 q 578 130 592 163 q 540 69 564 97 q 485 22 517 40 q 419 -3 454 4 q 347 -11 383 -11 m 486 1157 q 457 1161 471 1157 q 433 1176 443 1165 q 418 1200 422 1186 q 414 1229 414 1214 q 418 1258 414 1244 q 433 1283 422 1272 q 457 1297 443 1293 q 486 1301 471 1301 q 515 1297 501 1301 q 540 1283 529 1293 q 554 1258 550 1272 q 558 1229 558 1244 q 554 1200 558 1214 q 540 1176 550 1186 q 515 1161 529 1165 q 486 1157 501 1157 m 208 1157 q 179 1161 193 1157 q 155 1176 165 1165 q 140 1200 144 1186 q 136 1229 136 1214 q 140 1258 136 1244 q 155 1283 144 1272 q 179 1297 165 1293 q 208 1301 193 1301 q 238 1297 224 1301 q 262 1283 251 1293 q 276 1258 272 1272 q 281 1229 281 1244 q 276 1200 281 1214 q 262 1176 272 1186 q 238 1161 251 1165 q 208 1157 224 1157 z "},"":{"ha":694,"x_min":71,"x_max":624,"o":"m 306 0 l 306 407 l 71 1021 l 161 1021 l 347 522 l 533 1021 l 624 1021 l 389 407 l 389 0 l 306 0 m 335 1111 l 281 1153 l 435 1351 l 503 1301 l 335 1111 z "},"":{"ha":694,"x_min":115,"x_max":614,"o":"m 115 0 l 115 1021 l 199 1021 l 199 826 l 286 826 q 372 819 329 826 q 454 794 415 813 q 525 746 493 776 q 578 677 557 715 q 606 597 599 639 q 614 511 614 554 q 606 424 614 467 q 578 344 599 382 q 525 275 557 306 q 454 226 493 244 q 372 201 415 208 q 286 194 329 194 l 199 194 l 199 0 l 115 0 m 199 271 l 286 271 q 351 276 318 271 q 413 296 383 282 q 465 333 442 310 q 503 385 489 356 q 524 446 518 414 q 529 511 529 478 q 524 575 529 543 q 503 636 518 607 q 465 688 489 665 q 413 725 442 711 q 351 744 383 739 q 286 750 318 750 l 199 750 l 199 271 z "},"":{"ha":694,"x_min":92,"x_max":614,"o":"m 92 0 l 92 722 q 96 797 92 760 q 113 869 100 833 q 146 936 125 904 q 197 990 167 968 q 263 1022 226 1013 q 336 1032 299 1032 q 404 1024 371 1032 q 467 999 438 1017 q 518 955 496 982 q 553 897 540 928 q 574 832 567 865 q 581 764 581 799 q 573 694 581 729 q 551 628 565 660 q 513 570 536 597 q 463 522 490 543 q 528 482 497 507 q 578 424 558 457 q 606 351 597 390 q 614 275 614 313 q 606 197 614 236 q 578 125 597 158 q 528 67 558 92 q 461 26 497 42 q 387 6 425 11 q 310 0 349 0 l 244 0 l 244 76 l 310 76 q 365 81 338 76 q 419 96 393 85 q 467 125 444 107 q 503 167 489 143 q 524 218 518 190 q 529 275 529 246 q 514 357 529 317 q 467 424 499 397 q 393 462 435 451 q 310 472 351 472 l 310 549 q 385 567 349 549 q 447 617 422 586 q 485 685 472 647 q 497 763 497 724 q 493 810 497 786 q 481 855 489 833 q 458 896 472 876 q 425 929 444 915 q 383 949 406 943 q 336 956 360 956 q 284 947 310 956 q 239 919 258 938 q 208 877 219 901 q 188 827 196 853 q 178 775 181 801 q 176 722 176 749 l 176 0 l 92 0 z "},"":{"ha":694,"x_min":81,"x_max":603,"o":"m 310 -11 q 222 0 265 -11 q 146 40 179 11 q 97 110 113 68 q 81 196 81 153 q 90 265 81 231 q 122 325 100 299 q 174 369 143 351 q 237 398 204 388 q 304 412 269 408 q 372 415 339 415 l 518 415 l 518 489 q 514 534 518 511 q 499 577 510 557 q 472 613 489 597 q 435 639 456 629 q 391 653 414 649 q 346 657 368 657 q 285 651 315 657 q 230 629 256 646 q 189 585 204 613 q 174 529 174 558 l 174 526 l 89 526 l 89 529 q 99 590 89 560 q 126 644 108 619 q 170 687 144 669 q 224 715 196 704 q 284 729 253 725 q 346 733 315 733 q 413 728 379 733 q 476 708 446 722 q 533 672 507 694 q 574 619 558 649 q 597 556 590 589 q 603 489 603 522 l 603 0 l 518 0 l 518 122 q 485 65 506 92 q 436 21 464 39 q 376 -4 408 3 q 310 -11 343 -11 m 342 65 q 390 70 365 65 q 435 86 414 75 q 474 115 457 97 q 501 156 490 133 q 515 202 511 178 q 518 250 518 226 l 518 339 l 372 339 q 326 337 350 339 q 281 329 303 335 q 237 314 258 324 q 199 288 215 304 q 174 250 182 272 q 165 204 165 228 q 180 143 165 172 q 220 96 194 114 q 278 72 246 78 q 342 65 310 65 m 360 813 l 192 1003 l 260 1053 l 414 854 l 360 813 z "},"":{"ha":694,"x_min":81,"x_max":603,"o":"m 310 -11 q 222 0 265 -11 q 146 40 179 11 q 97 110 113 68 q 81 196 81 153 q 90 265 81 231 q 122 325 100 299 q 174 369 143 351 q 237 398 204 388 q 304 412 269 408 q 372 415 339 415 l 518 415 l 518 489 q 514 534 518 511 q 499 577 510 557 q 472 613 489 597 q 435 639 456 629 q 391 653 414 649 q 346 657 368 657 q 285 651 315 657 q 230 629 256 646 q 189 585 204 613 q 174 529 174 558 l 174 526 l 89 526 l 89 529 q 99 590 89 560 q 126 644 108 619 q 170 687 144 669 q 224 715 196 704 q 284 729 253 725 q 346 733 315 733 q 413 728 379 733 q 476 708 446 722 q 533 672 507 694 q 574 619 558 649 q 597 556 590 589 q 603 489 603 522 l 603 0 l 518 0 l 518 122 q 485 65 506 92 q 436 21 464 39 q 376 -4 408 3 q 310 -11 343 -11 m 342 65 q 390 70 365 65 q 435 86 414 75 q 474 115 457 97 q 501 156 490 133 q 515 202 511 178 q 518 250 518 226 l 518 339 l 372 339 q 326 337 350 339 q 281 329 303 335 q 237 314 258 324 q 199 288 215 304 q 174 250 182 272 q 165 204 165 228 q 180 143 165 172 q 220 96 194 114 q 278 72 246 78 q 342 65 310 65 m 335 813 l 281 854 l 435 1053 l 503 1003 l 335 813 z "},"":{"ha":694,"x_min":81,"x_max":603,"o":"m 310 -11 q 222 0 265 -11 q 146 40 179 11 q 97 110 113 68 q 81 196 81 153 q 90 265 81 231 q 122 325 100 299 q 174 369 143 351 q 237 398 204 388 q 304 412 269 408 q 372 415 339 415 l 518 415 l 518 489 q 514 534 518 511 q 499 577 510 557 q 472 613 489 597 q 435 639 456 629 q 391 653 414 649 q 346 657 368 657 q 285 651 315 657 q 230 629 256 646 q 189 585 204 613 q 174 529 174 558 l 174 526 l 89 526 l 89 529 q 99 590 89 560 q 126 644 108 619 q 170 687 144 669 q 224 715 196 704 q 284 729 253 725 q 346 733 315 733 q 413 728 379 733 q 476 708 446 722 q 533 672 507 694 q 574 619 558 649 q 597 556 590 589 q 603 489 603 522 l 603 0 l 518 0 l 518 122 q 485 65 506 92 q 436 21 464 39 q 376 -4 408 3 q 310 -11 343 -11 m 342 65 q 390 70 365 65 q 435 86 414 75 q 474 115 457 97 q 501 156 490 133 q 515 202 511 178 q 518 250 518 226 l 518 339 l 372 339 q 326 337 350 339 q 281 329 303 335 q 237 314 258 324 q 199 288 215 304 q 174 250 182 272 q 165 204 165 228 q 180 143 165 172 q 220 96 194 114 q 278 72 246 78 q 342 65 310 65 m 217 821 l 160 860 l 294 1050 l 400 1050 l 535 860 l 478 821 l 347 985 l 217 821 z "},"":{"ha":694,"x_min":81,"x_max":603,"o":"m 310 -11 q 222 0 265 -11 q 146 40 179 11 q 97 110 113 68 q 81 196 81 153 q 90 265 81 231 q 122 325 100 299 q 174 369 143 351 q 237 398 204 388 q 304 412 269 408 q 372 415 339 415 l 518 415 l 518 489 q 514 534 518 511 q 499 577 510 557 q 472 613 489 597 q 435 639 456 629 q 391 653 414 649 q 346 657 368 657 q 285 651 315 657 q 230 629 256 646 q 189 585 204 613 q 174 529 174 558 l 174 526 l 89 526 l 89 529 q 99 590 89 560 q 126 644 108 619 q 170 687 144 669 q 224 715 196 704 q 284 729 253 725 q 346 733 315 733 q 413 728 379 733 q 476 708 446 722 q 533 672 507 694 q 574 619 558 649 q 597 556 590 589 q 603 489 603 522 l 603 0 l 518 0 l 518 122 q 485 65 506 92 q 436 21 464 39 q 376 -4 408 3 q 310 -11 343 -11 m 342 65 q 390 70 365 65 q 435 86 414 75 q 474 115 457 97 q 501 156 490 133 q 515 202 511 178 q 518 250 518 226 l 518 339 l 372 339 q 326 337 350 339 q 281 329 303 335 q 237 314 258 324 q 199 288 215 304 q 174 250 182 272 q 165 204 165 228 q 180 143 165 172 q 220 96 194 114 q 278 72 246 78 q 342 65 310 65 m 429 831 q 414 832 421 831 q 401 835 407 833 q 388 841 394 838 q 375 848 381 844 q 365 856 369 851 q 355 867 360 861 q 345 878 350 872 q 336 889 340 883 q 328 900 332 894 q 319 911 324 906 q 311 923 315 917 q 302 935 307 929 q 293 948 297 942 q 285 958 289 954 q 275 969 282 963 q 267 975 268 975 q 258 972 261 975 q 251 965 256 968 q 243 956 247 961 q 237 949 239 951 q 233 943 235 946 q 228 937 231 940 q 224 929 226 933 q 219 922 222 925 q 214 913 217 918 q 209 904 211 908 q 204 894 207 900 q 199 884 201 889 q 193 873 196 879 q 187 860 190 867 q 181 848 183 854 q 175 835 178 842 l 103 864 q 125 911 114 890 q 147 950 136 932 q 167 982 157 968 q 192 1011 176 996 q 226 1037 207 1026 q 265 1047 244 1047 q 281 1046 274 1047 q 294 1042 288 1044 q 307 1037 300 1040 q 319 1029 314 1033 q 330 1021 325 1025 q 340 1011 335 1017 q 349 1000 344 1006 q 358 989 354 994 q 367 978 363 983 q 375 967 371 972 q 383 954 379 961 q 392 941 388 947 q 401 929 397 935 q 409 919 406 924 q 419 908 413 914 q 428 901 426 901 q 436 905 433 901 q 443 913 439 908 q 451 922 447 917 q 458 929 456 926 q 462 935 460 932 q 466 941 464 938 q 470 948 468 944 q 475 956 472 951 q 481 964 478 960 q 485 973 483 968 q 490 983 488 978 q 496 993 493 988 q 501 1004 499 999 q 508 1016 504 1010 q 514 1029 511 1022 q 519 1043 517 1036 l 592 1013 q 569 966 581 988 q 548 927 558 944 q 528 896 538 910 q 503 866 518 882 q 469 840 488 850 q 429 831 450 831 z "},"":{"ha":694,"x_min":81,"x_max":603,"o":"m 310 -11 q 222 0 265 -11 q 146 40 179 11 q 97 110 113 68 q 81 196 81 153 q 90 265 81 231 q 122 325 100 299 q 174 369 143 351 q 237 398 204 388 q 304 412 269 408 q 372 415 339 415 l 518 415 l 518 489 q 514 534 518 511 q 499 577 510 557 q 472 613 489 597 q 435 639 456 629 q 391 653 414 649 q 346 657 368 657 q 285 651 315 657 q 230 629 256 646 q 189 585 204 613 q 174 529 174 558 l 174 526 l 89 526 l 89 529 q 99 590 89 560 q 126 644 108 619 q 170 687 144 669 q 224 715 196 704 q 284 729 253 725 q 346 733 315 733 q 413 728 379 733 q 476 708 446 722 q 533 672 507 694 q 574 619 558 649 q 597 556 590 589 q 603 489 603 522 l 603 0 l 518 0 l 518 122 q 485 65 506 92 q 436 21 464 39 q 376 -4 408 3 q 310 -11 343 -11 m 342 65 q 390 70 365 65 q 435 86 414 75 q 474 115 457 97 q 501 156 490 133 q 515 202 511 178 q 518 250 518 226 l 518 339 l 372 339 q 326 337 350 339 q 281 329 303 335 q 237 314 258 324 q 199 288 215 304 q 174 250 182 272 q 165 204 165 228 q 180 143 165 172 q 220 96 194 114 q 278 72 246 78 q 342 65 310 65 m 486 858 q 457 863 471 858 q 433 877 443 867 q 418 901 422 888 q 414 931 414 915 q 418 960 414 946 q 433 984 422 974 q 457 999 443 994 q 486 1003 471 1003 q 515 999 501 1003 q 540 984 529 994 q 554 960 550 974 q 558 931 558 946 q 554 901 558 915 q 540 877 550 888 q 515 863 529 867 q 486 858 501 858 m 208 858 q 179 863 193 858 q 155 877 165 867 q 140 901 144 888 q 136 931 136 915 q 140 960 136 946 q 155 984 144 974 q 179 999 165 994 q 208 1003 193 1003 q 238 999 224 1003 q 262 984 251 994 q 276 960 272 974 q 281 931 281 946 q 276 901 281 915 q 262 877 272 888 q 238 863 251 867 q 208 858 224 858 z "},"":{"ha":694,"x_min":81,"x_max":603,"o":"m 310 -11 q 222 0 265 -11 q 146 40 179 11 q 97 110 113 68 q 81 196 81 153 q 90 265 81 231 q 122 325 100 299 q 174 369 143 351 q 237 398 204 388 q 304 412 269 408 q 372 415 339 415 l 518 415 l 518 489 q 514 534 518 511 q 499 577 510 557 q 472 613 489 597 q 435 639 456 629 q 391 653 414 649 q 346 657 368 657 q 285 651 315 657 q 230 629 256 646 q 189 585 204 613 q 174 529 174 558 l 174 526 l 89 526 l 89 529 q 99 590 89 560 q 126 644 108 619 q 170 687 144 669 q 224 715 196 704 q 284 729 253 725 q 346 733 315 733 q 413 728 379 733 q 476 708 446 722 q 533 672 507 694 q 574 619 558 649 q 597 556 590 589 q 603 489 603 522 l 603 0 l 518 0 l 518 122 q 485 65 506 92 q 436 21 464 39 q 376 -4 408 3 q 310 -11 343 -11 m 342 65 q 390 70 365 65 q 435 86 414 75 q 474 115 457 97 q 501 156 490 133 q 515 202 511 178 q 518 250 518 226 l 518 339 l 372 339 q 326 337 350 339 q 281 329 303 335 q 237 314 258 324 q 199 288 215 304 q 174 250 182 272 q 165 204 165 228 q 180 143 165 172 q 220 96 194 114 q 278 72 246 78 q 342 65 310 65 m 347 810 q 299 817 324 810 q 258 842 275 825 q 234 883 242 858 q 226 931 226 907 q 234 978 226 954 q 258 1019 242 1003 q 299 1044 275 1036 q 347 1051 324 1051 q 395 1044 371 1051 q 436 1019 419 1036 q 460 978 453 1003 q 468 931 468 954 q 460 883 468 907 q 436 842 453 858 q 395 817 419 825 q 347 810 371 810 m 347 871 q 372 874 360 871 q 392 886 383 878 q 403 906 400 894 q 407 931 407 918 q 403 955 407 943 q 392 975 400 967 q 372 987 383 983 q 347 990 360 990 q 323 987 335 990 q 303 975 311 983 q 291 955 294 967 q 288 931 288 943 q 291 906 288 918 q 303 886 294 894 q 323 874 311 878 q 347 871 335 871 z "},"":{"ha":694,"x_min":68,"x_max":626,"o":"m 228 -11 q 178 -4 203 -11 q 135 19 154 3 q 102 56 115 35 q 81 101 89 78 q 71 150 74 125 q 68 200 68 175 q 72 253 68 226 q 84 304 75 279 q 109 351 93 329 q 147 387 125 372 q 196 408 169 401 q 249 414 222 414 l 307 414 l 307 564 q 303 599 307 582 q 291 630 300 615 q 266 652 282 644 q 232 660 250 660 q 195 646 211 660 q 171 613 179 632 q 160 574 163 594 q 157 533 157 554 l 157 526 l 76 526 l 76 538 q 80 584 76 561 q 91 629 83 607 q 112 672 99 651 q 144 706 125 692 q 185 727 163 721 q 232 733 208 733 q 297 722 265 733 q 351 685 329 710 q 403 721 372 708 q 467 733 435 733 q 514 727 490 733 q 557 707 538 721 q 590 673 576 693 q 613 630 604 653 q 624 583 621 607 q 626 536 626 560 l 626 325 l 388 325 l 388 186 q 390 146 388 167 q 402 106 393 125 q 428 75 411 88 q 465 63 444 63 q 503 76 486 63 q 528 108 519 89 q 540 147 536 126 q 543 189 543 168 l 543 196 l 624 196 l 624 185 q 620 138 624 161 q 608 92 617 114 q 587 49 600 69 q 555 15 574 29 q 513 -5 536 1 q 465 -11 489 -11 q 398 3 431 -11 q 344 46 365 18 q 322 21 335 32 q 293 2 308 10 q 261 -8 278 -6 q 228 -11 244 -11 m 388 397 l 546 397 l 546 536 q 543 577 546 557 q 531 616 540 597 q 505 647 522 635 q 467 660 488 660 q 428 647 446 660 q 402 616 411 635 q 390 577 393 597 q 388 536 388 557 l 388 397 m 228 63 q 257 70 243 63 q 280 90 271 78 q 294 117 289 103 q 302 147 299 132 q 306 176 306 161 q 307 207 307 192 l 307 340 l 249 340 q 203 328 225 340 q 169 297 181 317 q 153 252 157 276 q 149 203 149 228 q 150 174 149 189 q 154 144 151 158 q 163 115 157 129 q 177 89 168 101 q 199 69 186 76 q 228 63 213 63 z "},"":{"ha":694,"x_min":81,"x_max":606,"o":"m 343 -11 q 270 -3 307 -11 q 201 23 233 4 q 145 70 169 42 q 106 133 121 99 q 86 203 92 167 q 81 278 81 240 l 81 444 q 86 519 81 482 q 106 590 92 556 q 145 652 121 624 q 201 699 169 681 q 270 726 233 718 q 343 733 307 733 q 411 728 378 733 q 476 707 444 722 q 532 668 507 692 q 574 615 557 644 q 598 551 590 585 q 606 483 606 518 l 606 478 l 521 478 l 521 482 q 509 552 521 518 q 472 610 497 586 q 413 646 447 635 q 343 657 379 657 q 291 651 317 657 q 244 630 265 644 q 206 594 222 615 q 181 548 190 572 q 169 497 172 524 q 165 444 165 471 l 165 278 q 169 225 165 251 q 181 174 172 199 q 206 128 190 150 q 244 92 222 107 q 291 72 265 78 q 343 65 317 65 q 413 76 379 65 q 472 112 447 88 q 509 170 497 136 q 521 240 521 204 l 521 244 l 606 244 l 606 239 q 598 171 606 204 q 574 108 590 138 q 532 54 557 78 q 476 15 507 31 q 411 -6 444 0 q 343 -11 378 -11 m 208 -306 l 208 -233 l 347 -233 q 374 -231 361 -233 q 399 -222 388 -229 q 418 -203 411 -215 q 425 -176 425 -190 q 418 -150 425 -162 q 400 -131 411 -137 q 375 -121 389 -124 q 347 -118 361 -118 l 308 -118 l 308 65 l 386 65 l 386 -61 q 430 -74 408 -65 q 467 -99 451 -83 q 490 -137 483 -115 q 497 -182 497 -160 q 485 -235 497 -210 q 451 -278 474 -261 q 402 -300 429 -294 q 347 -306 375 -306 l 208 -306 z "},"":{"ha":694,"x_min":81,"x_max":614,"o":"m 347 -11 q 273 -3 310 -11 q 204 22 236 4 q 147 69 172 40 q 107 133 122 99 q 86 203 92 167 q 81 278 81 240 l 81 444 q 86 519 81 482 q 107 590 92 556 q 147 653 122 624 q 203 700 171 682 q 273 726 236 718 q 347 733 310 733 q 422 726 385 733 q 491 700 458 718 q 548 653 524 682 q 588 590 572 624 q 608 519 603 556 q 614 444 614 482 l 614 322 l 165 322 l 165 278 q 169 225 165 251 q 182 174 172 199 q 208 128 192 149 q 246 92 224 107 q 294 72 268 78 q 347 65 321 65 q 409 72 378 65 q 467 94 440 78 q 510 137 493 110 q 526 196 526 164 l 611 196 q 600 134 610 164 q 572 79 590 104 q 526 36 553 54 q 471 8 500 18 q 410 -7 442 -3 q 347 -11 379 -11 m 165 400 l 529 400 l 529 444 q 526 497 529 471 q 513 549 522 524 q 487 594 503 574 q 449 630 471 615 q 400 651 426 644 q 347 657 374 657 q 294 651 321 657 q 246 630 268 644 q 208 594 224 615 q 182 549 192 574 q 169 497 172 524 q 165 444 165 471 l 165 400 m 360 813 l 192 1003 l 260 1053 l 414 854 l 360 813 z "},"":{"ha":694,"x_min":81,"x_max":614,"o":"m 347 -11 q 273 -3 310 -11 q 204 22 236 4 q 147 69 172 40 q 107 133 122 99 q 86 203 92 167 q 81 278 81 240 l 81 444 q 86 519 81 482 q 107 590 92 556 q 147 653 122 624 q 203 700 171 682 q 273 726 236 718 q 347 733 310 733 q 422 726 385 733 q 491 700 458 718 q 548 653 524 682 q 588 590 572 624 q 608 519 603 556 q 614 444 614 482 l 614 322 l 165 322 l 165 278 q 169 225 165 251 q 182 174 172 199 q 208 128 192 149 q 246 92 224 107 q 294 72 268 78 q 347 65 321 65 q 409 72 378 65 q 467 94 440 78 q 510 137 493 110 q 526 196 526 164 l 611 196 q 600 134 610 164 q 572 79 590 104 q 526 36 553 54 q 471 8 500 18 q 410 -7 442 -3 q 347 -11 379 -11 m 165 400 l 529 400 l 529 444 q 526 497 529 471 q 513 549 522 524 q 487 594 503 574 q 449 630 471 615 q 400 651 426 644 q 347 657 374 657 q 294 651 321 657 q 246 630 268 644 q 208 594 224 615 q 182 549 192 574 q 169 497 172 524 q 165 444 165 471 l 165 400 m 335 813 l 281 854 l 435 1053 l 503 1003 l 335 813 z "},"":{"ha":694,"x_min":81,"x_max":614,"o":"m 347 -11 q 273 -3 310 -11 q 204 22 236 4 q 147 69 172 40 q 107 133 122 99 q 86 203 92 167 q 81 278 81 240 l 81 444 q 86 519 81 482 q 107 590 92 556 q 147 653 122 624 q 203 700 171 682 q 273 726 236 718 q 347 733 310 733 q 422 726 385 733 q 491 700 458 718 q 548 653 524 682 q 588 590 572 624 q 608 519 603 556 q 614 444 614 482 l 614 322 l 165 322 l 165 278 q 169 225 165 251 q 182 174 172 199 q 208 128 192 149 q 246 92 224 107 q 294 72 268 78 q 347 65 321 65 q 409 72 378 65 q 467 94 440 78 q 510 137 493 110 q 526 196 526 164 l 611 196 q 600 134 610 164 q 572 79 590 104 q 526 36 553 54 q 471 8 500 18 q 410 -7 442 -3 q 347 -11 379 -11 m 165 400 l 529 400 l 529 444 q 526 497 529 471 q 513 549 522 524 q 487 594 503 574 q 449 630 471 615 q 400 651 426 644 q 347 657 374 657 q 294 651 321 657 q 246 630 268 644 q 208 594 224 615 q 182 549 192 574 q 169 497 172 524 q 165 444 165 471 l 165 400 m 217 821 l 160 860 l 294 1050 l 400 1050 l 535 860 l 478 821 l 347 985 l 217 821 z "},"":{"ha":694,"x_min":81,"x_max":614,"o":"m 347 -11 q 273 -3 310 -11 q 204 22 236 4 q 147 69 172 40 q 107 133 122 99 q 86 203 92 167 q 81 278 81 240 l 81 444 q 86 519 81 482 q 107 590 92 556 q 147 653 122 624 q 203 700 171 682 q 273 726 236 718 q 347 733 310 733 q 422 726 385 733 q 491 700 458 718 q 548 653 524 682 q 588 590 572 624 q 608 519 603 556 q 614 444 614 482 l 614 322 l 165 322 l 165 278 q 169 225 165 251 q 182 174 172 199 q 208 128 192 149 q 246 92 224 107 q 294 72 268 78 q 347 65 321 65 q 409 72 378 65 q 467 94 440 78 q 510 137 493 110 q 526 196 526 164 l 611 196 q 600 134 610 164 q 572 79 590 104 q 526 36 553 54 q 471 8 500 18 q 410 -7 442 -3 q 347 -11 379 -11 m 165 400 l 529 400 l 529 444 q 526 497 529 471 q 513 549 522 524 q 487 594 503 574 q 449 630 471 615 q 400 651 426 644 q 347 657 374 657 q 294 651 321 657 q 246 630 268 644 q 208 594 224 615 q 182 549 192 574 q 169 497 172 524 q 165 444 165 471 l 165 400 m 486 858 q 457 863 471 858 q 433 877 443 867 q 418 901 422 888 q 414 931 414 915 q 418 960 414 946 q 433 984 422 974 q 457 999 443 994 q 486 1003 471 1003 q 515 999 501 1003 q 540 984 529 994 q 554 960 550 974 q 558 931 558 946 q 554 901 558 915 q 540 877 550 888 q 515 863 529 867 q 486 858 501 858 m 208 858 q 179 863 193 858 q 155 877 165 867 q 140 901 144 888 q 136 931 136 915 q 140 960 136 946 q 155 984 144 974 q 179 999 165 994 q 208 1003 193 1003 q 238 999 224 1003 q 262 984 251 994 q 276 960 272 974 q 281 931 281 946 q 276 901 281 915 q 262 877 272 888 q 238 863 251 867 q 208 858 224 858 z "},"":{"ha":694,"x_min":104,"x_max":590,"o":"m 104 0 l 104 76 l 315 76 l 315 646 l 124 646 l 124 722 l 399 722 l 399 76 l 590 76 l 590 0 l 104 0 m 367 813 l 199 1003 l 267 1053 l 421 854 l 367 813 z "},"":{"ha":694,"x_min":104,"x_max":590,"o":"m 104 0 l 104 76 l 315 76 l 315 646 l 124 646 l 124 722 l 399 722 l 399 76 l 590 76 l 590 0 l 104 0 m 342 813 l 288 854 l 442 1053 l 510 1003 l 342 813 z "},"":{"ha":694,"x_min":104,"x_max":590,"o":"m 104 0 l 104 76 l 315 76 l 315 646 l 124 646 l 124 722 l 399 722 l 399 76 l 590 76 l 590 0 l 104 0 m 224 821 l 167 860 l 301 1050 l 407 1050 l 542 860 l 485 821 l 354 985 l 224 821 z "},"":{"ha":694,"x_min":104,"x_max":590,"o":"m 104 0 l 104 76 l 315 76 l 315 646 l 124 646 l 124 722 l 399 722 l 399 76 l 590 76 l 590 0 l 104 0 m 486 858 q 457 863 471 858 q 433 877 443 867 q 418 901 422 888 q 414 931 414 915 q 418 960 414 946 q 433 984 422 974 q 457 999 443 994 q 486 1003 471 1003 q 515 999 501 1003 q 540 984 529 994 q 554 960 550 974 q 558 931 558 946 q 554 901 558 915 q 540 877 550 888 q 515 863 529 867 q 486 858 501 858 m 208 858 q 179 863 193 858 q 155 877 165 867 q 140 901 144 888 q 136 931 136 915 q 140 960 136 946 q 155 984 144 974 q 179 999 165 994 q 208 1003 193 1003 q 238 999 224 1003 q 262 984 251 994 q 276 960 272 974 q 281 931 281 946 q 276 901 281 915 q 262 877 272 888 q 238 863 251 867 q 208 858 224 858 z "},"":{"ha":694,"x_min":81,"x_max":614,"o":"m 347 -11 q 269 -2 308 -11 q 198 29 231 7 q 142 84 165 51 q 104 153 118 117 q 85 230 90 190 q 81 308 81 269 q 85 383 81 346 q 100 455 89 419 q 131 522 111 490 q 178 578 150 554 q 243 613 207 601 q 315 624 279 624 q 383 615 350 624 q 444 585 417 606 q 492 537 472 565 q 524 476 511 508 q 491 618 515 549 q 426 749 467 688 l 153 674 l 132 742 l 379 810 q 277 894 335 858 q 154 947 219 929 l 176 1021 q 260 992 219 1010 q 337 951 300 975 q 406 897 374 926 q 467 833 439 868 l 567 861 l 588 793 l 510 772 q 560 672 539 724 q 594 566 582 621 q 610 456 607 511 q 614 344 614 400 l 614 307 q 609 228 614 267 q 590 152 604 189 q 553 83 576 115 q 497 29 529 51 q 425 -2 464 7 q 347 -11 386 -11 m 347 65 q 404 74 376 65 q 454 100 432 82 q 491 142 476 118 q 515 194 506 167 q 526 249 524 221 q 529 306 529 278 q 526 363 529 335 q 515 419 524 392 q 491 470 506 446 q 454 513 476 494 q 404 539 432 531 q 347 547 376 547 q 291 539 319 547 q 241 513 263 531 q 204 470 219 494 q 180 419 189 446 q 168 363 171 392 q 165 307 165 335 q 168 249 165 278 q 180 194 171 221 q 204 142 189 167 q 241 100 219 118 q 290 74 263 82 q 347 65 318 65 z "},"":{"ha":694,"x_min":92,"x_max":603,"o":"m 92 0 l 92 722 l 176 722 l 176 588 q 206 647 188 619 q 252 695 225 675 q 313 724 279 715 q 379 733 346 733 q 447 724 414 733 q 508 694 481 715 q 554 643 535 672 q 584 581 574 614 q 599 513 594 547 q 603 444 603 479 l 603 0 l 518 0 l 518 444 q 515 497 518 471 q 503 547 513 522 q 480 592 494 571 q 444 628 465 614 q 399 650 424 643 q 347 657 374 657 q 296 650 321 657 q 250 628 271 643 q 215 592 229 614 q 191 547 200 571 q 179 497 182 522 q 176 444 176 471 l 176 0 l 92 0 m 429 831 q 414 832 421 831 q 401 835 407 833 q 388 841 394 838 q 375 848 381 844 q 365 856 369 851 q 355 867 360 861 q 345 878 350 872 q 336 889 340 883 q 328 900 332 894 q 319 911 324 906 q 311 923 315 917 q 302 935 307 929 q 293 948 297 942 q 285 958 289 954 q 275 969 282 963 q 267 975 268 975 q 258 972 261 975 q 251 965 256 968 q 243 956 247 961 q 237 949 239 951 q 233 943 235 946 q 228 937 231 940 q 224 929 226 933 q 219 922 222 925 q 214 913 217 918 q 209 904 211 908 q 204 894 207 900 q 199 884 201 889 q 193 873 196 879 q 187 860 190 867 q 181 848 183 854 q 175 835 178 842 l 103 864 q 125 911 114 890 q 147 950 136 932 q 167 982 157 968 q 192 1011 176 996 q 226 1037 207 1026 q 265 1047 244 1047 q 281 1046 274 1047 q 294 1042 288 1044 q 307 1037 300 1040 q 319 1029 314 1033 q 330 1021 325 1025 q 340 1011 335 1017 q 349 1000 344 1006 q 358 989 354 994 q 367 978 363 983 q 375 967 371 972 q 383 954 379 961 q 392 941 388 947 q 401 929 397 935 q 409 919 406 924 q 419 908 413 914 q 428 901 426 901 q 436 905 433 901 q 443 913 439 908 q 451 922 447 917 q 458 929 456 926 q 462 935 460 932 q 466 941 464 938 q 470 948 468 944 q 475 956 472 951 q 481 964 478 960 q 485 973 483 968 q 490 983 488 978 q 496 993 493 988 q 501 1004 499 999 q 508 1016 504 1010 q 514 1029 511 1022 q 519 1043 517 1036 l 592 1013 q 569 966 581 988 q 548 927 558 944 q 528 896 538 910 q 503 866 518 882 q 469 840 488 850 q 429 831 450 831 z "},"":{"ha":694,"x_min":81,"x_max":614,"o":"m 347 -11 q 273 -3 310 -11 q 203 22 236 4 q 147 69 171 40 q 107 133 122 99 q 86 203 92 167 q 81 278 81 240 l 81 444 q 86 519 81 482 q 107 590 92 556 q 147 653 122 624 q 203 700 171 682 q 273 726 236 718 q 347 733 310 733 q 422 726 385 733 q 491 700 458 718 q 548 653 524 682 q 588 590 572 624 q 608 519 603 556 q 614 444 614 482 l 614 278 q 608 203 614 240 q 588 133 603 167 q 548 69 572 99 q 491 22 524 40 q 422 -3 458 4 q 347 -11 385 -11 m 347 65 q 400 72 374 65 q 449 92 426 78 q 487 128 471 107 q 513 174 503 149 q 526 225 522 199 q 529 278 529 251 l 529 444 q 526 497 529 471 q 513 549 522 524 q 487 594 503 574 q 449 630 471 615 q 400 651 426 644 q 347 657 374 657 q 294 651 321 657 q 246 630 268 644 q 208 594 224 615 q 182 549 192 574 q 169 497 172 524 q 165 444 165 471 l 165 278 q 169 225 165 251 q 182 174 172 199 q 208 128 192 149 q 246 92 224 107 q 294 72 268 78 q 347 65 321 65 m 360 813 l 192 1003 l 260 1053 l 414 854 l 360 813 z "},"":{"ha":694,"x_min":81,"x_max":614,"o":"m 347 -11 q 273 -3 310 -11 q 203 22 236 4 q 147 69 171 40 q 107 133 122 99 q 86 203 92 167 q 81 278 81 240 l 81 444 q 86 519 81 482 q 107 590 92 556 q 147 653 122 624 q 203 700 171 682 q 273 726 236 718 q 347 733 310 733 q 422 726 385 733 q 491 700 458 718 q 548 653 524 682 q 588 590 572 624 q 608 519 603 556 q 614 444 614 482 l 614 278 q 608 203 614 240 q 588 133 603 167 q 548 69 572 99 q 491 22 524 40 q 422 -3 458 4 q 347 -11 385 -11 m 347 65 q 400 72 374 65 q 449 92 426 78 q 487 128 471 107 q 513 174 503 149 q 526 225 522 199 q 529 278 529 251 l 529 444 q 526 497 529 471 q 513 549 522 524 q 487 594 503 574 q 449 630 471 615 q 400 651 426 644 q 347 657 374 657 q 294 651 321 657 q 246 630 268 644 q 208 594 224 615 q 182 549 192 574 q 169 497 172 524 q 165 444 165 471 l 165 278 q 169 225 165 251 q 182 174 172 199 q 208 128 192 149 q 246 92 224 107 q 294 72 268 78 q 347 65 321 65 m 335 813 l 281 854 l 435 1053 l 503 1003 l 335 813 z "},"":{"ha":694,"x_min":81,"x_max":614,"o":"m 347 -11 q 273 -3 310 -11 q 203 22 236 4 q 147 69 171 40 q 107 133 122 99 q 86 203 92 167 q 81 278 81 240 l 81 444 q 86 519 81 482 q 107 590 92 556 q 147 653 122 624 q 203 700 171 682 q 273 726 236 718 q 347 733 310 733 q 422 726 385 733 q 491 700 458 718 q 548 653 524 682 q 588 590 572 624 q 608 519 603 556 q 614 444 614 482 l 614 278 q 608 203 614 240 q 588 133 603 167 q 548 69 572 99 q 491 22 524 40 q 422 -3 458 4 q 347 -11 385 -11 m 347 65 q 400 72 374 65 q 449 92 426 78 q 487 128 471 107 q 513 174 503 149 q 526 225 522 199 q 529 278 529 251 l 529 444 q 526 497 529 471 q 513 549 522 524 q 487 594 503 574 q 449 630 471 615 q 400 651 426 644 q 347 657 374 657 q 294 651 321 657 q 246 630 268 644 q 208 594 224 615 q 182 549 192 574 q 169 497 172 524 q 165 444 165 471 l 165 278 q 169 225 165 251 q 182 174 172 199 q 208 128 192 149 q 246 92 224 107 q 294 72 268 78 q 347 65 321 65 m 217 821 l 160 860 l 294 1050 l 400 1050 l 535 860 l 478 821 l 347 985 l 217 821 z "},"":{"ha":694,"x_min":81,"x_max":614,"o":"m 347 -11 q 273 -3 310 -11 q 203 22 236 4 q 147 69 171 40 q 107 133 122 99 q 86 203 92 167 q 81 278 81 240 l 81 444 q 86 519 81 482 q 107 590 92 556 q 147 653 122 624 q 203 700 171 682 q 273 726 236 718 q 347 733 310 733 q 422 726 385 733 q 491 700 458 718 q 548 653 524 682 q 588 590 572 624 q 608 519 603 556 q 614 444 614 482 l 614 278 q 608 203 614 240 q 588 133 603 167 q 548 69 572 99 q 491 22 524 40 q 422 -3 458 4 q 347 -11 385 -11 m 347 65 q 400 72 374 65 q 449 92 426 78 q 487 128 471 107 q 513 174 503 149 q 526 225 522 199 q 529 278 529 251 l 529 444 q 526 497 529 471 q 513 549 522 524 q 487 594 503 574 q 449 630 471 615 q 400 651 426 644 q 347 657 374 657 q 294 651 321 657 q 246 630 268 644 q 208 594 224 615 q 182 549 192 574 q 169 497 172 524 q 165 444 165 471 l 165 278 q 169 225 165 251 q 182 174 172 199 q 208 128 192 149 q 246 92 224 107 q 294 72 268 78 q 347 65 321 65 m 429 831 q 414 832 421 831 q 401 835 407 833 q 388 841 394 838 q 375 848 381 844 q 365 856 369 851 q 355 867 360 861 q 345 878 350 872 q 336 889 340 883 q 328 900 332 894 q 319 911 324 906 q 311 923 315 917 q 302 935 307 929 q 293 948 297 942 q 285 958 289 954 q 275 969 282 963 q 267 975 268 975 q 258 972 261 975 q 251 965 256 968 q 243 956 247 961 q 237 949 239 951 q 233 943 235 946 q 228 937 231 940 q 224 929 226 933 q 219 922 222 925 q 214 913 217 918 q 209 904 211 908 q 204 894 207 900 q 199 884 201 889 q 193 873 196 879 q 187 860 190 867 q 181 848 183 854 q 175 835 178 842 l 103 864 q 125 911 114 890 q 147 950 136 932 q 167 982 157 968 q 192 1011 176 996 q 226 1037 207 1026 q 265 1047 244 1047 q 281 1046 274 1047 q 294 1042 288 1044 q 307 1037 300 1040 q 319 1029 314 1033 q 330 1021 325 1025 q 340 1011 335 1017 q 349 1000 344 1006 q 358 989 354 994 q 367 978 363 983 q 375 967 371 972 q 383 954 379 961 q 392 941 388 947 q 401 929 397 935 q 409 919 406 924 q 419 908 413 914 q 428 901 426 901 q 436 905 433 901 q 443 913 439 908 q 451 922 447 917 q 458 929 456 926 q 462 935 460 932 q 466 941 464 938 q 470 948 468 944 q 475 956 472 951 q 481 964 478 960 q 485 973 483 968 q 490 983 488 978 q 496 993 493 988 q 501 1004 499 999 q 508 1016 504 1010 q 514 1029 511 1022 q 519 1043 517 1036 l 592 1013 q 569 966 581 988 q 548 927 558 944 q 528 896 538 910 q 503 866 518 882 q 469 840 488 850 q 429 831 450 831 z "},"":{"ha":694,"x_min":81,"x_max":614,"o":"m 347 -11 q 273 -3 310 -11 q 203 22 236 4 q 147 69 171 40 q 107 133 122 99 q 86 203 92 167 q 81 278 81 240 l 81 444 q 86 519 81 482 q 107 590 92 556 q 147 653 122 624 q 203 700 171 682 q 273 726 236 718 q 347 733 310 733 q 422 726 385 733 q 491 700 458 718 q 548 653 524 682 q 588 590 572 624 q 608 519 603 556 q 614 444 614 482 l 614 278 q 608 203 614 240 q 588 133 603 167 q 548 69 572 99 q 491 22 524 40 q 422 -3 458 4 q 347 -11 385 -11 m 347 65 q 400 72 374 65 q 449 92 426 78 q 487 128 471 107 q 513 174 503 149 q 526 225 522 199 q 529 278 529 251 l 529 444 q 526 497 529 471 q 513 549 522 524 q 487 594 503 574 q 449 630 471 615 q 400 651 426 644 q 347 657 374 657 q 294 651 321 657 q 246 630 268 644 q 208 594 224 615 q 182 549 192 574 q 169 497 172 524 q 165 444 165 471 l 165 278 q 169 225 165 251 q 182 174 172 199 q 208 128 192 149 q 246 92 224 107 q 294 72 268 78 q 347 65 321 65 m 486 858 q 457 863 471 858 q 433 877 443 867 q 418 901 422 888 q 414 931 414 915 q 418 960 414 946 q 433 984 422 974 q 457 999 443 994 q 486 1003 471 1003 q 515 999 501 1003 q 540 984 529 994 q 554 960 550 974 q 558 931 558 946 q 554 901 558 915 q 540 877 550 888 q 515 863 529 867 q 486 858 501 858 m 208 858 q 179 863 193 858 q 155 877 165 867 q 140 901 144 888 q 136 931 136 915 q 140 960 136 946 q 155 984 144 974 q 179 999 165 994 q 208 1003 193 1003 q 238 999 224 1003 q 262 984 251 994 q 276 960 272 974 q 281 931 281 946 q 276 901 281 915 q 262 877 272 888 q 238 863 251 867 q 208 858 224 858 z "},"":{"ha":694,"x_min":92,"x_max":603,"o":"m 347 646 q 315 651 331 646 q 287 667 299 656 q 270 695 275 679 q 265 728 265 711 q 270 760 265 744 q 287 788 275 776 q 315 805 299 800 q 347 810 331 810 q 380 805 364 810 q 408 788 396 800 q 424 760 419 776 q 429 728 429 744 q 424 695 429 711 q 408 667 419 679 q 380 651 396 656 q 347 646 364 646 m 603 435 l 92 435 l 92 510 l 603 510 l 603 435 m 347 135 q 315 140 331 135 q 287 156 299 144 q 270 184 275 168 q 265 217 265 200 q 270 249 265 233 q 287 277 275 265 q 315 294 299 289 q 347 299 331 299 q 380 294 364 299 q 408 277 396 289 q 424 249 419 265 q 429 217 429 233 q 424 184 429 200 q 408 156 419 168 q 380 140 396 144 q 347 135 364 135 z "},"":{"ha":694,"x_min":81,"x_max":614,"o":"m 149 -54 l 82 -18 l 139 79 q 111 124 122 100 q 92 173 100 147 q 83 225 85 199 q 81 278 81 251 l 81 444 q 86 519 81 482 q 107 590 92 556 q 147 653 122 624 q 203 700 171 682 q 273 726 236 718 q 347 733 310 733 q 426 725 386 733 q 499 696 465 717 l 546 776 l 613 740 l 556 643 q 583 599 572 622 q 602 549 594 575 q 612 497 610 524 q 614 444 614 471 l 614 278 q 608 203 614 240 q 588 133 603 167 q 548 69 572 99 q 491 22 524 40 q 422 -3 458 4 q 347 -11 385 -11 q 269 -3 308 -11 q 196 26 229 6 l 149 -54 m 188 161 l 457 624 q 405 649 433 642 q 347 657 376 657 q 294 651 321 657 q 246 630 268 644 q 208 594 224 615 q 182 549 192 574 q 169 497 172 524 q 165 444 165 471 l 165 278 q 170 218 165 247 q 188 161 175 189 m 347 65 q 400 72 374 65 q 449 92 426 78 q 487 128 471 107 q 513 174 503 149 q 526 225 522 199 q 529 278 529 251 l 529 444 q 524 504 529 475 q 507 561 519 533 l 238 99 q 290 73 261 81 q 347 65 318 65 z "},"":{"ha":694,"x_min":92,"x_max":603,"o":"m 315 -11 q 247 -2 281 -11 q 187 28 214 7 q 140 79 160 50 q 110 142 121 108 q 96 209 100 175 q 92 278 92 243 l 92 722 l 176 722 l 176 278 q 179 226 176 251 q 191 176 182 200 q 215 130 200 151 q 250 94 229 108 q 296 72 271 79 q 347 65 321 65 q 399 72 374 65 q 444 94 424 79 q 480 130 465 108 q 503 176 494 151 q 515 226 513 200 q 518 278 518 251 l 518 722 l 603 722 l 603 0 l 518 0 l 518 135 q 488 75 507 103 q 442 27 469 47 q 382 -2 415 7 q 315 -11 349 -11 m 360 813 l 192 1003 l 260 1053 l 414 854 l 360 813 z "},"":{"ha":694,"x_min":92,"x_max":603,"o":"m 315 -11 q 247 -2 281 -11 q 187 28 214 7 q 140 79 160 50 q 110 142 121 108 q 96 209 100 175 q 92 278 92 243 l 92 722 l 176 722 l 176 278 q 179 226 176 251 q 191 176 182 200 q 215 130 200 151 q 250 94 229 108 q 296 72 271 79 q 347 65 321 65 q 399 72 374 65 q 444 94 424 79 q 480 130 465 108 q 503 176 494 151 q 515 226 513 200 q 518 278 518 251 l 518 722 l 603 722 l 603 0 l 518 0 l 518 135 q 488 75 507 103 q 442 27 469 47 q 382 -2 415 7 q 315 -11 349 -11 m 335 813 l 281 854 l 435 1053 l 503 1003 l 335 813 z "},"":{"ha":694,"x_min":92,"x_max":603,"o":"m 315 -11 q 247 -2 281 -11 q 187 28 214 7 q 140 79 160 50 q 110 142 121 108 q 96 209 100 175 q 92 278 92 243 l 92 722 l 176 722 l 176 278 q 179 226 176 251 q 191 176 182 200 q 215 130 200 151 q 250 94 229 108 q 296 72 271 79 q 347 65 321 65 q 399 72 374 65 q 444 94 424 79 q 480 130 465 108 q 503 176 494 151 q 515 226 513 200 q 518 278 518 251 l 518 722 l 603 722 l 603 0 l 518 0 l 518 135 q 488 75 507 103 q 442 27 469 47 q 382 -2 415 7 q 315 -11 349 -11 m 217 821 l 160 860 l 294 1050 l 400 1050 l 535 860 l 478 821 l 347 985 l 217 821 z "},"":{"ha":694,"x_min":92,"x_max":603,"o":"m 315 -11 q 247 -2 281 -11 q 187 28 214 7 q 140 79 160 50 q 110 142 121 108 q 96 209 100 175 q 92 278 92 243 l 92 722 l 176 722 l 176 278 q 179 226 176 251 q 191 176 182 200 q 215 130 200 151 q 250 94 229 108 q 296 72 271 79 q 347 65 321 65 q 399 72 374 65 q 444 94 424 79 q 480 130 465 108 q 503 176 494 151 q 515 226 513 200 q 518 278 518 251 l 518 722 l 603 722 l 603 0 l 518 0 l 518 135 q 488 75 507 103 q 442 27 469 47 q 382 -2 415 7 q 315 -11 349 -11 m 486 858 q 457 863 471 858 q 433 877 443 867 q 418 901 422 888 q 414 931 414 915 q 418 960 414 946 q 433 984 422 974 q 457 999 443 994 q 486 1003 471 1003 q 515 999 501 1003 q 540 984 529 994 q 554 960 550 974 q 558 931 558 946 q 554 901 558 915 q 540 877 550 888 q 515 863 529 867 q 486 858 501 858 m 208 858 q 179 863 193 858 q 155 877 165 867 q 140 901 144 888 q 136 931 136 915 q 140 960 136 946 q 155 984 144 974 q 179 999 165 994 q 208 1003 193 1003 q 238 999 224 1003 q 262 984 251 994 q 276 960 272 974 q 281 931 281 946 q 276 901 281 915 q 262 877 272 888 q 238 863 251 867 q 208 858 224 858 z "},"":{"ha":694,"x_min":74,"x_max":621,"o":"m 222 -299 q 245 -224 233 -261 q 268 -150 257 -187 l 304 -32 l 74 722 l 161 722 l 347 88 l 533 722 l 621 722 l 310 -299 l 222 -299 m 335 813 l 281 854 l 435 1053 l 503 1003 l 335 813 z "},"":{"ha":694,"x_min":92,"x_max":614,"o":"m 92 -299 l 92 1021 l 176 1021 l 176 586 q 208 647 188 618 q 255 695 228 675 q 316 724 282 715 q 385 733 350 733 q 453 724 419 733 q 515 694 488 715 q 563 644 543 674 q 594 582 583 615 q 610 514 606 549 q 614 444 614 479 l 614 278 q 610 208 614 243 q 594 140 606 174 q 563 78 583 107 q 515 28 543 49 q 453 -2 488 7 q 385 -11 419 -11 q 316 -2 350 -11 q 255 27 282 7 q 208 76 228 47 q 176 136 188 104 l 176 -299 l 92 -299 m 353 65 q 405 72 379 65 q 452 92 431 78 q 489 128 474 107 q 513 175 504 150 q 526 226 522 200 q 529 278 529 251 l 529 444 q 526 497 529 471 q 513 547 522 522 q 489 594 504 572 q 452 630 474 615 q 405 651 431 644 q 353 657 379 657 q 301 651 326 657 q 253 630 275 644 q 217 594 232 615 q 192 547 201 572 q 180 497 183 522 q 176 444 176 471 l 176 278 q 180 226 176 251 q 192 175 183 200 q 217 128 201 150 q 253 92 232 107 q 301 72 275 78 q 353 65 326 65 z "},"":{"ha":694,"x_min":74,"x_max":621,"o":"m 222 -299 q 245 -224 233 -261 q 268 -150 257 -187 l 304 -32 l 74 722 l 161 722 l 347 88 l 533 722 l 621 722 l 310 -299 l 222 -299 m 486 858 q 457 863 471 858 q 433 877 443 867 q 418 901 422 888 q 414 931 414 915 q 418 960 414 946 q 433 984 422 974 q 457 999 443 994 q 486 1003 471 1003 q 515 999 501 1003 q 540 984 529 994 q 554 960 550 974 q 558 931 558 946 q 554 901 558 915 q 540 877 550 888 q 515 863 529 867 q 486 858 501 858 m 208 858 q 179 863 193 858 q 155 877 165 867 q 140 901 144 888 q 136 931 136 915 q 140 960 136 946 q 155 984 144 974 q 179 999 165 994 q 208 1003 193 1003 q 238 999 224 1003 q 262 984 251 994 q 276 960 272 974 q 281 931 281 946 q 276 901 281 915 q 262 877 272 888 q 238 863 251 867 q 208 858 224 858 z "},"":{"ha":694,"x_min":65,"x_max":629,"o":"m 65 0 l 299 1021 l 396 1021 l 629 0 l 542 0 l 479 285 l 215 285 l 153 0 l 65 0 m 463 361 l 392 681 q 369 785 381 733 q 347 890 358 838 q 325 785 336 838 q 303 681 314 733 l 232 361 l 463 361 m 139 1193 l 139 1265 l 556 1265 l 556 1193 l 139 1193 z "},"":{"ha":694,"x_min":81,"x_max":603,"o":"m 310 -11 q 222 0 265 -11 q 146 40 179 11 q 97 110 113 68 q 81 196 81 153 q 90 265 81 231 q 122 325 100 299 q 174 369 143 351 q 237 398 204 388 q 304 412 269 408 q 372 415 339 415 l 518 415 l 518 489 q 514 534 518 511 q 499 577 510 557 q 472 613 489 597 q 435 639 456 629 q 391 653 414 649 q 346 657 368 657 q 285 651 315 657 q 230 629 256 646 q 189 585 204 613 q 174 529 174 558 l 174 526 l 89 526 l 89 529 q 99 590 89 560 q 126 644 108 619 q 170 687 144 669 q 224 715 196 704 q 284 729 253 725 q 346 733 315 733 q 413 728 379 733 q 476 708 446 722 q 533 672 507 694 q 574 619 558 649 q 597 556 590 589 q 603 489 603 522 l 603 0 l 518 0 l 518 122 q 485 65 506 92 q 436 21 464 39 q 376 -4 408 3 q 310 -11 343 -11 m 342 65 q 390 70 365 65 q 435 86 414 75 q 474 115 457 97 q 501 156 490 133 q 515 202 511 178 q 518 250 518 226 l 518 339 l 372 339 q 326 337 350 339 q 281 329 303 335 q 237 314 258 324 q 199 288 215 304 q 174 250 182 272 q 165 204 165 228 q 180 143 165 172 q 220 96 194 114 q 278 72 246 78 q 342 65 310 65 m 139 894 l 139 967 l 556 967 l 556 894 l 139 894 z "},"":{"ha":694,"x_min":65,"x_max":629,"o":"m 65 0 l 299 1021 l 396 1021 l 629 0 l 542 0 l 479 285 l 215 285 l 153 0 l 65 0 m 463 361 l 392 681 q 369 785 381 733 q 347 890 358 838 q 325 785 336 838 q 303 681 314 733 l 232 361 l 463 361 m 347 1132 q 267 1143 307 1132 q 198 1181 228 1154 q 155 1247 168 1208 q 142 1326 142 1286 l 219 1326 q 228 1277 219 1301 q 254 1235 236 1253 q 297 1211 272 1218 q 347 1204 322 1204 q 397 1211 372 1204 q 440 1235 422 1218 q 467 1277 458 1253 q 475 1326 475 1301 l 553 1326 q 540 1247 553 1286 q 497 1181 526 1208 q 427 1143 467 1154 q 347 1132 388 1132 z "},"":{"ha":694,"x_min":81,"x_max":603,"o":"m 310 -11 q 222 0 265 -11 q 146 40 179 11 q 97 110 113 68 q 81 196 81 153 q 90 265 81 231 q 122 325 100 299 q 174 369 143 351 q 237 398 204 388 q 304 412 269 408 q 372 415 339 415 l 518 415 l 518 489 q 514 534 518 511 q 499 577 510 557 q 472 613 489 597 q 435 639 456 629 q 391 653 414 649 q 346 657 368 657 q 285 651 315 657 q 230 629 256 646 q 189 585 204 613 q 174 529 174 558 l 174 526 l 89 526 l 89 529 q 99 590 89 560 q 126 644 108 619 q 170 687 144 669 q 224 715 196 704 q 284 729 253 725 q 346 733 315 733 q 413 728 379 733 q 476 708 446 722 q 533 672 507 694 q 574 619 558 649 q 597 556 590 589 q 603 489 603 522 l 603 0 l 518 0 l 518 122 q 485 65 506 92 q 436 21 464 39 q 376 -4 408 3 q 310 -11 343 -11 m 342 65 q 390 70 365 65 q 435 86 414 75 q 474 115 457 97 q 501 156 490 133 q 515 202 511 178 q 518 250 518 226 l 518 339 l 372 339 q 326 337 350 339 q 281 329 303 335 q 237 314 258 324 q 199 288 215 304 q 174 250 182 272 q 165 204 165 228 q 180 143 165 172 q 220 96 194 114 q 278 72 246 78 q 342 65 310 65 m 347 833 q 267 844 307 833 q 198 883 228 856 q 155 949 168 910 q 142 1028 142 988 l 219 1028 q 228 978 219 1003 q 254 937 236 954 q 297 913 272 919 q 347 906 322 906 q 397 913 372 906 q 440 937 422 919 q 467 978 458 954 q 475 1028 475 1003 l 553 1028 q 540 949 553 988 q 497 883 526 910 q 427 844 467 856 q 347 833 388 833 z "},"":{"ha":694,"x_min":65,"x_max":629,"o":"m 65 0 l 299 1021 l 396 1021 l 629 0 l 542 0 l 479 285 l 215 285 l 153 0 l 65 0 m 463 361 l 392 681 q 369 785 381 733 q 347 890 358 838 q 325 785 336 838 q 303 681 314 733 l 232 361 l 463 361 m 572 -310 q 517 -303 544 -310 q 466 -278 489 -296 q 431 -235 443 -261 q 419 -181 419 -208 q 436 -106 419 -142 q 479 -41 453 -69 q 537 10 506 -12 q 603 51 568 33 l 603 0 q 566 -35 583 -17 q 534 -76 549 -54 q 509 -121 519 -97 q 499 -169 499 -144 q 505 -199 499 -185 q 523 -222 511 -212 q 549 -234 535 -231 q 579 -237 564 -237 q 600 -236 590 -237 q 619 -232 610 -235 l 619 -304 q 597 -308 608 -307 q 572 -310 585 -310 z "},"":{"ha":694,"x_min":81,"x_max":619,"o":"m 310 -11 q 222 0 265 -11 q 146 40 179 11 q 97 110 113 68 q 81 196 81 153 q 90 265 81 231 q 122 325 100 299 q 174 369 143 351 q 237 398 204 388 q 304 412 269 408 q 372 415 339 415 l 518 415 l 518 489 q 514 534 518 511 q 499 577 510 557 q 472 613 489 597 q 435 639 456 629 q 391 653 414 649 q 346 657 368 657 q 285 651 315 657 q 230 629 256 646 q 189 585 204 613 q 174 529 174 558 l 174 526 l 89 526 l 89 529 q 99 590 89 560 q 126 644 108 619 q 170 687 144 669 q 224 715 196 704 q 284 729 253 725 q 346 733 315 733 q 413 728 379 733 q 476 708 446 722 q 533 672 507 694 q 574 619 558 649 q 597 556 590 589 q 603 489 603 522 l 603 0 l 518 0 l 518 122 q 485 65 506 92 q 436 21 464 39 q 376 -4 408 3 q 310 -11 343 -11 m 342 65 q 390 70 365 65 q 435 86 414 75 q 474 115 457 97 q 501 156 490 133 q 515 202 511 178 q 518 250 518 226 l 518 339 l 372 339 q 326 337 350 339 q 281 329 303 335 q 237 314 258 324 q 199 288 215 304 q 174 250 182 272 q 165 204 165 228 q 180 143 165 172 q 220 96 194 114 q 278 72 246 78 q 342 65 310 65 m 572 -310 q 517 -303 544 -310 q 466 -278 489 -296 q 431 -235 443 -261 q 419 -181 419 -208 q 436 -106 419 -142 q 479 -41 453 -69 q 537 10 506 -12 q 603 51 568 33 l 603 0 q 566 -35 583 -17 q 534 -76 549 -54 q 509 -121 519 -97 q 499 -169 499 -144 q 505 -199 499 -185 q 523 -222 511 -212 q 549 -234 535 -231 q 579 -237 564 -237 q 600 -236 590 -237 q 619 -232 610 -235 l 619 -304 q 597 -308 608 -307 q 572 -310 585 -310 z "},"":{"ha":694,"x_min":81,"x_max":606,"o":"m 343 -11 q 271 -4 307 -11 q 203 21 235 3 q 147 67 171 39 q 107 128 122 94 q 86 198 92 161 q 81 271 81 235 l 81 750 q 86 823 81 786 q 107 893 92 860 q 147 954 122 926 q 203 1000 171 982 q 271 1025 235 1018 q 343 1032 307 1032 q 411 1026 378 1032 q 475 1006 444 1021 q 531 968 506 992 q 574 915 557 944 q 598 851 590 885 q 606 783 606 818 l 606 776 l 521 776 l 521 782 q 509 851 521 817 q 472 910 497 885 q 413 945 447 935 q 343 956 378 956 q 292 950 318 956 q 245 931 267 944 q 208 896 224 917 q 182 851 192 875 q 169 801 172 826 q 165 750 165 776 l 165 271 q 169 219 165 244 q 182 170 172 194 q 208 125 192 146 q 245 90 224 104 q 292 71 267 76 q 343 65 318 65 q 413 76 378 65 q 472 111 447 86 q 509 170 497 136 q 521 239 521 204 l 521 244 l 606 244 l 606 238 q 598 169 606 203 q 574 106 590 136 q 531 53 557 76 q 475 15 506 29 q 411 -6 444 0 q 343 -11 378 -11 m 335 1111 l 281 1153 l 435 1351 l 503 1301 l 335 1111 z "},"":{"ha":694,"x_min":81,"x_max":606,"o":"m 343 -11 q 270 -3 307 -11 q 201 23 233 4 q 145 70 169 42 q 106 133 121 99 q 86 203 92 167 q 81 278 81 240 l 81 444 q 86 519 81 482 q 106 590 92 556 q 145 652 121 624 q 201 699 169 681 q 270 726 233 718 q 343 733 307 733 q 411 728 378 733 q 476 707 444 722 q 532 668 507 692 q 574 615 557 644 q 598 551 590 585 q 606 483 606 518 l 606 478 l 521 478 l 521 482 q 509 552 521 518 q 472 610 497 586 q 413 646 447 635 q 343 657 379 657 q 291 651 317 657 q 244 630 265 644 q 206 594 222 615 q 181 548 190 572 q 169 497 172 524 q 165 444 165 471 l 165 278 q 169 225 165 251 q 181 174 172 199 q 206 128 190 150 q 244 92 222 107 q 291 72 265 78 q 343 65 317 65 q 413 76 379 65 q 472 112 447 88 q 509 170 497 136 q 521 240 521 204 l 521 244 l 606 244 l 606 239 q 598 171 606 204 q 574 108 590 138 q 532 54 557 78 q 476 15 507 31 q 411 -6 444 0 q 343 -11 378 -11 m 335 813 l 281 854 l 435 1053 l 503 1003 l 335 813 z "},"":{"ha":694,"x_min":81,"x_max":606,"o":"m 343 -11 q 271 -4 307 -11 q 203 21 235 3 q 147 67 171 39 q 107 128 122 94 q 86 198 92 161 q 81 271 81 235 l 81 750 q 86 823 81 786 q 107 893 92 860 q 147 954 122 926 q 203 1000 171 982 q 271 1025 235 1018 q 343 1032 307 1032 q 411 1026 378 1032 q 475 1006 444 1021 q 531 968 506 992 q 574 915 557 944 q 598 851 590 885 q 606 783 606 818 l 606 776 l 521 776 l 521 782 q 509 851 521 817 q 472 910 497 885 q 413 945 447 935 q 343 956 378 956 q 292 950 318 956 q 245 931 267 944 q 208 896 224 917 q 182 851 192 875 q 169 801 172 826 q 165 750 165 776 l 165 271 q 169 219 165 244 q 182 170 172 194 q 208 125 192 146 q 245 90 224 104 q 292 71 267 76 q 343 65 318 65 q 413 76 378 65 q 472 111 447 86 q 509 170 497 136 q 521 239 521 204 l 521 244 l 606 244 l 606 238 q 598 169 606 203 q 574 106 590 136 q 531 53 557 76 q 475 15 506 29 q 411 -6 444 0 q 343 -11 378 -11 m 217 1119 l 160 1158 l 294 1349 l 400 1349 l 535 1158 l 478 1119 l 347 1283 l 217 1119 z "},"":{"ha":694,"x_min":81,"x_max":606,"o":"m 343 -11 q 270 -3 307 -11 q 201 23 233 4 q 145 70 169 42 q 106 133 121 99 q 86 203 92 167 q 81 278 81 240 l 81 444 q 86 519 81 482 q 106 590 92 556 q 145 652 121 624 q 201 699 169 681 q 270 726 233 718 q 343 733 307 733 q 411 728 378 733 q 476 707 444 722 q 532 668 507 692 q 574 615 557 644 q 598 551 590 585 q 606 483 606 518 l 606 478 l 521 478 l 521 482 q 509 552 521 518 q 472 610 497 586 q 413 646 447 635 q 343 657 379 657 q 291 651 317 657 q 244 630 265 644 q 206 594 222 615 q 181 548 190 572 q 169 497 172 524 q 165 444 165 471 l 165 278 q 169 225 165 251 q 181 174 172 199 q 206 128 190 150 q 244 92 222 107 q 291 72 265 78 q 343 65 317 65 q 413 76 379 65 q 472 112 447 88 q 509 170 497 136 q 521 240 521 204 l 521 244 l 606 244 l 606 239 q 598 171 606 204 q 574 108 590 138 q 532 54 557 78 q 476 15 507 31 q 411 -6 444 0 q 343 -11 378 -11 m 217 821 l 160 860 l 294 1050 l 400 1050 l 535 860 l 478 821 l 347 985 l 217 821 z "},"":{"ha":694,"x_min":81,"x_max":606,"o":"m 343 -11 q 271 -4 307 -11 q 203 21 235 3 q 147 67 171 39 q 107 128 122 94 q 86 198 92 161 q 81 271 81 235 l 81 750 q 86 823 81 786 q 107 893 92 860 q 147 954 122 926 q 203 1000 171 982 q 271 1025 235 1018 q 343 1032 307 1032 q 411 1026 378 1032 q 475 1006 444 1021 q 531 968 506 992 q 574 915 557 944 q 598 851 590 885 q 606 783 606 818 l 606 776 l 521 776 l 521 782 q 509 851 521 817 q 472 910 497 885 q 413 945 447 935 q 343 956 378 956 q 292 950 318 956 q 245 931 267 944 q 208 896 224 917 q 182 851 192 875 q 169 801 172 826 q 165 750 165 776 l 165 271 q 169 219 165 244 q 182 170 172 194 q 208 125 192 146 q 245 90 224 104 q 292 71 267 76 q 343 65 318 65 q 413 76 378 65 q 472 111 447 86 q 509 170 497 136 q 521 239 521 204 l 521 244 l 606 244 l 606 238 q 598 169 606 203 q 574 106 590 136 q 531 53 557 76 q 475 15 506 29 q 411 -6 444 0 q 343 -11 378 -11 m 347 1157 q 318 1161 332 1157 q 294 1176 304 1165 q 279 1200 283 1186 q 275 1229 275 1214 q 279 1258 275 1244 q 294 1283 283 1272 q 318 1297 304 1293 q 347 1301 332 1301 q 376 1297 363 1301 q 401 1283 390 1293 q 415 1258 411 1272 q 419 1229 419 1244 q 415 1200 419 1214 q 401 1176 411 1186 q 376 1161 390 1165 q 347 1157 363 1157 z "},"":{"ha":694,"x_min":81,"x_max":606,"o":"m 343 -11 q 270 -3 307 -11 q 201 23 233 4 q 145 70 169 42 q 106 133 121 99 q 86 203 92 167 q 81 278 81 240 l 81 444 q 86 519 81 482 q 106 590 92 556 q 145 652 121 624 q 201 699 169 681 q 270 726 233 718 q 343 733 307 733 q 411 728 378 733 q 476 707 444 722 q 532 668 507 692 q 574 615 557 644 q 598 551 590 585 q 606 483 606 518 l 606 478 l 521 478 l 521 482 q 509 552 521 518 q 472 610 497 586 q 413 646 447 635 q 343 657 379 657 q 291 651 317 657 q 244 630 265 644 q 206 594 222 615 q 181 548 190 572 q 169 497 172 524 q 165 444 165 471 l 165 278 q 169 225 165 251 q 181 174 172 199 q 206 128 190 150 q 244 92 222 107 q 291 72 265 78 q 343 65 317 65 q 413 76 379 65 q 472 112 447 88 q 509 170 497 136 q 521 240 521 204 l 521 244 l 606 244 l 606 239 q 598 171 606 204 q 574 108 590 138 q 532 54 557 78 q 476 15 507 31 q 411 -6 444 0 q 343 -11 378 -11 m 347 858 q 318 863 332 858 q 294 877 304 867 q 279 901 283 888 q 275 931 275 915 q 279 960 275 946 q 294 984 283 974 q 318 999 304 994 q 347 1003 332 1003 q 376 999 363 1003 q 401 984 390 994 q 415 960 411 974 q 419 931 419 946 q 415 901 419 915 q 401 877 411 888 q 376 863 390 867 q 347 858 363 858 z "},"":{"ha":694,"x_min":81,"x_max":606,"o":"m 343 -11 q 271 -4 307 -11 q 203 21 235 3 q 147 67 171 39 q 107 128 122 94 q 86 198 92 161 q 81 271 81 235 l 81 750 q 86 823 81 786 q 107 893 92 860 q 147 954 122 926 q 203 1000 171 982 q 271 1025 235 1018 q 343 1032 307 1032 q 411 1026 378 1032 q 475 1006 444 1021 q 531 968 506 992 q 574 915 557 944 q 598 851 590 885 q 606 783 606 818 l 606 776 l 521 776 l 521 782 q 509 851 521 817 q 472 910 497 885 q 413 945 447 935 q 343 956 378 956 q 292 950 318 956 q 245 931 267 944 q 208 896 224 917 q 182 851 192 875 q 169 801 172 826 q 165 750 165 776 l 165 271 q 169 219 165 244 q 182 170 172 194 q 208 125 192 146 q 245 90 224 104 q 292 71 267 76 q 343 65 318 65 q 413 76 378 65 q 472 111 447 86 q 509 170 497 136 q 521 239 521 204 l 521 244 l 606 244 l 606 238 q 598 169 606 203 q 574 106 590 136 q 531 53 557 76 q 475 15 506 29 q 411 -6 444 0 q 343 -11 378 -11 m 294 1132 l 160 1322 l 217 1361 l 347 1197 l 478 1361 l 535 1322 l 400 1132 l 294 1132 z "},"":{"ha":694,"x_min":81,"x_max":606,"o":"m 343 -11 q 270 -3 307 -11 q 201 23 233 4 q 145 70 169 42 q 106 133 121 99 q 86 203 92 167 q 81 278 81 240 l 81 444 q 86 519 81 482 q 106 590 92 556 q 145 652 121 624 q 201 699 169 681 q 270 726 233 718 q 343 733 307 733 q 411 728 378 733 q 476 707 444 722 q 532 668 507 692 q 574 615 557 644 q 598 551 590 585 q 606 483 606 518 l 606 478 l 521 478 l 521 482 q 509 552 521 518 q 472 610 497 586 q 413 646 447 635 q 343 657 379 657 q 291 651 317 657 q 244 630 265 644 q 206 594 222 615 q 181 548 190 572 q 169 497 172 524 q 165 444 165 471 l 165 278 q 169 225 165 251 q 181 174 172 199 q 206 128 190 150 q 244 92 222 107 q 291 72 265 78 q 343 65 317 65 q 413 76 379 65 q 472 112 447 88 q 509 170 497 136 q 521 240 521 204 l 521 244 l 606 244 l 606 239 q 598 171 606 204 q 574 108 590 138 q 532 54 557 78 q 476 15 507 31 q 411 -6 444 0 q 343 -11 378 -11 m 294 833 l 160 1024 l 217 1063 l 347 899 l 478 1063 l 535 1024 l 400 833 l 294 833 z "},"":{"ha":694,"x_min":92,"x_max":614,"o":"m 306 0 l 92 0 l 92 1021 l 306 1021 q 386 1014 346 1021 q 463 990 426 1007 q 531 944 500 972 q 580 881 561 917 q 606 804 599 844 q 614 724 614 764 l 614 299 q 606 217 614 257 q 580 140 599 176 q 531 76 561 104 q 463 31 500 49 q 386 7 426 14 q 306 0 346 0 m 176 76 l 304 76 q 365 82 335 76 q 422 100 394 88 q 470 134 449 113 q 506 182 492 156 q 524 238 519 208 q 529 299 529 268 l 529 724 q 524 783 529 753 q 506 839 519 813 q 470 887 492 865 q 422 921 449 908 q 365 939 394 933 q 304 944 335 944 l 176 944 l 176 76 m 294 1132 l 160 1322 l 217 1361 l 347 1197 l 478 1361 l 535 1322 l 400 1132 l 294 1132 z "},"":{"ha":694,"x_min":81,"x_max":714,"o":"m 643 797 l 594 836 q 626 885 614 858 q 643 940 638 911 q 624 946 633 942 q 608 958 614 950 q 599 976 601 967 q 596 997 596 986 q 599 1020 596 1008 q 611 1040 603 1032 q 631 1052 619 1049 q 654 1056 643 1056 q 677 1052 665 1056 q 697 1040 689 1049 q 709 1020 706 1032 q 713 997 713 1008 q 695 890 713 943 q 643 797 678 838 m 293 -11 q 228 -2 260 -11 q 170 27 196 7 q 126 75 144 47 q 98 134 108 103 q 84 198 88 165 q 81 264 81 231 l 81 458 q 84 524 81 492 q 98 588 88 557 q 126 647 108 618 q 170 695 144 675 q 228 724 196 715 q 293 733 260 733 q 355 725 324 733 q 411 698 386 717 q 454 653 436 679 q 483 597 472 628 l 483 1021 l 568 1021 l 568 0 l 483 0 l 483 125 q 454 69 472 94 q 411 24 436 43 q 355 -3 386 6 q 293 -11 324 -11 m 324 65 q 372 72 349 65 q 415 92 396 78 q 449 126 435 106 q 470 169 463 147 q 481 216 478 192 q 483 264 483 240 l 483 458 q 481 506 483 482 q 470 553 478 531 q 449 596 463 575 q 415 631 435 617 q 372 651 396 644 q 325 657 349 657 q 276 651 300 657 q 233 631 253 644 q 200 596 214 617 q 178 553 186 575 q 168 506 171 531 q 165 458 165 482 l 165 264 q 168 216 165 240 q 178 169 171 192 q 200 126 186 147 q 233 92 214 106 q 276 72 253 78 q 324 65 300 65 z "},"":{"ha":694,"x_min":21,"x_max":614,"o":"m 306 0 l 92 0 l 92 475 l 21 475 l 21 546 l 92 546 l 92 1021 l 306 1021 q 386 1014 346 1021 q 463 990 426 1007 q 531 944 500 972 q 580 881 561 917 q 606 804 599 844 q 614 724 614 764 l 614 299 q 606 217 614 257 q 580 140 599 176 q 531 76 561 104 q 463 31 500 49 q 386 7 426 14 q 306 0 346 0 m 176 76 l 304 76 q 365 82 335 76 q 422 100 394 88 q 470 134 449 113 q 506 182 492 156 q 524 238 519 208 q 529 299 529 268 l 529 724 q 524 783 529 753 q 506 839 519 813 q 470 887 492 865 q 422 921 449 908 q 365 939 394 933 q 304 944 335 944 l 176 944 l 176 546 l 328 546 l 328 475 l 176 475 l 176 76 z "},"":{"ha":694,"x_min":81,"x_max":674,"o":"m 310 -11 q 241 -2 275 -11 q 179 28 207 7 q 131 78 151 49 q 100 140 111 107 q 85 208 89 174 q 81 278 81 243 l 81 444 q 85 514 81 479 q 100 582 89 549 q 131 644 111 615 q 179 694 151 674 q 241 724 207 715 q 310 733 275 733 q 378 724 344 733 q 440 695 413 715 q 487 647 467 675 q 518 586 507 618 l 518 836 l 364 836 l 364 907 l 518 907 l 518 1021 l 603 1021 l 603 907 l 674 907 l 674 836 l 603 836 l 603 0 l 518 0 l 518 136 q 487 76 507 104 q 440 27 467 47 q 378 -2 413 7 q 310 -11 344 -11 m 342 65 q 394 72 368 65 q 441 92 419 78 q 478 128 463 107 q 502 175 493 150 q 515 226 511 200 q 518 278 518 251 l 518 444 q 515 497 518 471 q 502 547 511 522 q 478 594 493 572 q 441 630 463 615 q 394 651 419 644 q 342 657 368 657 q 290 651 315 657 q 242 630 264 644 q 206 594 221 615 q 181 547 190 572 q 169 497 172 522 q 165 444 165 471 l 165 278 q 169 226 165 251 q 181 175 172 200 q 206 128 190 150 q 242 92 221 107 q 290 72 264 78 q 342 65 315 65 z "},"":{"ha":694,"x_min":103,"x_max":603,"o":"m 103 0 l 103 1021 l 603 1021 l 603 944 l 188 944 l 188 569 l 526 569 l 526 493 l 188 493 l 188 76 l 603 76 l 603 0 l 103 0 m 139 1193 l 139 1265 l 556 1265 l 556 1193 l 139 1193 z "},"":{"ha":694,"x_min":81,"x_max":614,"o":"m 347 -11 q 273 -3 310 -11 q 204 22 236 4 q 147 69 172 40 q 107 133 122 99 q 86 203 92 167 q 81 278 81 240 l 81 444 q 86 519 81 482 q 107 590 92 556 q 147 653 122 624 q 203 700 171 682 q 273 726 236 718 q 347 733 310 733 q 422 726 385 733 q 491 700 458 718 q 548 653 524 682 q 588 590 572 624 q 608 519 603 556 q 614 444 614 482 l 614 322 l 165 322 l 165 278 q 169 225 165 251 q 182 174 172 199 q 208 128 192 149 q 246 92 224 107 q 294 72 268 78 q 347 65 321 65 q 409 72 378 65 q 467 94 440 78 q 510 137 493 110 q 526 196 526 164 l 611 196 q 600 134 610 164 q 572 79 590 104 q 526 36 553 54 q 471 8 500 18 q 410 -7 442 -3 q 347 -11 379 -11 m 165 400 l 529 400 l 529 444 q 526 497 529 471 q 513 549 522 524 q 487 594 503 574 q 449 630 471 615 q 400 651 426 644 q 347 657 374 657 q 294 651 321 657 q 246 630 268 644 q 208 594 224 615 q 182 549 192 574 q 169 497 172 524 q 165 444 165 471 l 165 400 m 139 894 l 139 967 l 556 967 l 556 894 l 139 894 z "},"":{"ha":694,"x_min":103,"x_max":603,"o":"m 103 0 l 103 1021 l 603 1021 l 603 944 l 188 944 l 188 569 l 526 569 l 526 493 l 188 493 l 188 76 l 603 76 l 603 0 l 103 0 m 347 1132 q 267 1143 307 1132 q 198 1181 228 1154 q 155 1247 168 1208 q 142 1326 142 1286 l 219 1326 q 228 1277 219 1301 q 254 1235 236 1253 q 297 1211 272 1218 q 347 1204 322 1204 q 397 1211 372 1204 q 440 1235 422 1218 q 467 1277 458 1253 q 475 1326 475 1301 l 553 1326 q 540 1247 553 1286 q 497 1181 526 1208 q 427 1143 467 1154 q 347 1132 388 1132 z "},"":{"ha":694,"x_min":81,"x_max":614,"o":"m 347 -11 q 273 -3 310 -11 q 204 22 236 4 q 147 69 172 40 q 107 133 122 99 q 86 203 92 167 q 81 278 81 240 l 81 444 q 86 519 81 482 q 107 590 92 556 q 147 653 122 624 q 203 700 171 682 q 273 726 236 718 q 347 733 310 733 q 422 726 385 733 q 491 700 458 718 q 548 653 524 682 q 588 590 572 624 q 608 519 603 556 q 614 444 614 482 l 614 322 l 165 322 l 165 278 q 169 225 165 251 q 182 174 172 199 q 208 128 192 149 q 246 92 224 107 q 294 72 268 78 q 347 65 321 65 q 409 72 378 65 q 467 94 440 78 q 510 137 493 110 q 526 196 526 164 l 611 196 q 600 134 610 164 q 572 79 590 104 q 526 36 553 54 q 471 8 500 18 q 410 -7 442 -3 q 347 -11 379 -11 m 165 400 l 529 400 l 529 444 q 526 497 529 471 q 513 549 522 524 q 487 594 503 574 q 449 630 471 615 q 400 651 426 644 q 347 657 374 657 q 294 651 321 657 q 246 630 268 644 q 208 594 224 615 q 182 549 192 574 q 169 497 172 524 q 165 444 165 471 l 165 400 m 347 833 q 267 844 307 833 q 198 883 228 856 q 155 949 168 910 q 142 1028 142 988 l 219 1028 q 228 978 219 1003 q 254 937 236 954 q 297 913 272 919 q 347 906 322 906 q 397 913 372 906 q 440 937 422 919 q 467 978 458 954 q 475 1028 475 1003 l 553 1028 q 540 949 553 988 q 497 883 526 910 q 427 844 467 856 q 347 833 388 833 z "},"":{"ha":694,"x_min":103,"x_max":603,"o":"m 103 0 l 103 1021 l 603 1021 l 603 944 l 188 944 l 188 569 l 526 569 l 526 493 l 188 493 l 188 76 l 603 76 l 603 0 l 103 0 m 347 1157 q 318 1161 332 1157 q 294 1176 304 1165 q 279 1200 283 1186 q 275 1229 275 1214 q 279 1258 275 1244 q 294 1283 283 1272 q 318 1297 304 1293 q 347 1301 332 1301 q 376 1297 363 1301 q 401 1283 390 1293 q 415 1258 411 1272 q 419 1229 419 1244 q 415 1200 419 1214 q 401 1176 411 1186 q 376 1161 390 1165 q 347 1157 363 1157 z "},"":{"ha":694,"x_min":81,"x_max":614,"o":"m 347 -11 q 273 -3 310 -11 q 204 22 236 4 q 147 69 172 40 q 107 133 122 99 q 86 203 92 167 q 81 278 81 240 l 81 444 q 86 519 81 482 q 107 590 92 556 q 147 653 122 624 q 203 700 171 682 q 273 726 236 718 q 347 733 310 733 q 422 726 385 733 q 491 700 458 718 q 548 653 524 682 q 588 590 572 624 q 608 519 603 556 q 614 444 614 482 l 614 322 l 165 322 l 165 278 q 169 225 165 251 q 182 174 172 199 q 208 128 192 149 q 246 92 224 107 q 294 72 268 78 q 347 65 321 65 q 409 72 378 65 q 467 94 440 78 q 510 137 493 110 q 526 196 526 164 l 611 196 q 600 134 610 164 q 572 79 590 104 q 526 36 553 54 q 471 8 500 18 q 410 -7 442 -3 q 347 -11 379 -11 m 165 400 l 529 400 l 529 444 q 526 497 529 471 q 513 549 522 524 q 487 594 503 574 q 449 630 471 615 q 400 651 426 644 q 347 657 374 657 q 294 651 321 657 q 246 630 268 644 q 208 594 224 615 q 182 549 192 574 q 169 497 172 524 q 165 444 165 471 l 165 400 m 347 858 q 318 863 332 858 q 294 877 304 867 q 279 901 283 888 q 275 931 275 915 q 279 960 275 946 q 294 984 283 974 q 318 999 304 994 q 347 1003 332 1003 q 376 999 363 1003 q 401 984 390 994 q 415 960 411 974 q 419 931 419 946 q 415 901 419 915 q 401 877 411 888 q 376 863 390 867 q 347 858 363 858 z "},"":{"ha":694,"x_min":103,"x_max":619,"o":"m 103 0 l 103 1021 l 603 1021 l 603 944 l 188 944 l 188 569 l 526 569 l 526 493 l 188 493 l 188 76 l 603 76 l 603 0 l 103 0 m 572 -310 q 517 -303 544 -310 q 466 -278 489 -296 q 431 -235 443 -261 q 419 -181 419 -208 q 436 -106 419 -142 q 479 -41 453 -69 q 537 10 506 -12 q 603 51 568 33 l 603 0 q 566 -35 583 -17 q 534 -76 549 -54 q 509 -121 519 -97 q 499 -169 499 -144 q 505 -199 499 -185 q 523 -222 511 -212 q 549 -234 535 -231 q 579 -237 564 -237 q 600 -236 590 -237 q 619 -232 610 -235 l 619 -304 q 597 -308 608 -307 q 572 -310 585 -310 z "},"":{"ha":694,"x_min":81,"x_max":614,"o":"m 561 -310 q 508 -302 535 -310 q 459 -277 481 -294 q 426 -234 438 -260 q 415 -181 415 -208 q 424 -124 415 -151 q 447 -72 433 -97 q 477 -24 461 -47 q 508 25 493 0 q 431 -3 472 4 q 347 -11 389 -11 q 273 -3 310 -11 q 204 22 236 4 q 147 69 172 40 q 107 133 122 99 q 86 203 92 167 q 81 278 81 240 l 81 444 q 86 519 81 482 q 107 590 92 556 q 147 653 122 624 q 203 700 171 682 q 273 726 236 718 q 347 733 310 733 q 422 726 385 733 q 491 700 458 718 q 548 653 524 682 q 588 590 572 624 q 608 519 603 556 q 614 444 614 482 l 614 322 l 165 322 l 165 278 q 169 225 165 251 q 182 174 172 199 q 208 128 192 149 q 246 92 224 107 q 294 72 268 78 q 347 65 321 65 q 409 72 378 65 q 467 94 440 78 q 510 137 493 110 q 526 196 526 164 l 611 196 q 608 147 611 171 q 599 99 606 122 q 585 53 593 75 q 566 8 576 31 q 544 -35 556 -14 q 523 -78 533 -57 q 503 -123 513 -100 q 493 -169 493 -146 q 499 -199 493 -185 q 517 -222 506 -212 q 544 -234 529 -231 q 572 -237 558 -237 q 592 -236 582 -237 q 611 -232 601 -235 l 611 -304 q 586 -308 599 -307 q 561 -310 574 -310 m 165 400 l 529 400 l 529 444 q 526 497 529 471 q 513 549 522 524 q 487 594 503 574 q 449 630 471 615 q 400 651 426 644 q 347 657 374 657 q 294 651 321 657 q 246 630 268 644 q 208 594 224 615 q 182 549 192 574 q 169 497 172 524 q 165 444 165 471 l 165 400 z "},"":{"ha":694,"x_min":103,"x_max":603,"o":"m 103 0 l 103 1021 l 603 1021 l 603 944 l 188 944 l 188 569 l 526 569 l 526 493 l 188 493 l 188 76 l 603 76 l 603 0 l 103 0 m 294 1132 l 160 1322 l 217 1361 l 347 1197 l 478 1361 l 535 1322 l 400 1132 l 294 1132 z "},"":{"ha":694,"x_min":81,"x_max":614,"o":"m 347 -11 q 273 -3 310 -11 q 204 22 236 4 q 147 69 172 40 q 107 133 122 99 q 86 203 92 167 q 81 278 81 240 l 81 444 q 86 519 81 482 q 107 590 92 556 q 147 653 122 624 q 203 700 171 682 q 273 726 236 718 q 347 733 310 733 q 422 726 385 733 q 491 700 458 718 q 548 653 524 682 q 588 590 572 624 q 608 519 603 556 q 614 444 614 482 l 614 322 l 165 322 l 165 278 q 169 225 165 251 q 182 174 172 199 q 208 128 192 149 q 246 92 224 107 q 294 72 268 78 q 347 65 321 65 q 409 72 378 65 q 467 94 440 78 q 510 137 493 110 q 526 196 526 164 l 611 196 q 600 134 610 164 q 572 79 590 104 q 526 36 553 54 q 471 8 500 18 q 410 -7 442 -3 q 347 -11 379 -11 m 165 400 l 529 400 l 529 444 q 526 497 529 471 q 513 549 522 524 q 487 594 503 574 q 449 630 471 615 q 400 651 426 644 q 347 657 374 657 q 294 651 321 657 q 246 630 268 644 q 208 594 224 615 q 182 549 192 574 q 169 497 172 524 q 165 444 165 471 l 165 400 m 294 833 l 160 1024 l 217 1063 l 347 899 l 478 1063 l 535 1024 l 400 833 l 294 833 z "},"":{"ha":694,"x_min":81,"x_max":606,"o":"m 310 -11 q 242 -3 276 -11 q 181 26 208 6 q 133 74 153 46 q 101 135 113 103 q 85 202 89 168 q 81 271 81 236 l 81 750 q 86 823 81 786 q 107 893 92 860 q 147 954 122 926 q 203 1000 171 982 q 271 1025 235 1018 q 343 1032 307 1032 q 411 1026 378 1032 q 475 1006 444 1021 q 531 968 506 992 q 574 915 557 944 q 598 851 590 885 q 606 783 606 818 l 606 776 l 521 776 l 521 782 q 509 851 521 817 q 472 910 497 885 q 413 945 447 935 q 343 956 378 956 q 292 950 318 956 q 245 931 267 944 q 208 896 224 917 q 182 851 192 875 q 169 801 172 826 q 165 750 165 776 l 165 271 q 169 220 165 246 q 181 170 172 194 q 206 126 190 146 q 244 92 222 106 q 291 72 265 78 q 342 65 317 65 q 392 72 367 65 q 440 92 418 78 q 477 126 461 106 q 502 170 493 146 q 515 219 511 194 q 518 271 518 244 l 518 474 l 347 474 l 347 550 l 603 550 l 603 0 l 529 0 l 529 167 q 501 95 519 129 q 453 36 482 61 q 386 0 424 11 q 310 -11 349 -11 m 217 1119 l 160 1158 l 294 1349 l 400 1349 l 535 1158 l 478 1119 l 347 1283 l 217 1119 z "},"":{"ha":694,"x_min":81,"x_max":603,"o":"m 343 -310 q 284 -306 314 -310 q 226 -293 254 -303 q 173 -267 199 -283 q 129 -227 147 -250 q 101 -176 111 -204 q 89 -117 90 -147 l 174 -117 q 192 -171 175 -146 q 233 -210 208 -196 q 287 -228 258 -224 q 343 -233 315 -233 q 395 -227 369 -233 q 442 -206 421 -221 q 479 -169 464 -190 q 503 -123 494 -147 q 515 -73 513 -99 q 518 -21 518 -47 l 518 136 q 487 76 507 104 q 440 27 467 47 q 378 -2 413 7 q 310 -11 344 -11 q 241 -2 275 -11 q 179 28 207 7 q 131 78 151 49 q 100 140 111 107 q 85 208 89 174 q 81 278 81 243 l 81 444 q 85 514 81 479 q 100 582 89 549 q 131 644 111 615 q 179 694 151 674 q 241 724 207 715 q 310 733 275 733 q 378 724 344 733 q 440 695 413 715 q 487 647 467 675 q 518 586 507 618 l 518 722 l 603 722 l 603 -21 q 597 -94 603 -57 q 578 -165 592 -131 q 540 -228 564 -199 q 485 -276 517 -257 q 417 -302 453 -294 q 343 -310 381 -310 m 342 65 q 394 72 368 65 q 441 92 419 78 q 478 128 463 107 q 502 175 493 150 q 515 226 511 200 q 518 278 518 251 l 518 444 q 515 497 518 471 q 502 547 511 522 q 478 594 493 572 q 441 630 463 615 q 394 651 419 644 q 342 657 368 657 q 290 651 315 657 q 242 630 264 644 q 206 594 221 615 q 181 547 190 572 q 169 497 172 522 q 165 444 165 471 l 165 278 q 169 226 165 251 q 181 175 172 200 q 206 128 190 150 q 242 92 221 107 q 290 72 264 78 q 342 65 315 65 m 217 821 l 160 860 l 294 1050 l 400 1050 l 535 860 l 478 821 l 347 985 l 217 821 z "},"":{"ha":694,"x_min":81,"x_max":606,"o":"m 310 -11 q 242 -3 276 -11 q 181 26 208 6 q 133 74 153 46 q 101 135 113 103 q 85 202 89 168 q 81 271 81 236 l 81 750 q 86 823 81 786 q 107 893 92 860 q 147 954 122 926 q 203 1000 171 982 q 271 1025 235 1018 q 343 1032 307 1032 q 411 1026 378 1032 q 475 1006 444 1021 q 531 968 506 992 q 574 915 557 944 q 598 851 590 885 q 606 783 606 818 l 606 776 l 521 776 l 521 782 q 509 851 521 817 q 472 910 497 885 q 413 945 447 935 q 343 956 378 956 q 292 950 318 956 q 245 931 267 944 q 208 896 224 917 q 182 851 192 875 q 169 801 172 826 q 165 750 165 776 l 165 271 q 169 220 165 246 q 181 170 172 194 q 206 126 190 146 q 244 92 222 106 q 291 72 265 78 q 342 65 317 65 q 392 72 367 65 q 440 92 418 78 q 477 126 461 106 q 502 170 493 146 q 515 219 511 194 q 518 271 518 244 l 518 474 l 347 474 l 347 550 l 603 550 l 603 0 l 529 0 l 529 167 q 501 95 519 129 q 453 36 482 61 q 386 0 424 11 q 310 -11 349 -11 m 347 1132 q 267 1143 307 1132 q 198 1181 228 1154 q 155 1247 168 1208 q 142 1326 142 1286 l 219 1326 q 228 1277 219 1301 q 254 1235 236 1253 q 297 1211 272 1218 q 347 1204 322 1204 q 397 1211 372 1204 q 440 1235 422 1218 q 467 1277 458 1253 q 475 1326 475 1301 l 553 1326 q 540 1247 553 1286 q 497 1181 526 1208 q 427 1143 467 1154 q 347 1132 388 1132 z "},"":{"ha":694,"x_min":81,"x_max":603,"o":"m 343 -310 q 284 -306 314 -310 q 226 -293 254 -303 q 173 -267 199 -283 q 129 -227 147 -250 q 101 -176 111 -204 q 89 -117 90 -147 l 174 -117 q 192 -171 175 -146 q 233 -210 208 -196 q 287 -228 258 -224 q 343 -233 315 -233 q 395 -227 369 -233 q 442 -206 421 -221 q 479 -169 464 -190 q 503 -123 494 -147 q 515 -73 513 -99 q 518 -21 518 -47 l 518 136 q 487 76 507 104 q 440 27 467 47 q 378 -2 413 7 q 310 -11 344 -11 q 241 -2 275 -11 q 179 28 207 7 q 131 78 151 49 q 100 140 111 107 q 85 208 89 174 q 81 278 81 243 l 81 444 q 85 514 81 479 q 100 582 89 549 q 131 644 111 615 q 179 694 151 674 q 241 724 207 715 q 310 733 275 733 q 378 724 344 733 q 440 695 413 715 q 487 647 467 675 q 518 586 507 618 l 518 722 l 603 722 l 603 -21 q 597 -94 603 -57 q 578 -165 592 -131 q 540 -228 564 -199 q 485 -276 517 -257 q 417 -302 453 -294 q 343 -310 381 -310 m 342 65 q 394 72 368 65 q 441 92 419 78 q 478 128 463 107 q 502 175 493 150 q 515 226 511 200 q 518 278 518 251 l 518 444 q 515 497 518 471 q 502 547 511 522 q 478 594 493 572 q 441 630 463 615 q 394 651 419 644 q 342 657 368 657 q 290 651 315 657 q 242 630 264 644 q 206 594 221 615 q 181 547 190 572 q 169 497 172 522 q 165 444 165 471 l 165 278 q 169 226 165 251 q 181 175 172 200 q 206 128 190 150 q 242 92 221 107 q 290 72 264 78 q 342 65 315 65 m 347 833 q 267 844 307 833 q 198 883 228 856 q 155 949 168 910 q 142 1028 142 988 l 219 1028 q 228 978 219 1003 q 254 937 236 954 q 297 913 272 919 q 347 906 322 906 q 397 913 372 906 q 440 937 422 919 q 467 978 458 954 q 475 1028 475 1003 l 553 1028 q 540 949 553 988 q 497 883 526 910 q 427 844 467 856 q 347 833 388 833 z "},"":{"ha":694,"x_min":81,"x_max":606,"o":"m 310 -11 q 242 -3 276 -11 q 181 26 208 6 q 133 74 153 46 q 101 135 113 103 q 85 202 89 168 q 81 271 81 236 l 81 750 q 86 823 81 786 q 107 893 92 860 q 147 954 122 926 q 203 1000 171 982 q 271 1025 235 1018 q 343 1032 307 1032 q 411 1026 378 1032 q 475 1006 444 1021 q 531 968 506 992 q 574 915 557 944 q 598 851 590 885 q 606 783 606 818 l 606 776 l 521 776 l 521 782 q 509 851 521 817 q 472 910 497 885 q 413 945 447 935 q 343 956 378 956 q 292 950 318 956 q 245 931 267 944 q 208 896 224 917 q 182 851 192 875 q 169 801 172 826 q 165 750 165 776 l 165 271 q 169 220 165 246 q 181 170 172 194 q 206 126 190 146 q 244 92 222 106 q 291 72 265 78 q 342 65 317 65 q 392 72 367 65 q 440 92 418 78 q 477 126 461 106 q 502 170 493 146 q 515 219 511 194 q 518 271 518 244 l 518 474 l 347 474 l 347 550 l 603 550 l 603 0 l 529 0 l 529 167 q 501 95 519 129 q 453 36 482 61 q 386 0 424 11 q 310 -11 349 -11 m 347 1157 q 318 1161 332 1157 q 294 1176 304 1165 q 279 1200 283 1186 q 275 1229 275 1214 q 279 1258 275 1244 q 294 1283 283 1272 q 318 1297 304 1293 q 347 1301 332 1301 q 376 1297 363 1301 q 401 1283 390 1293 q 415 1258 411 1272 q 419 1229 419 1244 q 415 1200 419 1214 q 401 1176 411 1186 q 376 1161 390 1165 q 347 1157 363 1157 z "},"":{"ha":694,"x_min":81,"x_max":603,"o":"m 343 -310 q 284 -306 314 -310 q 226 -293 254 -303 q 173 -267 199 -283 q 129 -227 147 -250 q 101 -176 111 -204 q 89 -117 90 -147 l 174 -117 q 192 -171 175 -146 q 233 -210 208 -196 q 287 -228 258 -224 q 343 -233 315 -233 q 395 -227 369 -233 q 442 -206 421 -221 q 479 -169 464 -190 q 503 -123 494 -147 q 515 -73 513 -99 q 518 -21 518 -47 l 518 136 q 487 76 507 104 q 440 27 467 47 q 378 -2 413 7 q 310 -11 344 -11 q 241 -2 275 -11 q 179 28 207 7 q 131 78 151 49 q 100 140 111 107 q 85 208 89 174 q 81 278 81 243 l 81 444 q 85 514 81 479 q 100 582 89 549 q 131 644 111 615 q 179 694 151 674 q 241 724 207 715 q 310 733 275 733 q 378 724 344 733 q 440 695 413 715 q 487 647 467 675 q 518 586 507 618 l 518 722 l 603 722 l 603 -21 q 597 -94 603 -57 q 578 -165 592 -131 q 540 -228 564 -199 q 485 -276 517 -257 q 417 -302 453 -294 q 343 -310 381 -310 m 342 65 q 394 72 368 65 q 441 92 419 78 q 478 128 463 107 q 502 175 493 150 q 515 226 511 200 q 518 278 518 251 l 518 444 q 515 497 518 471 q 502 547 511 522 q 478 594 493 572 q 441 630 463 615 q 394 651 419 644 q 342 657 368 657 q 290 651 315 657 q 242 630 264 644 q 206 594 221 615 q 181 547 190 572 q 169 497 172 522 q 165 444 165 471 l 165 278 q 169 226 165 251 q 181 175 172 200 q 206 128 190 150 q 242 92 221 107 q 290 72 264 78 q 342 65 315 65 m 347 858 q 318 863 332 858 q 294 877 304 867 q 279 901 283 888 q 275 931 275 915 q 279 960 275 946 q 294 984 283 974 q 318 999 304 994 q 347 1003 332 1003 q 376 999 363 1003 q 401 984 390 994 q 415 960 411 974 q 419 931 419 946 q 415 901 419 915 q 401 877 411 888 q 376 863 390 867 q 347 858 363 858 z "},"":{"ha":694,"x_min":81,"x_max":606,"o":"m 310 -11 q 242 -3 276 -11 q 181 26 208 6 q 133 74 153 46 q 101 135 113 103 q 85 202 89 168 q 81 271 81 236 l 81 750 q 86 823 81 786 q 107 893 92 860 q 147 954 122 926 q 203 1000 171 982 q 271 1025 235 1018 q 343 1032 307 1032 q 411 1026 378 1032 q 475 1006 444 1021 q 531 968 506 992 q 574 915 557 944 q 598 851 590 885 q 606 783 606 818 l 606 776 l 521 776 l 521 782 q 509 851 521 817 q 472 910 497 885 q 413 945 447 935 q 343 956 378 956 q 292 950 318 956 q 245 931 267 944 q 208 896 224 917 q 182 851 192 875 q 169 801 172 826 q 165 750 165 776 l 165 271 q 169 220 165 246 q 181 170 172 194 q 206 126 190 146 q 244 92 222 106 q 291 72 265 78 q 342 65 317 65 q 392 72 367 65 q 440 92 418 78 q 477 126 461 106 q 502 170 493 146 q 515 219 511 194 q 518 271 518 244 l 518 474 l 347 474 l 347 550 l 603 550 l 603 0 l 529 0 l 529 167 q 501 95 519 129 q 453 36 482 61 q 386 0 424 11 q 310 -11 349 -11 m 336 -332 l 288 -294 q 319 -245 307 -272 q 336 -190 331 -218 q 317 -184 326 -189 q 301 -172 307 -179 q 292 -153 294 -164 q 289 -133 289 -143 q 292 -110 289 -121 q 304 -90 296 -99 q 324 -78 313 -82 q 347 -75 336 -75 q 370 -78 358 -75 q 390 -90 382 -82 q 402 -110 399 -99 q 406 -133 406 -121 q 388 -240 406 -187 q 336 -332 371 -292 z "},"":{"ha":694,"x_min":81,"x_max":603,"o":"m 343 -310 q 284 -306 314 -310 q 226 -293 254 -303 q 173 -267 199 -283 q 129 -227 147 -250 q 101 -176 111 -204 q 89 -117 90 -147 l 174 -117 q 192 -171 175 -146 q 233 -210 208 -196 q 287 -228 258 -224 q 343 -233 315 -233 q 395 -227 369 -233 q 442 -206 421 -221 q 479 -169 464 -190 q 503 -123 494 -147 q 515 -73 513 -99 q 518 -21 518 -47 l 518 136 q 487 76 507 104 q 440 27 467 47 q 378 -2 413 7 q 310 -11 344 -11 q 241 -2 275 -11 q 179 28 207 7 q 131 78 151 49 q 100 140 111 107 q 85 208 89 174 q 81 278 81 243 l 81 444 q 85 514 81 479 q 100 582 89 549 q 131 644 111 615 q 179 694 151 674 q 241 724 207 715 q 310 733 275 733 q 378 724 344 733 q 440 695 413 715 q 487 647 467 675 q 518 586 507 618 l 518 722 l 603 722 l 603 -21 q 597 -94 603 -57 q 578 -165 592 -131 q 540 -228 564 -199 q 485 -276 517 -257 q 417 -302 453 -294 q 343 -310 381 -310 m 342 65 q 394 72 368 65 q 441 92 419 78 q 478 128 463 107 q 502 175 493 150 q 515 226 511 200 q 518 278 518 251 l 518 444 q 515 497 518 471 q 502 547 511 522 q 478 594 493 572 q 441 630 463 615 q 394 651 419 644 q 342 657 368 657 q 290 651 315 657 q 242 630 264 644 q 206 594 221 615 q 181 547 190 572 q 169 497 172 522 q 165 444 165 471 l 165 278 q 169 226 165 251 q 181 175 172 200 q 206 128 190 150 q 242 92 221 107 q 290 72 264 78 q 342 65 315 65 m 347 797 q 324 801 336 797 q 304 813 313 804 q 292 832 296 821 q 289 856 289 843 q 306 962 289 910 q 358 1054 324 1014 l 407 1017 q 376 967 388 994 q 358 913 364 940 q 378 906 368 911 q 394 894 388 901 q 403 876 400 886 q 406 856 406 865 q 402 832 406 843 q 390 813 399 821 q 370 801 382 804 q 347 797 358 797 z "},"":{"ha":694,"x_min":92,"x_max":603,"o":"m 92 0 l 92 1021 l 176 1021 l 176 568 l 518 568 l 518 1021 l 603 1021 l 603 0 l 518 0 l 518 490 l 176 490 l 176 0 l 92 0 m 217 1119 l 160 1158 l 294 1349 l 400 1349 l 535 1158 l 478 1119 l 347 1283 l 217 1119 z "},"":{"ha":694,"x_min":-54,"x_max":603,"o":"m 92 0 l 92 1021 l 176 1021 l 176 588 q 206 647 188 619 q 252 695 225 675 q 313 724 279 715 q 379 733 346 733 q 447 724 414 733 q 508 694 481 715 q 554 643 535 672 q 584 581 574 614 q 599 513 594 547 q 603 444 603 479 l 603 0 l 518 0 l 518 444 q 515 497 518 471 q 503 547 513 522 q 480 592 494 571 q 444 628 465 614 q 399 650 424 643 q 347 657 374 657 q 296 650 321 657 q 250 628 271 643 q 215 592 229 614 q 191 547 200 571 q 179 497 182 522 q 176 444 176 471 l 176 0 l 92 0 m 3 1119 l -54 1158 l 81 1349 l 186 1349 l 321 1158 l 264 1119 l 133 1283 l 3 1119 z "},"":{"ha":694,"x_min":28,"x_max":667,"o":"m 92 0 l 92 758 l 28 758 l 28 829 l 92 829 l 92 1021 l 176 1021 l 176 829 l 518 829 l 518 1021 l 603 1021 l 603 829 l 667 829 l 667 758 l 603 758 l 603 0 l 518 0 l 518 490 l 176 490 l 176 0 l 92 0 m 176 568 l 518 568 l 518 758 l 176 758 l 176 568 z "},"":{"ha":694,"x_min":28,"x_max":603,"o":"m 92 0 l 92 821 l 28 821 l 28 892 l 92 892 l 92 1021 l 176 1021 l 176 892 l 347 892 l 347 821 l 176 821 l 176 588 q 206 647 188 619 q 252 695 225 675 q 313 724 279 715 q 379 733 346 733 q 447 724 414 733 q 508 694 481 715 q 554 643 535 672 q 584 581 574 614 q 599 513 594 547 q 603 444 603 479 l 603 0 l 518 0 l 518 444 q 515 497 518 471 q 503 547 513 522 q 480 592 494 571 q 444 628 465 614 q 399 650 424 643 q 347 657 374 657 q 296 650 321 657 q 250 628 271 643 q 215 592 229 614 q 191 547 200 571 q 179 497 182 522 q 176 444 176 471 l 176 0 l 92 0 z "},"":{"ha":694,"x_min":103,"x_max":592,"o":"m 104 0 l 104 76 l 306 76 l 306 944 l 104 944 l 104 1021 l 590 1021 l 590 944 l 389 944 l 389 76 l 590 76 l 590 0 l 104 0 m 429 1129 q 414 1131 421 1129 q 401 1134 407 1132 q 388 1140 394 1136 q 375 1147 381 1143 q 365 1155 369 1150 q 355 1165 360 1160 q 345 1176 350 1171 q 336 1188 340 1182 q 328 1199 332 1193 q 319 1210 324 1204 q 311 1222 315 1215 q 302 1234 307 1228 q 293 1247 297 1240 q 285 1257 289 1253 q 275 1267 282 1261 q 267 1274 268 1274 q 258 1270 261 1274 q 251 1263 256 1267 q 243 1255 247 1260 q 237 1247 239 1250 q 233 1242 235 1244 q 228 1235 231 1239 q 224 1228 226 1232 q 219 1220 222 1224 q 214 1212 217 1217 q 209 1203 211 1207 q 204 1193 207 1199 q 199 1183 201 1188 q 193 1172 196 1178 q 187 1159 190 1165 q 181 1147 183 1153 q 175 1133 178 1140 l 103 1163 q 125 1210 114 1189 q 147 1249 136 1231 q 167 1281 157 1267 q 192 1310 176 1294 q 226 1335 207 1325 q 265 1346 244 1346 q 281 1344 274 1346 q 294 1341 288 1343 q 307 1335 300 1339 q 319 1328 314 1332 q 330 1319 325 1324 q 340 1310 335 1315 q 349 1299 344 1304 q 358 1288 354 1293 q 367 1276 363 1282 q 375 1265 371 1271 q 383 1253 379 1260 q 392 1240 388 1246 q 401 1228 397 1233 q 409 1217 406 1222 q 419 1206 413 1213 q 428 1200 426 1200 q 436 1203 433 1200 q 443 1211 439 1207 q 451 1220 447 1215 q 458 1228 456 1225 q 462 1233 460 1231 q 466 1240 464 1236 q 470 1247 468 1243 q 475 1254 472 1250 q 481 1263 478 1258 q 485 1272 483 1267 q 490 1281 488 1276 q 496 1292 493 1286 q 501 1303 499 1297 q 508 1315 504 1308 q 514 1328 511 1321 q 519 1342 517 1335 l 592 1311 q 569 1265 581 1286 q 548 1226 558 1243 q 528 1194 538 1208 q 503 1165 518 1181 q 469 1139 488 1149 q 429 1129 450 1129 z "},"":{"ha":694,"x_min":103,"x_max":592,"o":"m 104 0 l 104 76 l 315 76 l 315 646 l 124 646 l 124 722 l 399 722 l 399 76 l 590 76 l 590 0 l 104 0 m 429 831 q 414 832 421 831 q 401 835 407 833 q 388 841 394 838 q 375 848 381 844 q 365 856 369 851 q 355 867 360 861 q 345 878 350 872 q 336 889 340 883 q 328 900 332 894 q 319 911 324 906 q 311 923 315 917 q 302 935 307 929 q 293 948 297 942 q 285 958 289 954 q 275 969 282 963 q 267 975 268 975 q 258 972 261 975 q 251 965 256 968 q 243 956 247 961 q 237 949 239 951 q 233 943 235 946 q 228 937 231 940 q 224 929 226 933 q 219 922 222 925 q 214 913 217 918 q 209 904 211 908 q 204 894 207 900 q 199 884 201 889 q 193 873 196 879 q 187 860 190 867 q 181 848 183 854 q 175 835 178 842 l 103 864 q 125 911 114 890 q 147 950 136 932 q 167 982 157 968 q 192 1011 176 996 q 226 1037 207 1026 q 265 1047 244 1047 q 281 1046 274 1047 q 294 1042 288 1044 q 307 1037 300 1040 q 319 1029 314 1033 q 330 1021 325 1025 q 340 1011 335 1017 q 349 1000 344 1006 q 358 989 354 994 q 367 978 363 983 q 375 967 371 972 q 383 954 379 961 q 392 941 388 947 q 401 929 397 935 q 409 919 406 924 q 419 908 413 914 q 428 901 426 901 q 436 905 433 901 q 443 913 439 908 q 451 922 447 917 q 458 929 456 926 q 462 935 460 932 q 466 941 464 938 q 470 948 468 944 q 475 956 472 951 q 481 964 478 960 q 485 973 483 968 q 490 983 488 978 q 496 993 493 988 q 501 1004 499 999 q 508 1016 504 1010 q 514 1029 511 1022 q 519 1043 517 1036 l 592 1013 q 569 966 581 988 q 548 927 558 944 q 528 896 538 910 q 503 866 518 882 q 469 840 488 850 q 429 831 450 831 z "},"":{"ha":694,"x_min":104,"x_max":590,"o":"m 104 0 l 104 76 l 306 76 l 306 944 l 104 944 l 104 1021 l 590 1021 l 590 944 l 389 944 l 389 76 l 590 76 l 590 0 l 104 0 m 139 1193 l 139 1265 l 556 1265 l 556 1193 l 139 1193 z "},"":{"ha":694,"x_min":104,"x_max":590,"o":"m 104 0 l 104 76 l 315 76 l 315 646 l 124 646 l 124 722 l 399 722 l 399 76 l 590 76 l 590 0 l 104 0 m 139 894 l 139 967 l 556 967 l 556 894 l 139 894 z "},"":{"ha":694,"x_min":104,"x_max":590,"o":"m 104 0 l 104 76 l 306 76 l 306 944 l 104 944 l 104 1021 l 590 1021 l 590 944 l 389 944 l 389 76 l 590 76 l 590 0 l 104 0 m 347 1132 q 267 1143 307 1132 q 198 1181 228 1154 q 155 1247 168 1208 q 142 1326 142 1286 l 219 1326 q 228 1277 219 1301 q 254 1235 236 1253 q 297 1211 272 1218 q 347 1204 322 1204 q 397 1211 372 1204 q 440 1235 422 1218 q 467 1277 458 1253 q 475 1326 475 1301 l 553 1326 q 540 1247 553 1286 q 497 1181 526 1208 q 427 1143 467 1154 q 347 1132 388 1132 z "},"":{"ha":694,"x_min":104,"x_max":590,"o":"m 104 0 l 104 76 l 315 76 l 315 646 l 124 646 l 124 722 l 399 722 l 399 76 l 590 76 l 590 0 l 104 0 m 347 833 q 267 844 307 833 q 198 883 228 856 q 155 949 168 910 q 142 1028 142 988 l 219 1028 q 228 978 219 1003 q 254 937 236 954 q 297 913 272 919 q 347 906 322 906 q 397 913 372 906 q 440 937 422 919 q 467 978 458 954 q 475 1028 475 1003 l 553 1028 q 540 949 553 988 q 497 883 526 910 q 427 844 467 856 q 347 833 388 833 z "},"":{"ha":694,"x_min":104,"x_max":607,"o":"m 104 0 l 104 76 l 306 76 l 306 944 l 104 944 l 104 1021 l 590 1021 l 590 944 l 389 944 l 389 76 l 590 76 l 590 0 l 104 0 m 560 -310 q 504 -303 532 -310 q 453 -278 476 -296 q 419 -235 431 -261 q 407 -181 407 -208 q 424 -106 407 -142 q 467 -41 440 -69 q 524 10 493 -12 q 590 51 556 33 l 590 0 q 553 -35 571 -17 q 522 -76 536 -54 q 497 -121 507 -97 q 486 -169 486 -144 q 492 -199 486 -185 q 510 -222 499 -212 q 537 -234 522 -231 q 567 -237 551 -237 q 588 -236 578 -237 q 607 -232 597 -235 l 607 -304 q 584 -308 596 -307 q 560 -310 572 -310 z "},"":{"ha":694,"x_min":104,"x_max":607,"o":"m 104 0 l 104 76 l 315 76 l 315 646 l 124 646 l 124 722 l 399 722 l 399 76 l 590 76 l 590 0 l 104 0 m 354 858 q 325 863 339 858 q 301 877 311 867 q 286 901 290 888 q 282 931 282 915 q 286 960 282 946 q 301 984 290 974 q 325 999 311 994 q 354 1003 339 1003 q 383 999 369 1003 q 408 984 397 994 q 422 960 418 974 q 426 931 426 946 q 422 901 426 915 q 408 877 418 888 q 383 863 397 867 q 354 858 369 858 m 560 -310 q 504 -303 532 -310 q 453 -278 476 -296 q 419 -235 431 -261 q 407 -181 407 -208 q 424 -106 407 -142 q 467 -41 440 -69 q 524 10 493 -12 q 590 51 556 33 l 590 0 q 553 -35 571 -17 q 522 -76 536 -54 q 497 -121 507 -97 q 486 -169 486 -144 q 492 -199 486 -185 q 510 -222 499 -212 q 537 -234 522 -231 q 567 -237 551 -237 q 588 -236 578 -237 q 607 -232 597 -235 l 607 -304 q 584 -308 596 -307 q 560 -310 572 -310 z "},"":{"ha":694,"x_min":104,"x_max":590,"o":"m 104 0 l 104 76 l 306 76 l 306 944 l 104 944 l 104 1021 l 590 1021 l 590 944 l 389 944 l 389 76 l 590 76 l 590 0 l 104 0 m 347 1157 q 318 1161 332 1157 q 294 1176 304 1165 q 279 1200 283 1186 q 275 1229 275 1214 q 279 1258 275 1244 q 294 1283 283 1272 q 318 1297 304 1293 q 347 1301 332 1301 q 376 1297 363 1301 q 401 1283 390 1293 q 415 1258 411 1272 q 419 1229 419 1244 q 415 1200 419 1214 q 401 1176 411 1186 q 376 1161 390 1165 q 347 1157 363 1157 z "},"":{"ha":694,"x_min":104,"x_max":590,"o":"m 104 0 l 104 76 l 315 76 l 315 646 l 124 646 l 124 722 l 399 722 l 399 76 l 590 76 l 590 0 l 104 0 z "},"":{"ha":694,"x_min":65,"x_max":699,"o":"m 319 -11 q 253 -6 286 -11 q 190 15 219 0 q 136 54 160 31 q 97 108 113 78 q 73 170 81 138 q 65 238 65 203 l 65 244 l 150 244 l 150 239 q 161 171 150 204 q 196 113 172 138 q 253 76 219 88 q 319 65 286 65 q 369 72 344 65 q 415 92 394 78 q 451 128 436 107 q 474 172 465 149 q 486 221 483 196 q 489 271 489 246 l 489 944 l 289 944 l 289 1021 l 574 1021 l 574 271 q 569 199 574 235 q 549 131 564 164 q 512 69 535 97 q 458 22 489 40 q 391 -3 426 4 q 319 -11 356 -11 m 381 1119 l 324 1158 l 458 1349 l 564 1349 l 699 1158 l 642 1119 l 511 1283 l 381 1119 z "},"":{"ha":694,"x_min":40,"x_max":613,"o":"m 257 -310 q 172 -297 214 -310 q 100 -253 131 -283 q 55 -181 69 -222 q 40 -96 40 -139 l 124 -96 q 133 -149 125 -124 q 160 -195 142 -175 q 204 -224 178 -215 q 257 -233 231 -233 q 302 -225 281 -233 q 340 -200 324 -217 q 367 -162 357 -183 q 383 -119 376 -142 q 391 -74 389 -97 q 393 -28 393 -51 l 393 646 l 192 646 l 192 722 l 476 722 l 476 -28 q 473 -95 476 -61 q 458 -161 469 -129 q 429 -222 447 -193 q 384 -271 411 -250 q 324 -301 357 -292 q 257 -310 292 -310 m 293 821 l 236 860 l 371 1050 l 476 1050 l 611 860 l 554 821 l 424 985 l 293 821 z "},"":{"ha":694,"x_min":114,"x_max":611,"o":"m 518 0 l 272 482 l 197 364 l 197 0 l 114 0 l 114 1021 l 197 1021 l 197 510 l 514 1021 l 611 1021 l 321 560 l 611 0 l 518 0 m 336 -332 l 288 -294 q 319 -245 307 -272 q 336 -190 331 -218 q 317 -184 326 -189 q 301 -172 307 -179 q 292 -153 294 -164 q 289 -133 289 -143 q 292 -110 289 -121 q 304 -90 296 -99 q 324 -78 313 -82 q 347 -75 336 -75 q 370 -78 358 -75 q 390 -90 382 -82 q 402 -110 399 -99 q 406 -133 406 -121 q 388 -240 406 -187 q 336 -332 371 -292 z "},"":{"ha":694,"x_min":114,"x_max":606,"o":"m 507 0 l 279 332 l 197 236 l 197 0 l 114 0 l 114 1021 l 197 1021 l 197 354 l 500 722 l 606 722 l 331 394 l 606 0 l 507 0 m 336 -332 l 288 -294 q 319 -245 307 -272 q 336 -190 331 -218 q 317 -184 326 -189 q 301 -172 307 -179 q 292 -153 294 -164 q 289 -133 289 -143 q 292 -110 289 -121 q 304 -90 296 -99 q 324 -78 313 -82 q 347 -75 336 -75 q 370 -78 358 -75 q 390 -90 382 -82 q 402 -110 399 -99 q 406 -133 406 -121 q 388 -240 406 -187 q 336 -332 371 -292 z "},"":{"ha":694,"x_min":114,"x_max":606,"o":"m 507 0 l 279 332 l 197 236 l 197 0 l 114 0 l 114 722 l 197 722 l 197 354 l 500 722 l 606 722 l 331 394 l 606 0 l 507 0 z "},"":{"ha":694,"x_min":113,"x_max":611,"o":"m 138 0 l 138 1021 l 222 1021 l 222 76 l 611 76 l 611 0 l 138 0 m 167 1111 l 113 1153 l 267 1351 l 335 1301 l 167 1111 z "},"":{"ha":694,"x_min":104,"x_max":590,"o":"m 104 0 l 104 76 l 315 76 l 315 944 l 124 944 l 124 1021 l 399 1021 l 399 76 l 590 76 l 590 0 l 104 0 m 342 1111 l 288 1153 l 442 1351 l 510 1301 l 342 1111 z "},"":{"ha":694,"x_min":138,"x_max":611,"o":"m 138 0 l 138 1021 l 222 1021 l 222 76 l 611 76 l 611 0 l 138 0 m 336 -332 l 288 -294 q 319 -245 307 -272 q 336 -190 331 -218 q 317 -184 326 -189 q 301 -172 307 -179 q 292 -153 294 -164 q 289 -133 289 -143 q 292 -110 289 -121 q 304 -90 296 -99 q 324 -78 313 -82 q 347 -75 336 -75 q 370 -78 358 -75 q 390 -90 382 -82 q 402 -110 399 -99 q 406 -133 406 -121 q 388 -240 406 -187 q 336 -332 371 -292 z "},"":{"ha":694,"x_min":104,"x_max":590,"o":"m 104 0 l 104 76 l 315 76 l 315 944 l 124 944 l 124 1021 l 399 1021 l 399 76 l 590 76 l 590 0 l 104 0 m 346 -332 l 297 -294 q 328 -245 317 -272 q 346 -190 340 -218 q 326 -184 336 -189 q 310 -172 317 -179 q 301 -153 304 -164 q 299 -133 299 -143 q 302 -110 299 -121 q 314 -90 306 -99 q 334 -78 322 -82 q 357 -75 346 -75 q 380 -78 368 -75 q 400 -90 392 -82 q 412 -110 408 -99 q 415 -133 415 -121 q 398 -240 415 -187 q 346 -332 381 -292 z "},"":{"ha":694,"x_min":138,"x_max":611,"o":"m 528 797 l 479 836 q 510 885 499 858 q 528 940 522 911 q 508 946 518 942 q 492 958 499 950 q 483 976 486 967 q 481 997 481 986 q 484 1020 481 1008 q 496 1040 488 1032 q 516 1052 504 1049 q 539 1056 528 1056 q 562 1052 550 1056 q 582 1040 574 1049 q 594 1020 590 1032 q 597 997 597 1008 q 580 890 597 943 q 528 797 563 838 m 138 0 l 138 1021 l 222 1021 l 222 76 l 611 76 l 611 0 l 138 0 z "},"":{"ha":694,"x_min":104,"x_max":592,"o":"m 521 797 l 472 836 q 503 885 492 858 q 521 940 515 911 q 501 946 511 942 q 485 958 492 950 q 476 976 479 967 q 474 997 474 986 q 477 1020 474 1008 q 489 1040 481 1032 q 509 1052 497 1049 q 532 1056 521 1056 q 555 1052 543 1056 q 575 1040 567 1049 q 587 1020 583 1032 q 590 997 590 1008 q 573 890 590 943 q 521 797 556 838 m 104 0 l 104 76 l 315 76 l 315 944 l 124 944 l 124 1021 l 399 1021 l 399 76 l 590 76 l 590 0 l 104 0 z "},"":{"ha":694,"x_min":138,"x_max":611,"o":"m 138 0 l 138 1021 l 222 1021 l 222 76 l 611 76 l 611 0 l 138 0 m 444 465 q 411 470 428 465 q 383 487 394 475 q 366 515 371 499 q 361 549 361 532 q 366 582 361 565 q 383 610 371 599 q 411 627 394 622 q 444 632 428 632 q 478 627 461 632 q 506 610 494 622 q 523 582 518 599 q 528 549 528 565 q 523 515 528 532 q 506 487 518 499 q 478 470 494 475 q 444 465 461 465 z "},"":{"ha":694,"x_min":67,"x_max":614,"o":"m 68 0 l 68 76 l 279 76 l 279 944 l 88 944 l 88 1021 l 363 1021 l 363 76 l 554 76 l 554 0 l 68 0 m 531 465 q 497 470 514 465 q 469 487 481 475 q 452 515 457 499 q 447 549 447 532 q 452 582 447 565 q 469 610 457 599 q 497 627 481 622 q 531 632 514 632 q 564 627 547 632 q 592 610 581 622 q 609 582 604 599 q 614 549 614 565 q 609 515 614 532 q 592 487 604 499 q 564 470 581 475 q 531 465 547 465 z "},"":{"ha":694,"x_min":29,"x_max":611,"o":"m 138 0 l 138 457 l 63 419 l 29 483 l 138 538 l 138 1021 l 222 1021 l 222 579 l 418 678 l 451 614 l 222 500 l 222 76 l 611 76 l 611 0 l 138 0 z "},"":{"ha":694,"x_min":104,"x_max":590,"o":"m 104 0 l 104 76 l 315 76 l 315 469 l 179 403 l 146 465 l 315 550 l 315 944 l 124 944 l 124 1021 l 399 1021 l 399 592 l 535 660 l 568 597 l 399 513 l 399 76 l 590 76 l 590 0 l 104 0 z "},"":{"ha":694,"x_min":92,"x_max":603,"o":"m 92 0 l 92 1021 l 201 1021 l 526 131 q 522 371 525 250 q 518 613 518 492 l 518 1021 l 603 1021 l 603 0 l 493 0 l 168 890 q 173 650 169 771 q 176 408 176 529 l 176 0 l 92 0 m 335 1111 l 281 1153 l 435 1351 l 503 1301 l 335 1111 z "},"":{"ha":694,"x_min":92,"x_max":603,"o":"m 92 0 l 92 722 l 176 722 l 176 588 q 206 647 188 619 q 252 695 225 675 q 313 724 279 715 q 379 733 346 733 q 447 724 414 733 q 508 694 481 715 q 554 643 535 672 q 584 581 574 614 q 599 513 594 547 q 603 444 603 479 l 603 0 l 518 0 l 518 444 q 515 497 518 471 q 503 547 513 522 q 480 592 494 571 q 444 628 465 614 q 399 650 424 643 q 347 657 374 657 q 296 650 321 657 q 250 628 271 643 q 215 592 229 614 q 191 547 200 571 q 179 497 182 522 q 176 444 176 471 l 176 0 l 92 0 m 335 813 l 281 854 l 435 1053 l 503 1003 l 335 813 z "},"":{"ha":694,"x_min":92,"x_max":603,"o":"m 92 0 l 92 1021 l 201 1021 l 526 131 q 522 371 525 250 q 518 613 518 492 l 518 1021 l 603 1021 l 603 0 l 493 0 l 168 890 q 173 650 169 771 q 176 408 176 529 l 176 0 l 92 0 m 336 -332 l 288 -294 q 319 -245 307 -272 q 336 -190 331 -218 q 317 -184 326 -189 q 301 -172 307 -179 q 292 -153 294 -164 q 289 -133 289 -143 q 292 -110 289 -121 q 304 -90 296 -99 q 324 -78 313 -82 q 347 -75 336 -75 q 370 -78 358 -75 q 390 -90 382 -82 q 402 -110 399 -99 q 406 -133 406 -121 q 388 -240 406 -187 q 336 -332 371 -292 z "},"":{"ha":694,"x_min":92,"x_max":603,"o":"m 92 0 l 92 722 l 176 722 l 176 588 q 206 647 188 619 q 252 695 225 675 q 313 724 279 715 q 379 733 346 733 q 447 724 414 733 q 508 694 481 715 q 554 643 535 672 q 584 581 574 614 q 599 513 594 547 q 603 444 603 479 l 603 0 l 518 0 l 518 444 q 515 497 518 471 q 503 547 513 522 q 480 592 494 571 q 444 628 465 614 q 399 650 424 643 q 347 657 374 657 q 296 650 321 657 q 250 628 271 643 q 215 592 229 614 q 191 547 200 571 q 179 497 182 522 q 176 444 176 471 l 176 0 l 92 0 m 336 -332 l 288 -294 q 319 -245 307 -272 q 336 -190 331 -218 q 317 -184 326 -189 q 301 -172 307 -179 q 292 -153 294 -164 q 289 -133 289 -143 q 292 -110 289 -121 q 304 -90 296 -99 q 324 -78 313 -82 q 347 -75 336 -75 q 370 -78 358 -75 q 390 -90 382 -82 q 402 -110 399 -99 q 406 -133 406 -121 q 388 -240 406 -187 q 336 -332 371 -292 z "},"":{"ha":694,"x_min":92,"x_max":603,"o":"m 92 0 l 92 1021 l 201 1021 l 526 131 q 522 371 525 250 q 518 613 518 492 l 518 1021 l 603 1021 l 603 0 l 493 0 l 168 890 q 173 650 169 771 q 176 408 176 529 l 176 0 l 92 0 m 294 1132 l 160 1322 l 217 1361 l 347 1197 l 478 1361 l 535 1322 l 400 1132 l 294 1132 z "},"":{"ha":694,"x_min":92,"x_max":603,"o":"m 92 0 l 92 722 l 176 722 l 176 588 q 206 647 188 619 q 252 695 225 675 q 313 724 279 715 q 379 733 346 733 q 447 724 414 733 q 508 694 481 715 q 554 643 535 672 q 584 581 574 614 q 599 513 594 547 q 603 444 603 479 l 603 0 l 518 0 l 518 444 q 515 497 518 471 q 503 547 513 522 q 480 592 494 571 q 444 628 465 614 q 399 650 424 643 q 347 657 374 657 q 296 650 321 657 q 250 628 271 643 q 215 592 229 614 q 191 547 200 571 q 179 497 182 522 q 176 444 176 471 l 176 0 l 92 0 m 294 833 l 160 1024 l 217 1063 l 347 899 l 478 1063 l 535 1024 l 400 833 l 294 833 z "},"":{"ha":694,"x_min":32,"x_max":603,"o":"m 92 0 l 92 722 l 176 722 l 176 588 q 206 647 188 619 q 252 695 225 675 q 313 724 279 715 q 379 733 346 733 q 447 724 414 733 q 508 694 481 715 q 554 643 535 672 q 584 581 574 614 q 599 513 594 547 q 603 444 603 479 l 603 0 l 518 0 l 518 444 q 515 497 518 471 q 503 547 513 522 q 480 592 494 571 q 444 628 465 614 q 399 650 424 643 q 347 657 374 657 q 296 650 321 657 q 250 628 271 643 q 215 592 229 614 q 191 547 200 571 q 179 497 182 522 q 176 444 176 471 l 176 0 l 92 0 m 81 797 l 32 836 q 63 885 51 858 q 81 940 75 911 q 61 946 71 942 q 45 958 51 950 q 36 976 39 967 q 33 997 33 986 q 37 1020 33 1008 q 49 1040 40 1032 q 69 1052 57 1049 q 92 1056 81 1056 q 115 1052 103 1056 q 135 1040 126 1049 q 147 1020 143 1032 q 150 997 150 1008 q 133 890 150 943 q 81 797 115 838 z "},"":{"ha":694,"x_min":92,"x_max":603,"o":"m 92 0 l 92 1021 l 201 1021 l 526 131 q 522 371 525 250 q 518 613 518 492 l 518 1021 l 603 1021 l 603 0 l 493 0 l 168 890 q 173 650 169 771 q 176 408 176 529 l 176 0 l 92 0 m 325 -299 l 325 -222 l 353 -222 q 399 -218 376 -222 q 440 -203 421 -214 q 476 -176 460 -193 q 501 -139 492 -160 q 515 -96 511 -118 q 518 -51 518 -74 l 518 0 l 603 0 l 603 -51 q 597 -117 603 -85 q 576 -180 590 -150 q 537 -233 561 -210 q 483 -272 513 -257 q 419 -293 453 -287 q 353 -299 386 -299 l 325 -299 z "},"":{"ha":694,"x_min":92,"x_max":603,"o":"m 325 -299 l 325 -222 l 353 -222 q 399 -218 376 -222 q 440 -203 421 -214 q 476 -176 460 -193 q 501 -139 492 -160 q 515 -96 511 -118 q 518 -51 518 -74 l 518 444 q 515 497 518 471 q 503 547 513 522 q 480 592 494 571 q 444 628 465 614 q 399 650 424 643 q 347 657 374 657 q 296 650 321 657 q 250 628 271 643 q 215 592 229 614 q 191 547 200 571 q 179 497 182 522 q 176 444 176 471 l 176 0 l 92 0 l 92 722 l 176 722 l 176 588 q 206 647 188 619 q 252 695 225 675 q 313 724 279 715 q 379 733 346 733 q 447 724 414 733 q 508 694 481 715 q 554 643 535 672 q 584 581 574 614 q 599 513 594 547 q 603 444 603 479 l 603 -51 q 597 -117 603 -85 q 576 -180 590 -150 q 537 -233 561 -210 q 483 -272 513 -257 q 419 -293 453 -287 q 353 -299 386 -299 l 325 -299 z "},"":{"ha":694,"x_min":81,"x_max":614,"o":"m 347 -11 q 274 -4 311 -11 q 206 21 238 3 q 148 67 174 39 q 107 128 122 94 q 86 198 92 161 q 81 271 81 235 l 81 750 q 86 823 81 786 q 107 893 92 860 q 148 954 122 926 q 206 1000 174 982 q 274 1025 238 1018 q 347 1032 311 1032 q 420 1025 383 1032 q 489 1000 457 1018 q 547 954 521 982 q 588 893 572 926 q 608 823 603 860 q 614 750 614 786 l 614 271 q 608 198 614 235 q 588 128 603 161 q 547 67 572 94 q 489 21 521 39 q 420 -4 457 3 q 347 -11 383 -11 m 347 65 q 399 71 374 65 q 447 90 425 76 q 486 124 469 104 q 513 169 503 144 q 526 219 522 193 q 529 271 529 244 l 529 750 q 526 802 529 776 q 513 852 522 828 q 486 897 503 876 q 447 931 469 917 q 399 950 425 944 q 347 956 374 956 q 295 950 321 956 q 247 931 269 944 q 208 897 225 917 q 182 852 192 876 q 169 802 172 828 q 165 750 165 776 l 165 271 q 169 219 165 244 q 182 169 172 193 q 208 124 192 144 q 247 90 225 104 q 295 71 269 76 q 347 65 321 65 m 139 1193 l 139 1265 l 556 1265 l 556 1193 l 139 1193 z "},"":{"ha":694,"x_min":81,"x_max":614,"o":"m 347 -11 q 273 -3 310 -11 q 203 22 236 4 q 147 69 171 40 q 107 133 122 99 q 86 203 92 167 q 81 278 81 240 l 81 444 q 86 519 81 482 q 107 590 92 556 q 147 653 122 624 q 203 700 171 682 q 273 726 236 718 q 347 733 310 733 q 422 726 385 733 q 491 700 458 718 q 548 653 524 682 q 588 590 572 624 q 608 519 603 556 q 614 444 614 482 l 614 278 q 608 203 614 240 q 588 133 603 167 q 548 69 572 99 q 491 22 524 40 q 422 -3 458 4 q 347 -11 385 -11 m 347 65 q 400 72 374 65 q 449 92 426 78 q 487 128 471 107 q 513 174 503 149 q 526 225 522 199 q 529 278 529 251 l 529 444 q 526 497 529 471 q 513 549 522 524 q 487 594 503 574 q 449 630 471 615 q 400 651 426 644 q 347 657 374 657 q 294 651 321 657 q 246 630 268 644 q 208 594 224 615 q 182 549 192 574 q 169 497 172 524 q 165 444 165 471 l 165 278 q 169 225 165 251 q 182 174 172 199 q 208 128 192 149 q 246 92 224 107 q 294 72 268 78 q 347 65 321 65 m 139 894 l 139 967 l 556 967 l 556 894 l 139 894 z "},"":{"ha":694,"x_min":81,"x_max":614,"o":"m 347 -11 q 274 -4 311 -11 q 206 21 238 3 q 148 67 174 39 q 107 128 122 94 q 86 198 92 161 q 81 271 81 235 l 81 750 q 86 823 81 786 q 107 893 92 860 q 148 954 122 926 q 206 1000 174 982 q 274 1025 238 1018 q 347 1032 311 1032 q 420 1025 383 1032 q 489 1000 457 1018 q 547 954 521 982 q 588 893 572 926 q 608 823 603 860 q 614 750 614 786 l 614 271 q 608 198 614 235 q 588 128 603 161 q 547 67 572 94 q 489 21 521 39 q 420 -4 457 3 q 347 -11 383 -11 m 347 65 q 399 71 374 65 q 447 90 425 76 q 486 124 469 104 q 513 169 503 144 q 526 219 522 193 q 529 271 529 244 l 529 750 q 526 802 529 776 q 513 852 522 828 q 486 897 503 876 q 447 931 469 917 q 399 950 425 944 q 347 956 374 956 q 295 950 321 956 q 247 931 269 944 q 208 897 225 917 q 182 852 192 876 q 169 802 172 828 q 165 750 165 776 l 165 271 q 169 219 165 244 q 182 169 172 193 q 208 124 192 144 q 247 90 225 104 q 295 71 269 76 q 347 65 321 65 m 347 1132 q 267 1143 307 1132 q 198 1181 228 1154 q 155 1247 168 1208 q 142 1326 142 1286 l 219 1326 q 228 1277 219 1301 q 254 1235 236 1253 q 297 1211 272 1218 q 347 1204 322 1204 q 397 1211 372 1204 q 440 1235 422 1218 q 467 1277 458 1253 q 475 1326 475 1301 l 553 1326 q 540 1247 553 1286 q 497 1181 526 1208 q 427 1143 467 1154 q 347 1132 388 1132 z "},"":{"ha":694,"x_min":81,"x_max":614,"o":"m 347 -11 q 273 -3 310 -11 q 203 22 236 4 q 147 69 171 40 q 107 133 122 99 q 86 203 92 167 q 81 278 81 240 l 81 444 q 86 519 81 482 q 107 590 92 556 q 147 653 122 624 q 203 700 171 682 q 273 726 236 718 q 347 733 310 733 q 422 726 385 733 q 491 700 458 718 q 548 653 524 682 q 588 590 572 624 q 608 519 603 556 q 614 444 614 482 l 614 278 q 608 203 614 240 q 588 133 603 167 q 548 69 572 99 q 491 22 524 40 q 422 -3 458 4 q 347 -11 385 -11 m 347 65 q 400 72 374 65 q 449 92 426 78 q 487 128 471 107 q 513 174 503 149 q 526 225 522 199 q 529 278 529 251 l 529 444 q 526 497 529 471 q 513 549 522 524 q 487 594 503 574 q 449 630 471 615 q 400 651 426 644 q 347 657 374 657 q 294 651 321 657 q 246 630 268 644 q 208 594 224 615 q 182 549 192 574 q 169 497 172 524 q 165 444 165 471 l 165 278 q 169 225 165 251 q 182 174 172 199 q 208 128 192 149 q 246 92 224 107 q 294 72 268 78 q 347 65 321 65 m 347 833 q 267 844 307 833 q 198 883 228 856 q 155 949 168 910 q 142 1028 142 988 l 219 1028 q 228 978 219 1003 q 254 937 236 954 q 297 913 272 919 q 347 906 322 906 q 397 913 372 906 q 440 937 422 919 q 467 978 458 954 q 475 1028 475 1003 l 553 1028 q 540 949 553 988 q 497 883 526 910 q 427 844 467 856 q 347 833 388 833 z "},"":{"ha":694,"x_min":81,"x_max":636,"o":"m 347 -11 q 274 -4 311 -11 q 206 21 238 3 q 148 67 174 39 q 107 128 122 94 q 86 198 92 161 q 81 271 81 235 l 81 750 q 86 823 81 786 q 107 893 92 860 q 148 954 122 926 q 206 1000 174 982 q 274 1025 238 1018 q 347 1032 311 1032 q 420 1025 383 1032 q 489 1000 457 1018 q 547 954 521 982 q 588 893 572 926 q 608 823 603 860 q 614 750 614 786 l 614 271 q 608 198 614 235 q 588 128 603 161 q 547 67 572 94 q 489 21 521 39 q 420 -4 457 3 q 347 -11 383 -11 m 347 65 q 399 71 374 65 q 447 90 425 76 q 486 124 469 104 q 513 169 503 144 q 526 219 522 193 q 529 271 529 244 l 529 750 q 526 802 529 776 q 513 852 522 828 q 486 897 503 876 q 447 931 469 917 q 399 950 425 944 q 347 956 374 956 q 295 950 321 956 q 247 931 269 944 q 208 897 225 917 q 182 852 192 876 q 169 802 172 828 q 165 750 165 776 l 165 271 q 169 219 165 244 q 182 169 172 193 q 208 124 192 144 q 247 90 225 104 q 295 71 269 76 q 347 65 321 65 m 451 1110 l 400 1154 l 572 1353 l 636 1300 l 451 1110 m 215 1110 l 164 1154 l 336 1353 l 400 1300 l 215 1110 z "},"":{"ha":694,"x_min":81,"x_max":636,"o":"m 347 -11 q 273 -3 310 -11 q 203 22 236 4 q 147 69 171 40 q 107 133 122 99 q 86 203 92 167 q 81 278 81 240 l 81 444 q 86 519 81 482 q 107 590 92 556 q 147 653 122 624 q 203 700 171 682 q 273 726 236 718 q 347 733 310 733 q 422 726 385 733 q 491 700 458 718 q 548 653 524 682 q 588 590 572 624 q 608 519 603 556 q 614 444 614 482 l 614 278 q 608 203 614 240 q 588 133 603 167 q 548 69 572 99 q 491 22 524 40 q 422 -3 458 4 q 347 -11 385 -11 m 347 65 q 400 72 374 65 q 449 92 426 78 q 487 128 471 107 q 513 174 503 149 q 526 225 522 199 q 529 278 529 251 l 529 444 q 526 497 529 471 q 513 549 522 524 q 487 594 503 574 q 449 630 471 615 q 400 651 426 644 q 347 657 374 657 q 294 651 321 657 q 246 630 268 644 q 208 594 224 615 q 182 549 192 574 q 169 497 172 524 q 165 444 165 471 l 165 278 q 169 225 165 251 q 182 174 172 199 q 208 128 192 149 q 246 92 224 107 q 294 72 268 78 q 347 65 321 65 m 451 811 l 400 856 l 572 1054 l 636 1001 l 451 811 m 215 811 l 164 856 l 336 1054 l 400 1001 l 215 811 z "},"":{"ha":694,"x_min":68,"x_max":615,"o":"m 326 0 l 326 1021 l 615 1021 l 615 947 l 408 947 l 408 568 l 597 568 l 597 494 l 408 494 l 408 74 l 615 74 l 615 0 l 326 0 m 326 0 q 256 7 292 0 q 190 31 221 14 q 134 74 158 47 q 94 133 110 100 q 74 200 79 165 q 68 271 68 235 l 68 750 q 74 821 68 786 q 94 888 79 856 q 134 947 110 921 q 190 990 158 974 q 256 1014 221 1007 q 326 1021 292 1021 l 326 947 q 276 942 301 947 q 230 924 251 938 q 192 892 208 911 q 166 849 176 872 q 152 800 156 825 q 149 750 149 775 l 149 271 q 152 221 149 246 q 166 172 156 196 q 192 129 176 149 q 230 97 208 110 q 276 78 251 83 q 326 74 301 74 l 326 0 z "},"":{"ha":694,"x_min":68,"x_max":626,"o":"m 228 -11 q 181 -5 204 -11 q 138 15 157 1 q 104 49 118 29 q 82 92 90 69 q 71 139 74 115 q 68 186 68 163 l 68 536 q 71 583 68 560 q 82 630 74 607 q 104 673 90 653 q 138 707 118 693 q 181 727 157 721 q 228 733 204 733 q 294 719 261 733 q 347 679 326 706 q 401 719 368 706 q 467 733 433 733 q 514 727 490 733 q 557 707 538 721 q 590 673 576 693 q 613 630 604 653 q 624 583 621 607 q 626 536 626 560 l 626 325 l 388 325 l 388 186 q 390 146 388 167 q 402 106 393 125 q 428 75 411 88 q 465 63 444 63 q 503 76 486 63 q 528 108 519 89 q 540 147 536 126 q 543 189 543 168 l 543 196 l 624 196 l 624 185 q 620 138 624 161 q 608 92 617 114 q 587 49 600 69 q 555 15 574 29 q 513 -5 536 1 q 465 -11 489 -11 q 400 3 432 -11 q 347 43 368 17 q 294 2 326 15 q 228 -11 261 -11 m 388 397 l 546 397 l 546 536 q 543 577 546 557 q 531 616 540 597 q 505 647 522 635 q 467 660 488 660 q 428 647 446 660 q 402 616 411 635 q 390 577 393 597 q 388 536 388 557 l 388 397 m 228 63 q 266 75 249 63 q 292 106 283 88 q 304 145 301 125 q 307 186 307 165 l 307 536 q 304 577 307 557 q 292 616 301 597 q 266 647 283 635 q 228 660 249 660 q 190 647 207 660 q 163 616 172 635 q 151 577 154 597 q 149 536 149 557 l 149 186 q 151 145 149 165 q 163 106 154 125 q 190 75 172 88 q 228 63 207 63 z "},"":{"ha":694,"x_min":92,"x_max":636,"o":"m 636 0 l 543 0 l 325 436 l 176 436 l 176 0 l 92 0 l 92 1021 l 357 1021 q 430 1013 393 1021 q 498 985 467 1004 q 553 936 529 965 q 590 873 576 907 q 609 802 604 839 q 614 728 614 765 q 610 664 614 696 q 597 601 607 632 q 569 544 586 571 q 529 495 553 517 q 476 459 506 474 q 415 439 447 444 l 636 0 m 176 513 l 357 513 q 408 519 383 513 q 455 542 433 526 q 491 578 476 557 q 515 625 506 600 q 526 676 524 650 q 529 728 529 703 q 526 781 529 754 q 515 831 524 807 q 491 878 506 856 q 455 915 476 900 q 408 938 433 931 q 357 944 383 944 l 176 944 l 176 513 m 335 1111 l 281 1153 l 435 1351 l 503 1301 l 335 1111 z "},"":{"ha":694,"x_min":175,"x_max":624,"o":"m 175 0 l 175 722 l 260 722 l 260 561 q 285 626 269 594 q 324 682 300 657 q 380 720 347 707 q 447 733 413 733 q 498 728 472 733 q 545 710 524 724 q 583 676 567 696 q 608 632 599 656 q 620 583 617 608 q 624 531 624 557 l 539 531 q 535 577 539 554 q 517 619 531 600 q 483 647 504 638 q 439 657 461 657 q 379 646 408 657 q 328 613 350 635 q 294 563 307 590 q 273 505 281 535 q 263 444 265 475 q 260 383 260 414 l 260 0 l 175 0 m 350 813 l 296 854 l 450 1053 l 518 1003 l 350 813 z "},"":{"ha":694,"x_min":92,"x_max":636,"o":"m 636 0 l 543 0 l 325 436 l 176 436 l 176 0 l 92 0 l 92 1021 l 357 1021 q 430 1013 393 1021 q 498 985 467 1004 q 553 936 529 965 q 590 873 576 907 q 609 802 604 839 q 614 728 614 765 q 610 664 614 696 q 597 601 607 632 q 569 544 586 571 q 529 495 553 517 q 476 459 506 474 q 415 439 447 444 l 636 0 m 176 513 l 357 513 q 408 519 383 513 q 455 542 433 526 q 491 578 476 557 q 515 625 506 600 q 526 676 524 650 q 529 728 529 703 q 526 781 529 754 q 515 831 524 807 q 491 878 506 856 q 455 915 476 900 q 408 938 433 931 q 357 944 383 944 l 176 944 l 176 513 m 336 -332 l 288 -294 q 319 -245 307 -272 q 336 -190 331 -218 q 317 -184 326 -189 q 301 -172 307 -179 q 292 -153 294 -164 q 289 -133 289 -143 q 292 -110 289 -121 q 304 -90 296 -99 q 324 -78 313 -82 q 347 -75 336 -75 q 370 -78 358 -75 q 390 -90 382 -82 q 402 -110 399 -99 q 406 -133 406 -121 q 388 -240 406 -187 q 336 -332 371 -292 z "},"":{"ha":694,"x_min":157,"x_max":624,"o":"m 175 0 l 175 722 l 260 722 l 260 561 q 285 626 269 594 q 324 682 300 657 q 380 720 347 707 q 447 733 413 733 q 498 728 472 733 q 545 710 524 724 q 583 676 567 696 q 608 632 599 656 q 620 583 617 608 q 624 531 624 557 l 539 531 q 535 577 539 554 q 517 619 531 600 q 483 647 504 638 q 439 657 461 657 q 379 646 408 657 q 328 613 350 635 q 294 563 307 590 q 273 505 281 535 q 263 444 265 475 q 260 383 260 414 l 260 0 l 175 0 m 206 -332 l 157 -294 q 188 -245 176 -272 q 206 -190 200 -218 q 186 -184 196 -189 q 170 -172 176 -179 q 161 -153 164 -164 q 158 -133 158 -143 q 162 -110 158 -121 q 174 -90 165 -99 q 194 -78 182 -82 q 217 -75 206 -75 q 240 -78 228 -75 q 260 -90 251 -82 q 272 -110 268 -99 q 275 -133 275 -121 q 258 -240 275 -187 q 206 -332 240 -292 z "},"":{"ha":694,"x_min":92,"x_max":636,"o":"m 636 0 l 543 0 l 325 436 l 176 436 l 176 0 l 92 0 l 92 1021 l 357 1021 q 430 1013 393 1021 q 498 985 467 1004 q 553 936 529 965 q 590 873 576 907 q 609 802 604 839 q 614 728 614 765 q 610 664 614 696 q 597 601 607 632 q 569 544 586 571 q 529 495 553 517 q 476 459 506 474 q 415 439 447 444 l 636 0 m 176 513 l 357 513 q 408 519 383 513 q 455 542 433 526 q 491 578 476 557 q 515 625 506 600 q 526 676 524 650 q 529 728 529 703 q 526 781 529 754 q 515 831 524 807 q 491 878 506 856 q 455 915 476 900 q 408 938 433 931 q 357 944 383 944 l 176 944 l 176 513 m 294 1132 l 160 1322 l 217 1361 l 347 1197 l 478 1361 l 535 1322 l 400 1132 l 294 1132 z "},"":{"ha":694,"x_min":174,"x_max":624,"o":"m 175 0 l 175 722 l 260 722 l 260 561 q 285 626 269 594 q 324 682 300 657 q 380 720 347 707 q 447 733 413 733 q 498 728 472 733 q 545 710 524 724 q 583 676 567 696 q 608 632 599 656 q 620 583 617 608 q 624 531 624 557 l 539 531 q 535 577 539 554 q 517 619 531 600 q 483 647 504 638 q 439 657 461 657 q 379 646 408 657 q 328 613 350 635 q 294 563 307 590 q 273 505 281 535 q 263 444 265 475 q 260 383 260 414 l 260 0 l 175 0 m 310 833 l 175 1024 l 232 1063 l 363 899 l 493 1063 l 550 1024 l 415 833 l 310 833 z "},"":{"ha":694,"x_min":78,"x_max":614,"o":"m 346 -11 q 277 -6 311 -11 q 212 14 243 0 q 155 51 181 28 q 112 103 129 74 q 86 167 94 133 q 78 235 78 200 l 78 244 l 163 244 l 163 238 q 175 167 163 201 q 214 110 188 133 q 275 76 240 86 q 346 65 310 65 q 417 76 382 65 q 478 113 453 88 q 517 173 504 138 q 531 244 531 208 q 516 315 531 281 q 477 377 501 350 q 422 424 453 404 q 357 460 390 443 q 291 493 324 476 q 228 531 258 510 q 173 579 199 553 q 129 638 147 606 q 101 705 111 669 q 92 778 92 740 q 99 845 92 811 q 122 909 107 879 q 162 964 138 939 q 217 1004 186 989 q 281 1026 247 1019 q 349 1032 315 1032 q 415 1026 382 1032 q 478 1006 449 1021 q 533 968 508 992 q 574 915 558 944 q 598 853 590 886 q 606 786 606 819 l 606 776 l 521 776 l 521 783 q 510 851 521 818 q 474 909 499 885 q 417 944 450 933 q 349 956 383 956 q 280 944 314 956 q 222 906 246 932 q 187 847 199 881 q 175 778 175 813 q 189 706 175 740 q 228 644 203 671 q 284 597 253 617 q 348 562 315 578 q 413 528 381 546 q 476 490 446 511 q 531 442 506 468 q 576 383 557 415 q 604 316 594 351 q 614 244 614 281 q 606 174 614 208 q 581 110 597 140 q 538 55 564 79 q 481 15 513 31 q 415 -6 450 0 q 346 -11 381 -11 m 335 1111 l 281 1153 l 435 1351 l 503 1301 l 335 1111 z "}}}
